  0
SECTION
  2
HEADER
  9
$ACADVER
  1
AC1014
  9
$HANDSEED
  5
FFFF
  9
$MEASUREMENT
 70
     1
  0
ENDSEC
  0
SECTION
  2
TABLES
  0
TABLE
  2
VPORT
  5
8
330
0
100
AcDbSymbolTable
 70
     4
  0
VPORT
  5
2E
330
8
100
AcDbSymbolTableRecord
100
AcDbViewportTableRecord
  2
*ACTIVE
 70
     0
 10
0.0
 20
0.0
 11
1.0
 21
1.0
 12
210.0
 22
148.5
 13
0.0
 23
0.0
 14
10.0
 24
10.0
 15
10.0
 25
10.0
 16
0.0
 26
0.0
 36
1.0
 17
0.0
 27
0.0
 37
0.0
 40
341.0
 41
1.24
 42
50.0
 43
0.0
 44
0.0
 50
0.0
 51
0.0
 71
     0
 72
   100
 73
     1
 74
     3
 75
     0
 76
     0
 77
     0
 78
     0
  0
ENDTAB
  0
TABLE
  2
LTYPE
  5
5
330
0
100
AcDbSymbolTable
 70
     1
  0
LTYPE
  5
14
330
5
100
AcDbSymbolTableRecord
100
AcDbLinetypeTableRecord
  2
BYBLOCK
 70
     0
  3

 72
    65
 73
     0
 40
0.0
  0
LTYPE
  5
15
330
5
100
AcDbSymbolTableRecord
100
AcDbLinetypeTableRecord
  2
BYLAYER
 70
     0
  3

 72
    65
 73
     0
 40
0.0
  0
LTYPE
  5
16
330
5
100
AcDbSymbolTableRecord
100
AcDbLinetypeTableRecord
  2
CONTINUOUS
 70
     0
  3
Solid line
 72
    65
 73
     0
 40
0.0
  0
ENDTAB
  0
TABLE
  2
LAYER
  5
2
100
AcDbSymbolTable
 70
1
  0
LAYER
  5
50
100
AcDbSymbolTableRecord
100
AcDbLayerTableRecord
  2
0
 70
0
  6
CONTINUOUS
  0
ENDTAB
  0
TABLE
  2
STYLE
  5
3
330
0
100
AcDbSymbolTable
 70
     1
  0
STYLE
  5
11
330
3
100
AcDbSymbolTableRecord
100
AcDbTextStyleTableRecord
  2
STANDARD
 70
     0
 40
0.0
 41
1.0
 50
0.0
 71
     0
 42
2.5
  3
txt
  4

  0
ENDTAB
  0
TABLE
  2
VIEW
  5
6
330
0
100
AcDbSymbolTable
 70
     0
  0
ENDTAB
  0
TABLE
  2
UCS
  5
7
330
0
100
AcDbSymbolTable
 70
     0
  0
ENDTAB
  0
TABLE
  2
APPID
  5
9
330
0
100
AcDbSymbolTable
 70
     2
  0
APPID
  5
12
330
9
100
AcDbSymbolTableRecord
100
AcDbRegAppTableRecord
  2
ACAD
 70
     0
  0
ENDTAB
  0
TABLE
  2
DIMSTYLE
  5
A
330
0
100
AcDbSymbolTable
 70
     1
  0
DIMSTYLE
105
27
330
A
100
AcDbSymbolTableRecord
100
AcDbDimStyleTableRecord
  2
ISO-25
 70
     0
  3

  4

  5

  6

  7

 40
1.0
 41
2.5
 42
0.625
 43
3.75
 44
1.25
 45
0.0
 46
0.0
 47
0.0
 48
0.0
140
2.5
141
2.5
142
0.0
143
0.03937007874016
144
1.0
145
0.0
146
1.0
147
0.625
 71
     0
 72
     0
 73
     0
 74
     0
 75
     0
 76
     0
 77
     1
 78
     8
170
     0
171
     3
172
     1
173
     0
174
     0
175
     0
176
     0
177
     0
178
     0
270
     2
271
     2
272
     2
273
     2
274
     3
340
11
275
     0
280
     0
281
     0
282
     0
283
     0
284
     8
285
     0
286
     0
287
     3
288
     0
  0
ENDTAB
  0
TABLE
  2
BLOCK_RECORD
  5
1
330
0
100
AcDbSymbolTable
 70
     1
  0
BLOCK_RECORD
  5
1F
330
1
100
AcDbSymbolTableRecord
100
AcDbBlockTableRecord
  2
*MODEL_SPACE
  0
BLOCK_RECORD
  5
1B
330
1
100
AcDbSymbolTableRecord
100
AcDbBlockTableRecord
  2
*PAPER_SPACE
  0
ENDTAB
  0
ENDSEC
  0
SECTION
  2
BLOCKS
  0
BLOCK
  5
20
330
1F
100
AcDbEntity
  8
0
100
AcDbBlockBegin
  2
*MODEL_SPACE
 70
     0
 10
0.0
 20
0.0
 30
0.0
  3
*MODEL_SPACE
  1

  0
ENDBLK
  5
21
330
1F
100
AcDbEntity
  8
0
100
AcDbBlockEnd
  0
BLOCK
  5
1C
330
1B
100
AcDbEntity
 67
     1
  8
0
100
AcDbBlockBegin
  2
*PAPER_SPACE
  1

  0
ENDBLK
  5
1D
330
1B
100
AcDbEntity
 67
     1
  8
0
100
AcDbBlockEnd
  0
ENDSEC
  0
SECTION
  2
ENTITIES
  0
SPLINE
  5
100
100
AcDbEntity
  8
0
 62
7
100
AcDbSpline
 70
8
 71
3
 72
8
 73
4
 74
0
 40
0
 40
0
 40
0
 40
0
 40
1
 40
1
 40
1
 40
1
 10
-33.299677
 20
186.815247
 30
0.0
 10
-33.299677
 20
187.367344
 30
0.0
 10
-32.852357
 20
187.815372
 30
0.0
 10
-32.299907
 20
187.815372
 30
0.0
  0
SPLINE
  5
101
100
AcDbEntity
  8
0
 62
7
100
AcDbSpline
 70
8
 71
3
 72
8
 73
4
 74
0
 40
0
 40
0
 40
0
 40
0
 40
1
 40
1
 40
1
 40
1
 10
-32.299907
 20
208.114969
 30
0.0
 10
-32.852357
 20
208.114969
 30
0.0
 10
-33.299677
 20
208.562997
 30
0.0
 10
-33.299677
 20
209.115094
 30
0.0
  0
LWPOLYLINE
  5
102
100
AcDbEntity
  8
0
 62
7
100
AcDbPolyline
 90
4
 70
0
 10
-32.299907
 20
187.815372
 30
0.0
 10
-30.349757
 20
187.815372
 30
0.0
 10
-30.349757
 20
208.114969
 30
0.0
 10
-32.299907
 20
208.114969
 30
0.0
  0
SPLINE
  5
103
100
AcDbEntity
  8
0
 62
7
100
AcDbSpline
 70
8
 71
3
 72
8
 73
4
 74
0
 40
0
 40
0
 40
0
 40
0
 40
1
 40
1
 40
1
 40
1
 10
-30.299663
 20
212.365235
 30
0.0
 10
-26.933816
 20
212.365235
 30
0.0
 10
-24.226605
 20
212.896872
 30
0.0
 10
-22.575608
 20
213.532224
 30
0.0
  0
SPLINE
  5
104
100
AcDbEntity
  8
0
 62
7
100
AcDbSpline
 70
8
 71
3
 72
8
 73
4
 74
0
 40
0
 40
0
 40
0
 40
0
 40
1
 40
1
 40
1
 40
1
 10
-22.575608
 20
213.532224
 30
0.0
 10
-20.959889
 20
214.153819
 30
0.0
 10
-18.434006
 20
214.615252
 30
0.0
 10
-15.299582
 20
214.615252
 30
0.0
  0
SPLINE
  5
105
100
AcDbEntity
  8
0
 62
7
100
AcDbSpline
 70
8
 71
3
 72
8
 73
4
 74
0
 40
0
 40
0
 40
0
 40
0
 40
1
 40
1
 40
1
 40
1
 10
-15.299582
 20
214.615252
 30
0.0
 10
-14.954213
 20
214.615252
 30
0.0
 10
-14.674814
 20
214.895005
 30
0.0
 10
-14.674814
 20
215.240022
 30
0.0
  0
LWPOLYLINE
  5
106
100
AcDbEntity
  8
0
 62
7
100
AcDbPolyline
 90
3
 70
0
 10
-33.299677
 20
209.115094
 30
0.0
 10
-33.299677
 20
212.365235
 30
0.0
 10
-30.299663
 20
212.365235
 30
0.0
  0
SPLINE
  5
107
100
AcDbEntity
  8
0
 62
7
100
AcDbSpline
 70
8
 71
3
 72
8
 73
4
 74
0
 40
0
 40
0
 40
0
 40
0
 40
1
 40
1
 40
1
 40
1
 10
-14.674814
 20
215.240022
 30
0.0
 10
-14.674814
 20
215.585391
 30
0.0
 10
-14.954566
 20
215.864791
 30
0.0
 10
-15.299582
 20
215.864791
 30
0.0
  0
SPLINE
  5
108
100
AcDbEntity
  8
0
 62
7
100
AcDbSpline
 70
8
 71
3
 72
8
 73
4
 74
0
 40
0
 40
0
 40
0
 40
0
 40
1
 40
1
 40
1
 40
1
 10
-15.299582
 20
215.864791
 30
0.0
 10
-18.665428
 20
215.864791
 30
0.0
 10
-21.373344
 20
215.333508
 30
0.0
 10
-23.023988
 20
214.698155
 30
0.0
  0
SPLINE
  5
109
100
AcDbEntity
  8
0
 62
7
100
AcDbSpline
 70
8
 71
3
 72
8
 73
4
 74
0
 40
0
 40
0
 40
0
 40
0
 40
1
 40
1
 40
1
 40
1
 10
-23.023988
 20
214.698155
 30
0.0
 10
-24.639707
 20
214.076561
 30
0.0
 10
-27.165590
 20
213.614774
 30
0.0
 10
-30.299310
 20
213.614774
 30
0.0
  0
LWPOLYLINE
  5
10a
100
AcDbEntity
  8
0
 62
7
100
AcDbPolyline
 90
2
 70
0
 10
-14.674814
 20
215.240022
 30
0.0
 10
-14.674814
 20
215.240022
 30
0.0
  0
SPLINE
  5
10b
100
AcDbEntity
  8
0
 62
7
100
AcDbSpline
 70
8
 71
3
 72
8
 73
4
 74
0
 40
0
 40
0
 40
0
 40
0
 40
1
 40
1
 40
1
 40
1
 10
-33.299324
 20
213.615057
 30
0.0
 10
-34.335079
 20
213.615057
 30
0.0
 10
-35.174688
 20
214.454315
 30
0.0
 10
-35.174688
 20
215.489718
 30
0.0
  0
SPLINE
  5
10c
100
AcDbEntity
  8
0
 62
7
100
AcDbSpline
 70
8
 71
3
 72
8
 73
4
 74
0
 40
0
 40
0
 40
0
 40
0
 40
1
 40
1
 40
1
 40
1
 10
-35.174688
 20
215.489718
 30
0.0
 10
-35.174688
 20
216.525121
 30
0.0
 10
-34.334727
 20
217.364379
 30
0.0
 10
-33.299324
 20
217.364379
 30
0.0
  0
LWPOLYLINE
  5
10d
100
AcDbEntity
  8
0
 62
7
100
AcDbPolyline
 90
2
 70
0
 10
-30.299310
 20
213.614774
 30
0.0
 10
-33.299324
 20
213.615057
 30
0.0
  0
SPLINE
  5
10e
100
AcDbEntity
  8
0
 62
7
100
AcDbSpline
 70
8
 71
3
 72
8
 73
4
 74
0
 40
0
 40
0
 40
0
 40
0
 40
1
 40
1
 40
1
 40
1
 10
-30.299310
 20
217.615204
 30
0.0
 10
-30.299310
 20
218.167301
 30
0.0
 10
-29.851988
 20
218.614976
 30
0.0
 10
-29.299538
 20
218.614976
 30
0.0
  0
LWPOLYLINE
  5
10f
100
AcDbEntity
  8
0
 62
7
100
AcDbPolyline
 90
4
 70
0
 10
-33.299324
 20
217.364379
 30
0.0
 10
-33.299324
 20
216.214323
 30
0.0
 10
-30.299310
 20
216.214323
 30
0.0
 10
-30.299310
 20
217.615204
 30
0.0
  0
SPLINE
  5
110
100
AcDbEntity
  8
0
 62
7
100
AcDbSpline
 70
8
 71
3
 72
8
 73
4
 74
0
 40
0
 40
0
 40
0
 40
0
 40
1
 40
1
 40
1
 40
1
 10
-28.799302
 20
218.614976
 30
0.0
 10
-28.671949
 20
218.614976
 30
0.0
 10
-28.543538
 20
218.565940
 30
0.0
 10
-28.445818
 20
218.468573
 30
0.0
  0
SPLINE
  5
111
100
AcDbEntity
  8
0
 62
7
100
AcDbSpline
 70
8
 71
3
 72
8
 73
4
 74
0
 40
0
 40
0
 40
0
 40
0
 40
1
 40
1
 40
1
 40
1
 10
-28.445818
 20
218.468573
 30
0.0
 10
-28.250732
 20
218.273134
 30
0.0
 10
-27.934644
 20
218.273134
 30
0.0
 10
-27.738853
 20
218.468573
 30
0.0
  0
SPLINE
  5
112
100
AcDbEntity
  8
0
 62
7
100
AcDbSpline
 70
8
 71
3
 72
8
 73
4
 74
0
 40
0
 40
0
 40
0
 40
0
 40
1
 40
1
 40
1
 40
1
 10
-27.738853
 20
218.468573
 30
0.0
 10
-27.543767
 20
218.664012
 30
0.0
 10
-27.226973
 20
218.664012
 30
0.0
 10
-27.031888
 20
218.468291
 30
0.0
  0
SPLINE
  5
113
100
AcDbEntity
  8
0
 62
7
100
AcDbSpline
 70
8
 71
3
 72
8
 73
4
 74
0
 40
0
 40
0
 40
0
 40
0
 40
1
 40
1
 40
1
 40
1
 10
-27.031888
 20
218.468291
 30
0.0
 10
-26.836802
 20
218.273205
 30
0.0
 10
-26.520008
 20
218.273205
 30
0.0
 10
-26.324923
 20
218.468573
 30
0.0
  0
SPLINE
  5
114
100
AcDbEntity
  8
0
 62
7
100
AcDbSpline
 70
8
 71
3
 72
8
 73
4
 74
0
 40
0
 40
0
 40
0
 40
0
 40
1
 40
1
 40
1
 40
1
 10
-26.324923
 20
218.468573
 30
0.0
 10
-26.129837
 20
218.664012
 30
0.0
 10
-25.813043
 20
218.664012
 30
0.0
 10
-25.617957
 20
218.468291
 30
0.0
  0
SPLINE
  5
115
100
AcDbEntity
  8
0
 62
7
100
AcDbSpline
 70
8
 71
3
 72
8
 73
4
 74
0
 40
0
 40
0
 40
0
 40
0
 40
1
 40
1
 40
1
 40
1
 10
-25.617957
 20
218.468291
 30
0.0
 10
-25.422166
 20
218.273205
 30
0.0
 10
-25.106078
 20
218.273205
 30
0.0
 10
-24.910992
 20
218.468573
 30
0.0
  0
SPLINE
  5
116
100
AcDbEntity
  8
0
 62
7
100
AcDbSpline
 70
8
 71
3
 72
8
 73
4
 74
0
 40
0
 40
0
 40
0
 40
0
 40
1
 40
1
 40
1
 40
1
 10
-24.910992
 20
218.468573
 30
0.0
 10
-24.715201
 20
218.664012
 30
0.0
 10
-24.399113
 20
218.664012
 30
0.0
 10
-24.203322
 20
218.468291
 30
0.0
  0
SPLINE
  5
117
100
AcDbEntity
  8
0
 62
7
100
AcDbSpline
 70
8
 71
3
 72
8
 73
4
 74
0
 40
0
 40
0
 40
0
 40
0
 40
1
 40
1
 40
1
 40
1
 10
-24.203322
 20
218.468291
 30
0.0
 10
-24.008236
 20
218.273205
 30
0.0
 10
-23.692148
 20
218.273205
 30
0.0
 10
-23.496356
 20
218.468573
 30
0.0
  0
SPLINE
  5
118
100
AcDbEntity
  8
0
 62
7
100
AcDbSpline
 70
8
 71
3
 72
8
 73
4
 74
0
 40
0
 40
0
 40
0
 40
0
 40
1
 40
1
 40
1
 40
1
 10
-23.496356
 20
218.468573
 30
0.0
 10
-23.399343
 20
218.565940
 30
0.0
 10
-23.270932
 20
218.614976
 30
0.0
 10
-23.142874
 20
218.614976
 30
0.0
  0
LWPOLYLINE
  5
119
100
AcDbEntity
  8
0
 62
7
100
AcDbPolyline
 90
2
 70
0
 10
-29.299538
 20
218.614976
 30
0.0
 10
-28.799302
 20
218.614976
 30
0.0
  0
SPLINE
  5
11a
100
AcDbEntity
  8
0
 62
7
100
AcDbSpline
 70
8
 71
3
 72
8
 73
4
 74
0
 40
0
 40
0
 40
0
 40
0
 40
1
 40
1
 40
1
 40
1
 10
42.743473
 20
218.614666
 30
0.0
 10
42.871528
 20
218.614665
 30
0.0
 10
42.999942
 20
218.565630
 30
0.0
 10
43.096956
 20
218.468263
 30
0.0
  0
SPLINE
  5
11b
100
AcDbEntity
  8
0
 62
7
100
AcDbSpline
 70
8
 71
3
 72
8
 73
4
 74
0
 40
0
 40
0
 40
0
 40
0
 40
1
 40
1
 40
1
 40
1
 10
43.096956
 20
218.468263
 30
0.0
 10
43.292748
 20
218.272824
 30
0.0
 10
43.608831
 20
218.272824
 30
0.0
 10
43.803920
 20
218.467981
 30
0.0
  0
SPLINE
  5
11c
100
AcDbEntity
  8
0
 62
7
100
AcDbSpline
 70
8
 71
3
 72
8
 73
4
 74
0
 40
0
 40
0
 40
0
 40
0
 40
1
 40
1
 40
1
 40
1
 10
43.803920
 20
218.467981
 30
0.0
 10
43.999712
 20
218.663772
 30
0.0
 10
44.315798
 20
218.663772
 30
0.0
 10
44.511592
 20
218.468263
 30
0.0
  0
SPLINE
  5
11d
100
AcDbEntity
  8
0
 62
7
100
AcDbSpline
 70
8
 71
3
 72
8
 73
4
 74
0
 40
0
 40
0
 40
0
 40
0
 40
1
 40
1
 40
1
 40
1
 10
44.511592
 20
218.468263
 30
0.0
 10
44.706673
 20
218.272824
 30
0.0
 10
45.022764
 20
218.272824
 30
0.0
 10
45.218203
 20
218.467981
 30
0.0
  0
SPLINE
  5
11e
100
AcDbEntity
  8
0
 62
7
100
AcDbSpline
 70
8
 71
3
 72
8
 73
4
 74
0
 40
0
 40
0
 40
0
 40
0
 40
1
 40
1
 40
1
 40
1
 10
45.218203
 20
218.467981
 30
0.0
 10
45.413287
 20
218.663772
 30
0.0
 10
45.730084
 20
218.663772
 30
0.0
 10
45.925170
 20
218.468263
 30
0.0
  0
SPLINE
  5
11f
100
AcDbEntity
  8
0
 62
7
100
AcDbSpline
 70
8
 71
3
 72
8
 73
4
 74
0
 40
0
 40
0
 40
0
 40
0
 40
1
 40
1
 40
1
 40
1
 10
45.925170
 20
218.468263
 30
0.0
 10
46.120606
 20
218.272824
 30
0.0
 10
46.437400
 20
218.272824
 30
0.0
 10
46.632484
 20
218.467981
 30
0.0
  0
SPLINE
  5
120
100
AcDbEntity
  8
0
 62
7
100
AcDbSpline
 70
8
 71
3
 72
8
 73
4
 74
0
 40
0
 40
0
 40
0
 40
0
 40
1
 40
1
 40
1
 40
1
 10
46.632484
 20
218.467981
 30
0.0
 10
46.827573
 20
218.663772
 30
0.0
 10
47.144364
 20
218.663772
 30
0.0
 10
47.339448
 20
218.468263
 30
0.0
  0
SPLINE
  5
121
100
AcDbEntity
  8
0
 62
7
100
AcDbSpline
 70
8
 71
3
 72
8
 73
4
 74
0
 40
0
 40
0
 40
0
 40
0
 40
1
 40
1
 40
1
 40
1
 10
47.339448
 20
218.468263
 30
0.0
 10
47.535242
 20
218.272824
 30
0.0
 10
47.851331
 20
218.272824
 30
0.0
 10
48.046417
 20
218.468263
 30
0.0
  0
SPLINE
  5
122
100
AcDbEntity
  8
0
 62
7
100
AcDbSpline
 70
8
 71
3
 72
8
 73
4
 74
0
 40
0
 40
0
 40
0
 40
0
 40
1
 40
1
 40
1
 40
1
 10
48.046417
 20
218.468263
 30
0.0
 10
48.144134
 20
218.565630
 30
0.0
 10
48.272548
 20
218.614666
 30
0.0
 10
48.399900
 20
218.614666
 30
0.0
  0
LWPOLYLINE
  5
123
100
AcDbEntity
  8
0
 62
7
100
AcDbPolyline
 90
3
 70
0
 10
-23.142874
 20
218.614976
 30
0.0
 10
5.285428
 20
218.614976
 30
0.0
 10
42.743473
 20
218.614666
 30
0.0
  0
SPLINE
  5
124
100
AcDbEntity
  8
0
 62
7
100
AcDbSpline
 70
8
 71
3
 72
8
 73
4
 74
0
 40
0
 40
0
 40
0
 40
0
 40
1
 40
1
 40
1
 40
1
 10
48.900136
 20
218.614666
 30
0.0
 10
49.452584
 20
218.614666
 30
0.0
 10
49.899909
 20
218.166991
 30
0.0
 10
49.899909
 20
217.614893
 30
0.0
  0
LWPOLYLINE
  5
125
100
AcDbEntity
  8
0
 62
7
100
AcDbPolyline
 90
2
 70
0
 10
48.399900
 20
218.614666
 30
0.0
 10
48.900136
 20
218.614666
 30
0.0
  0
SPLINE
  5
126
100
AcDbEntity
  8
0
 62
7
100
AcDbSpline
 70
8
 71
3
 72
8
 73
4
 74
0
 40
0
 40
0
 40
0
 40
0
 40
1
 40
1
 40
1
 40
1
 10
53.049853
 20
217.364774
 30
0.0
 10
54.085603
 20
217.364774
 30
0.0
 10
54.924511
 20
216.525516
 30
0.0
 10
54.924511
 20
215.490113
 30
0.0
  0
SPLINE
  5
127
100
AcDbEntity
  8
0
 62
7
100
AcDbSpline
 70
8
 71
3
 72
8
 73
4
 74
0
 40
0
 40
0
 40
0
 40
0
 40
1
 40
1
 40
1
 40
1
 10
54.924511
 20
215.490113
 30
0.0
 10
54.924511
 20
214.454710
 30
0.0
 10
54.085253
 20
213.615452
 30
0.0
 10
53.049853
 20
213.615452
 30
0.0
  0
LWPOLYLINE
  5
128
100
AcDbEntity
  8
0
 62
7
100
AcDbPolyline
 90
4
 70
0
 10
49.899909
 20
217.614893
 30
0.0
 10
49.899909
 20
216.214718
 30
0.0
 10
53.049853
 20
216.214718
 30
0.0
 10
53.049853
 20
217.364774
 30
0.0
  0
SPLINE
  5
129
100
AcDbEntity
  8
0
 62
7
100
AcDbSpline
 70
8
 71
3
 72
8
 73
4
 74
0
 40
0
 40
0
 40
0
 40
0
 40
1
 40
1
 40
1
 40
1
 10
49.899909
 20
213.615170
 30
0.0
 10
46.766189
 20
213.615170
 30
0.0
 10
44.240303
 20
214.077308
 30
0.0
 10
42.624234
 20
214.698550
 30
0.0
  0
SPLINE
  5
12a
100
AcDbEntity
  8
0
 62
7
100
AcDbSpline
 70
8
 71
3
 72
8
 73
4
 74
0
 40
0
 40
0
 40
0
 40
0
 40
1
 40
1
 40
1
 40
1
 10
42.624234
 20
214.698550
 30
0.0
 10
40.973237
 20
215.333903
 30
0.0
 10
38.266026
 20
215.865186
 30
0.0
 10
34.900181
 20
215.865186
 30
0.0
  0
SPLINE
  5
12b
100
AcDbEntity
  8
0
 62
7
100
AcDbSpline
 70
8
 71
3
 72
8
 73
4
 74
0
 40
0
 40
0
 40
0
 40
0
 40
1
 40
1
 40
1
 40
1
 10
34.900181
 20
215.865186
 30
0.0
 10
34.554812
 20
215.865186
 30
0.0
 10
34.275412
 20
215.585433
 30
0.0
 10
34.275412
 20
215.240417
 30
0.0
  0
LWPOLYLINE
  5
12c
100
AcDbEntity
  8
0
 62
7
100
AcDbPolyline
 90
2
 70
0
 10
53.049853
 20
213.615452
 30
0.0
 10
49.899909
 20
213.615170
 30
0.0
  0
SPLINE
  5
12d
100
AcDbEntity
  8
0
 62
7
100
AcDbSpline
 70
8
 71
3
 72
8
 73
4
 74
0
 40
0
 40
0
 40
0
 40
0
 40
1
 40
1
 40
1
 40
1
 10
34.275412
 20
215.240417
 30
0.0
 10
34.275412
 20
214.895047
 30
0.0
 10
34.555165
 20
214.615647
 30
0.0
 10
34.900181
 20
214.615647
 30
0.0
  0
SPLINE
  5
12e
100
AcDbEntity
  8
0
 62
7
100
AcDbSpline
 70
8
 71
3
 72
8
 73
4
 74
0
 40
0
 40
0
 40
0
 40
0
 40
1
 40
1
 40
1
 40
1
 10
34.900181
 20
214.615647
 30
0.0
 10
38.033898
 20
214.615647
 30
0.0
 10
40.559784
 20
214.153861
 30
0.0
 10
42.175501
 20
213.532620
 30
0.0
  0
SPLINE
  5
12f
100
AcDbEntity
  8
0
 62
7
100
AcDbSpline
 70
8
 71
3
 72
8
 73
4
 74
0
 40
0
 40
0
 40
0
 40
0
 40
1
 40
1
 40
1
 40
1
 10
42.175501
 20
213.532620
 30
0.0
 10
43.826498
 20
212.897267
 30
0.0
 10
46.533709
 20
212.365299
 30
0.0
 10
49.899556
 20
212.365630
 30
0.0
  0
LWPOLYLINE
  5
130
100
AcDbEntity
  8
0
 62
7
100
AcDbPolyline
 90
2
 70
0
 10
34.275412
 20
215.240417
 30
0.0
 10
34.275412
 20
215.240417
 30
0.0
  0
SPLINE
  5
131
100
AcDbEntity
  8
0
 62
7
100
AcDbSpline
 70
8
 71
3
 72
8
 73
4
 74
0
 40
0
 40
0
 40
0
 40
0
 40
1
 40
1
 40
1
 40
1
 10
53.049497
 20
209.115489
 30
0.0
 10
53.049497
 20
208.563392
 30
0.0
 10
52.602178
 20
208.115364
 30
0.0
 10
52.049728
 20
208.115364
 30
0.0
  0
LWPOLYLINE
  5
132
100
AcDbEntity
  8
0
 62
7
100
AcDbPolyline
 90
3
 70
0
 10
49.899556
 20
212.365630
 30
0.0
 10
53.049497
 20
212.365630
 30
0.0
 10
53.049497
 20
209.115489
 30
0.0
  0
SPLINE
  5
133
100
AcDbEntity
  8
0
 62
7
100
AcDbSpline
 70
8
 71
3
 72
8
 73
4
 74
0
 40
0
 40
0
 40
0
 40
0
 40
1
 40
1
 40
1
 40
1
 10
52.049728
 20
187.815767
 30
0.0
 10
52.602178
 20
187.815767
 30
0.0
 10
53.049497
 20
187.367739
 30
0.0
 10
53.049497
 20
186.815642
 30
0.0
  0
LWPOLYLINE
  5
134
100
AcDbEntity
  8
0
 62
7
100
AcDbPolyline
 90
4
 70
0
 10
52.049728
 20
208.115364
 30
0.0
 10
49.949295
 20
208.115364
 30
0.0
 10
49.949295
 20
187.815767
 30
0.0
 10
52.049728
 20
187.815767
 30
0.0
  0
SPLINE
  5
135
100
AcDbEntity
  8
0
 62
7
100
AcDbSpline
 70
8
 71
3
 72
8
 73
4
 74
0
 40
0
 40
0
 40
0
 40
0
 40
1
 40
1
 40
1
 40
1
 10
53.049497
 20
182.315610
 30
0.0
 10
54.085250
 20
182.315610
 30
0.0
 10
54.924156
 20
181.475998
 30
0.0
 10
54.924156
 20
180.440595
 30
0.0
  0
SPLINE
  5
136
100
AcDbEntity
  8
0
 62
7
100
AcDbSpline
 70
8
 71
3
 72
8
 73
4
 74
0
 40
0
 40
0
 40
0
 40
0
 40
1
 40
1
 40
1
 40
1
 10
54.924156
 20
180.440595
 30
0.0
 10
54.924156
 20
179.405193
 30
0.0
 10
54.084897
 20
178.565934
 30
0.0
 10
53.049497
 20
178.565934
 30
0.0
  0
LWPOLYLINE
  5
137
100
AcDbEntity
  8
0
 62
7
100
AcDbPolyline
 90
2
 70
0
 10
53.049497
 20
186.815642
 30
0.0
 10
53.049497
 20
182.315610
 30
0.0
  0
SPLINE
  5
138
100
AcDbEntity
  8
0
 62
7
100
AcDbSpline
 70
8
 71
3
 72
8
 73
4
 74
0
 40
0
 40
0
 40
0
 40
0
 40
1
 40
1
 40
1
 40
1
 10
49.899200
 20
178.315815
 30
0.0
 10
49.899200
 20
177.764070
 30
0.0
 10
49.451881
 20
177.316040
 30
0.0
 10
48.899428
 20
177.316043
 30
0.0
  0
LWPOLYLINE
  5
139
100
AcDbEntity
  8
0
 62
7
100
AcDbPolyline
 90
4
 70
0
 10
53.049497
 20
178.565934
 30
0.0
 10
53.049497
 20
179.715990
 30
0.0
 10
49.899200
 20
179.715990
 30
0.0
 10
49.899200
 20
178.315815
 30
0.0
  0
SPLINE
  5
13a
100
AcDbEntity
  8
0
 62
7
100
AcDbSpline
 70
8
 71
3
 72
8
 73
4
 74
0
 40
0
 40
0
 40
0
 40
0
 40
1
 40
1
 40
1
 40
1
 10
-29.299891
 20
177.316325
 30
0.0
 10
-29.852341
 20
177.316328
 30
0.0
 10
-30.299663
 20
177.764353
 30
0.0
 10
-30.299663
 20
178.316097
 30
0.0
  0
LWPOLYLINE
  5
13b
100
AcDbEntity
  8
0
 62
7
100
AcDbPolyline
 90
2
 70
0
 10
48.899428
 20
177.316043
 30
0.0
 10
-29.299891
 20
177.316325
 30
0.0
  0
SPLINE
  5
13c
100
AcDbEntity
  8
0
 62
7
100
AcDbSpline
 70
8
 71
3
 72
8
 73
4
 74
0
 40
0
 40
0
 40
0
 40
0
 40
1
 40
1
 40
1
 40
1
 10
-33.299677
 20
178.566216
 30
0.0
 10
-34.335432
 20
178.566216
 30
0.0
 10
-35.175040
 20
179.405475
 30
0.0
 10
-35.175040
 20
180.440878
 30
0.0
  0
SPLINE
  5
13d
100
AcDbEntity
  8
0
 62
7
100
AcDbSpline
 70
8
 71
3
 72
8
 73
4
 74
0
 40
0
 40
0
 40
0
 40
0
 40
1
 40
1
 40
1
 40
1
 10
-35.175040
 20
180.440878
 30
0.0
 10
-35.175040
 20
181.476280
 30
0.0
 10
-34.335079
 20
182.315892
 30
0.0
 10
-33.299677
 20
182.315892
 30
0.0
  0
LWPOLYLINE
  5
13e
100
AcDbEntity
  8
0
 62
7
100
AcDbPolyline
 90
4
 70
0
 10
-30.299663
 20
178.316097
 30
0.0
 10
-30.299663
 20
179.716272
 30
0.0
 10
-33.299677
 20
179.716272
 30
0.0
 10
-33.299677
 20
178.566216
 30
0.0
  0
SPLINE
  5
13f
100
AcDbEntity
  8
0
 62
7
100
AcDbSpline
 70
8
 71
3
 72
8
 73
4
 74
0
 40
0
 40
0
 40
0
 40
0
 40
1
 40
1
 40
1
 40
1
 10
211.599642
 20
151.795172
 30
0.0
 10
211.599642
 20
152.347270
 30
0.0
 10
211.151611
 20
152.794945
 30
0.0
 10
210.599867
 20
152.794945
 30
0.0
  0
LWPOLYLINE
  5
140
100
AcDbEntity
  8
0
 62
7
100
AcDbPolyline
 90
2
 70
0
 10
-33.299677
 20
182.315892
 30
0.0
 10
-33.299677
 20
186.815247
 30
0.0
  0
SPLINE
  5
141
100
AcDbEntity
  8
0
 62
7
100
AcDbSpline
 70
8
 71
3
 72
8
 73
4
 74
0
 40
0
 40
0
 40
0
 40
0
 40
1
 40
1
 40
1
 40
1
 10
196.599881
 20
152.794945
 30
0.0
 10
196.047431
 20
152.794945
 30
0.0
 10
195.600108
 20
152.347270
 30
0.0
 10
195.600108
 20
151.795172
 30
0.0
  0
LWPOLYLINE
  5
142
100
AcDbEntity
  8
0
 62
7
100
AcDbPolyline
 90
2
 70
0
 10
210.599867
 20
152.794945
 30
0.0
 10
196.599881
 20
152.794945
 30
0.0
  0
SPLINE
  5
143
100
AcDbEntity
  8
0
 62
7
100
AcDbSpline
 70
8
 71
3
 72
8
 73
4
 74
0
 40
0
 40
0
 40
0
 40
0
 40
1
 40
1
 40
1
 40
1
 10
195.600108
 20
148.044792
 30
0.0
 10
195.600108
 20
147.779503
 30
0.0
 10
195.704883
 20
147.525150
 30
0.0
 10
195.892914
 20
147.337825
 30
0.0
  0
LWPOLYLINE
  5
144
100
AcDbEntity
  8
0
 62
7
100
AcDbPolyline
 90
2
 70
0
 10
195.600108
 20
151.795172
 30
0.0
 10
195.600108
 20
148.044792
 30
0.0
  0
SPLINE
  5
145
100
AcDbEntity
  8
0
 62
7
100
AcDbSpline
 70
8
 71
3
 72
8
 73
4
 74
0
 40
0
 40
0
 40
0
 40
0
 40
1
 40
1
 40
1
 40
1
 10
196.892686
 20
146.338053
 30
0.0
 10
197.080011
 20
146.150375
 30
0.0
 10
197.334364
 20
146.045247
 30
0.0
 10
197.599653
 20
146.045247
 30
0.0
  0
LWPOLYLINE
  5
146
100
AcDbEntity
  8
0
 62
7
100
AcDbPolyline
 90
2
 70
0
 10
195.892914
 20
147.337825
 30
0.0
 10
196.892686
 20
146.338053
 30
0.0
  0
SPLINE
  5
147
100
AcDbEntity
  8
0
 62
7
100
AcDbSpline
 70
8
 71
3
 72
8
 73
4
 74
0
 40
0
 40
0
 40
0
 40
0
 40
1
 40
1
 40
1
 40
1
 10
209.600094
 20
146.045247
 30
0.0
 10
209.865386
 20
146.045247
 30
0.0
 10
210.119739
 20
146.150375
 30
0.0
 10
210.307061
 20
146.338053
 30
0.0
  0
LWPOLYLINE
  5
148
100
AcDbEntity
  8
0
 62
7
100
AcDbPolyline
 90
2
 70
0
 10
197.599653
 20
146.045247
 30
0.0
 10
209.600094
 20
146.045247
 30
0.0
  0
SPLINE
  5
149
100
AcDbEntity
  8
0
 62
7
100
AcDbSpline
 70
8
 71
3
 72
8
 73
4
 74
0
 40
0
 40
0
 40
0
 40
0
 40
1
 40
1
 40
1
 40
1
 10
211.306833
 20
147.337825
 30
0.0
 10
211.494158
 20
147.525150
 30
0.0
 10
211.599642
 20
147.779503
 30
0.0
 10
211.599642
 20
148.044792
 30
0.0
  0
LWPOLYLINE
  5
14a
100
AcDbEntity
  8
0
 62
7
100
AcDbPolyline
 90
2
 70
0
 10
210.307061
 20
146.338053
 30
0.0
 10
211.306833
 20
147.337825
 30
0.0
  0
SPLINE
  5
14b
100
AcDbEntity
  8
0
 62
7
100
AcDbSpline
 70
8
 71
3
 72
8
 73
4
 74
0
 40
0
 40
0
 40
0
 40
0
 40
1
 40
1
 40
1
 40
1
 10
102.125024
 20
43.514439
 30
0.0
 10
102.125024
 20
42.962695
 30
0.0
 10
101.676990
 20
42.515372
 30
0.0
 10
101.125243
 20
42.515372
 30
0.0
  0
LWPOLYLINE
  5
14c
100
AcDbEntity
  8
0
 62
7
100
AcDbPolyline
 90
3
 70
0
 10
211.599642
 20
148.044792
 30
0.0
 10
211.599642
 20
151.795172
 30
0.0
 10
211.599642
 20
151.795172
 30
0.0
  0
SPLINE
  5
14d
100
AcDbEntity
  8
0
 62
7
100
AcDbSpline
 70
8
 71
3
 72
8
 73
4
 74
0
 40
0
 40
0
 40
0
 40
0
 40
1
 40
1
 40
1
 40
1
 10
82.124852
 20
40.515122
 30
0.0
 10
82.124852
 20
39.963378
 30
0.0
 10
81.676819
 20
39.515350
 30
0.0
 10
81.125071
 20
39.515350
 30
0.0
  0
LWPOLYLINE
  5
14e
100
AcDbEntity
  8
0
 62
7
100
AcDbPolyline
 90
3
 70
0
 10
101.125243
 20
42.515372
 30
0.0
 10
82.124852
 20
42.515372
 30
0.0
 10
82.124852
 20
40.515122
 30
0.0
  0
SPLINE
  5
14f
100
AcDbEntity
  8
0
 62
7
100
AcDbSpline
 70
8
 71
3
 72
8
 73
4
 74
0
 40
0
 40
0
 40
0
 40
0
 40
1
 40
1
 40
1
 40
1
 10
73.125028
 20
39.515350
 30
0.0
 10
72.572928
 20
39.515350
 30
0.0
 10
72.537249
 20
40.148538
 30
0.0
 10
72.124897
 20
40.515122
 30
0.0
  0
LWPOLYLINE
  5
150
100
AcDbEntity
  8
0
 62
7
100
AcDbPolyline
 90
2
 70
0
 10
81.125071
 20
39.515350
 30
0.0
 10
73.125028
 20
39.515350
 30
0.0
  0
SPLINE
  5
151
100
AcDbEntity
  8
0
 62
7
100
AcDbSpline
 70
8
 71
3
 72
8
 73
4
 74
0
 40
0
 40
0
 40
0
 40
0
 40
1
 40
1
 40
1
 40
1
 10
-2.875150
 20
40.515173
 30
0.0
 10
-2.875150
 20
39.963429
 30
0.0
 10
-3.323181
 20
39.515404
 30
0.0
 10
-3.874930
 20
39.515401
 30
0.0
  0
LWPOLYLINE
  5
152
100
AcDbEntity
  8
0
 62
7
100
AcDbPolyline
 90
4
 70
0
 10
72.124897
 20
40.515122
 30
0.0
 10
72.124897
 20
42.515372
 30
0.0
 10
-2.875150
 20
42.515423
 30
0.0
 10
-2.875150
 20
40.515173
 30
0.0
  0
SPLINE
  5
153
100
AcDbEntity
  8
0
 62
7
100
AcDbSpline
 70
8
 71
3
 72
8
 73
4
 74
0
 40
0
 40
0
 40
0
 40
0
 40
1
 40
1
 40
1
 40
1
 10
-12.175151
 20
39.515350
 30
0.0
 10
-12.726899
 20
39.515347
 30
0.0
 10
-13.202479
 20
39.964066
 30
0.0
 10
-13.174930
 20
40.515122
 30
0.0
  0
LWPOLYLINE
  5
154
100
AcDbEntity
  8
0
 62
7
100
AcDbPolyline
 90
2
 70
0
 10
-3.874930
 20
39.515401
 30
0.0
 10
-12.175151
 20
39.515350
 30
0.0
  0
SPLINE
  5
155
100
AcDbEntity
  8
0
 62
7
100
AcDbSpline
 70
8
 71
3
 72
8
 73
4
 74
0
 40
0
 40
0
 40
0
 40
0
 40
1
 40
1
 40
1
 40
1
 10
-32.174553
 20
42.515372
 30
0.0
 10
-32.727008
 20
42.515372
 30
0.0
 10
-33.175039
 20
42.962695
 30
0.0
 10
-33.175039
 20
43.514439
 30
0.0
  0
LWPOLYLINE
  5
156
100
AcDbEntity
  8
0
 62
7
100
AcDbPolyline
 90
3
 70
0
 10
-13.174930
 20
40.515122
 30
0.0
 10
-13.174930
 20
42.515372
 30
0.0
 10
-32.174553
 20
42.515372
 30
0.0
  0
SPLINE
  5
157
100
AcDbEntity
  8
0
 62
7
100
AcDbSpline
 70
8
 71
3
 72
8
 73
4
 74
0
 40
0
 40
0
 40
0
 40
0
 40
1
 40
1
 40
1
 40
1
 10
-33.175039
 20
121.815456
 30
0.0
 10
-33.175039
 20
122.367201
 30
0.0
 10
-32.727008
 20
122.815229
 30
0.0
 10
-32.174553
 20
122.815229
 30
0.0
  0
LWPOLYLINE
  5
158
100
AcDbEntity
  8
0
 62
7
100
AcDbPolyline
 90
2
 70
0
 10
-33.175039
 20
43.514439
 30
0.0
 10
-33.175039
 20
121.815456
 30
0.0
  0
SPLINE
  5
159
100
AcDbEntity
  8
0
 62
7
100
AcDbSpline
 70
8
 71
3
 72
8
 73
4
 74
0
 40
0
 40
0
 40
0
 40
0
 40
1
 40
1
 40
1
 40
1
 10
-13.174930
 20
124.815479
 30
0.0
 10
-13.174930
 20
125.367223
 30
0.0
 10
-12.726899
 20
125.815248
 30
0.0
 10
-12.175151
 20
125.815251
 30
0.0
  0
LWPOLYLINE
  5
15a
100
AcDbEntity
  8
0
 62
7
100
AcDbPolyline
 90
3
 70
0
 10
-32.174553
 20
122.815229
 30
0.0
 10
-13.174930
 20
122.815229
 30
0.0
 10
-13.174930
 20
124.815479
 30
0.0
  0
SPLINE
  5
15b
100
AcDbEntity
  8
0
 62
7
100
AcDbSpline
 70
8
 71
3
 72
8
 73
4
 74
0
 40
0
 40
0
 40
0
 40
0
 40
1
 40
1
 40
1
 40
1
 10
-3.874930
 20
125.815302
 30
0.0
 10
-3.323181
 20
125.815304
 30
0.0
 10
-2.875150
 20
125.367274
 30
0.0
 10
-2.875150
 20
124.815529
 30
0.0
  0
LWPOLYLINE
  5
15c
100
AcDbEntity
  8
0
 62
7
100
AcDbPolyline
 90
2
 70
0
 10
-12.175151
 20
125.815251
 30
0.0
 10
-3.874930
 20
125.815302
 30
0.0
  0
SPLINE
  5
15d
100
AcDbEntity
  8
0
 62
7
100
AcDbSpline
 70
8
 71
3
 72
8
 73
4
 74
0
 40
0
 40
0
 40
0
 40
0
 40
1
 40
1
 40
1
 40
1
 10
72.124897
 20
124.815479
 30
0.0
 10
72.124897
 20
125.367223
 30
0.0
 10
72.572928
 20
125.815251
 30
0.0
 10
73.125028
 20
125.815251
 30
0.0
  0
LWPOLYLINE
  5
15e
100
AcDbEntity
  8
0
 62
7
100
AcDbPolyline
 90
4
 70
0
 10
-2.875150
 20
124.815529
 30
0.0
 10
-2.875150
 20
122.815279
 30
0.0
 10
72.124897
 20
122.815229
 30
0.0
 10
72.124897
 20
124.815479
 30
0.0
  0
SPLINE
  5
15f
100
AcDbEntity
  8
0
 62
7
100
AcDbSpline
 70
8
 71
3
 72
8
 73
4
 74
0
 40
0
 40
0
 40
0
 40
0
 40
1
 40
1
 40
1
 40
1
 10
81.125071
 20
125.815251
 30
0.0
 10
81.676819
 20
125.815251
 30
0.0
 10
82.124852
 20
125.367223
 30
0.0
 10
82.124852
 20
124.815479
 30
0.0
  0
LWPOLYLINE
  5
160
100
AcDbEntity
  8
0
 62
7
100
AcDbPolyline
 90
2
 70
0
 10
73.125028
 20
125.815251
 30
0.0
 10
81.125071
 20
125.815251
 30
0.0
  0
SPLINE
  5
161
100
AcDbEntity
  8
0
 62
7
100
AcDbSpline
 70
8
 71
3
 72
8
 73
4
 74
0
 40
0
 40
0
 40
0
 40
0
 40
1
 40
1
 40
1
 40
1
 10
101.125243
 20
122.815229
 30
0.0
 10
101.676990
 20
122.815229
 30
0.0
 10
102.125024
 20
122.367201
 30
0.0
 10
102.125024
 20
121.815456
 30
0.0
  0
LWPOLYLINE
  5
162
100
AcDbEntity
  8
0
 62
7
100
AcDbPolyline
 90
3
 70
0
 10
82.124852
 20
124.815479
 30
0.0
 10
82.124852
 20
122.815229
 30
0.0
 10
101.125243
 20
122.815229
 30
0.0
  0
LWPOLYLINE
  5
163
100
AcDbEntity
  8
0
 62
7
100
AcDbPolyline
 90
2
 70
0
 10
102.125024
 20
121.815456
 30
0.0
 10
102.125024
 20
43.514439
 30
0.0
  0
LWPOLYLINE
  5
164
100
AcDbEntity
  8
0
 62
7
100
AcDbPolyline
 90
5
 70
0
 10
-36.175041
 20
171.115649
 30
0.0
 10
-33.175042
 20
171.115649
 30
0.0
 10
-33.175042
 20
163.115354
 30
0.0
 10
-36.175041
 20
163.115354
 30
0.0
 10
-36.175041
 20
171.115649
 30
0.0
  0
LWPOLYLINE
  5
165
100
AcDbEntity
  8
0
 62
7
100
AcDbPolyline
 90
5
 70
0
 10
-36.175041
 20
142.515503
 30
0.0
 10
-33.175042
 20
142.515503
 30
0.0
 10
-33.175042
 20
134.515208
 30
0.0
 10
-36.175041
 20
134.515208
 30
0.0
 10
-36.175041
 20
142.515503
 30
0.0
  0
LWPOLYLINE
  5
166
100
AcDbEntity
  8
0
 62
7
100
AcDbPolyline
 90
5
 70
0
 10
102.124962
 20
171.115649
 30
0.0
 10
105.124961
 20
171.115649
 30
0.0
 10
105.124961
 20
163.115354
 30
0.0
 10
102.124962
 20
163.115354
 30
0.0
 10
102.124962
 20
171.115649
 30
0.0
  0
SPLINE
  5
167
100
AcDbEntity
  8
0
 62
7
100
AcDbSpline
 70
8
 71
3
 72
8
 73
4
 74
0
 40
0
 40
0
 40
0
 40
0
 40
1
 40
1
 40
1
 40
1
 10
-38.175040
 20
170.615252
 30
0.0
 10
-38.175040
 20
172.272249
 30
0.0
 10
-36.831315
 20
173.615271
 30
0.0
 10
-35.175035
 20
173.615274
 30
0.0
  0
LWPOLYLINE
  5
168
100
AcDbEntity
  8
0
 62
7
100
AcDbPolyline
 90
5
 70
0
 10
102.124962
 20
142.515503
 30
0.0
 10
105.124961
 20
142.515579
 30
0.0
 10
105.124961
 20
134.515284
 30
0.0
 10
102.124962
 20
134.515208
 30
0.0
 10
102.124962
 20
142.515503
 30
0.0
  0
SPLINE
  5
169
100
AcDbEntity
  8
0
 62
7
100
AcDbSpline
 70
8
 71
3
 72
8
 73
4
 74
0
 40
0
 40
0
 40
0
 40
0
 40
1
 40
1
 40
1
 40
1
 10
104.124943
 20
173.615454
 30
0.0
 10
105.781224
 20
173.615457
 30
0.0
 10
107.124946
 20
172.272429
 30
0.0
 10
107.124946
 20
170.615432
 30
0.0
  0
LWPOLYLINE
  5
16a
100
AcDbEntity
  8
0
 62
7
100
AcDbPolyline
 90
2
 70
0
 10
-35.175035
 20
173.615274
 30
0.0
 10
104.124943
 20
173.615454
 30
0.0
  0
SPLINE
  5
16b
100
AcDbEntity
  8
0
 62
7
100
AcDbSpline
 70
8
 71
3
 72
8
 73
4
 74
0
 40
0
 40
0
 40
0
 40
0
 40
1
 40
1
 40
1
 40
1
 10
107.124946
 20
134.515454
 30
0.0
 10
107.124946
 20
131.753909
 30
0.0
 10
104.886235
 20
129.515534
 30
0.0
 10
102.124710
 20
129.515534
 30
0.0
  0
SPLINE
  5
16c
100
AcDbEntity
  8
0
 62
7
100
AcDbSpline
 70
8
 71
3
 72
8
 73
4
 74
0
 40
0
 40
0
 40
0
 40
0
 40
1
 40
1
 40
1
 40
1
 10
102.124710
 20
129.515534
 30
0.0
 10
100.275108
 20
129.515534
 30
0.0
 10
98.663983
 20
130.522362
 30
0.0
 10
97.798977
 20
132.015317
 30
0.0
  0
LWPOLYLINE
  5
16d
100
AcDbEntity
  8
0
 62
7
100
AcDbPolyline
 90
2
 70
0
 10
107.124946
 20
170.615432
 30
0.0
 10
107.124946
 20
134.515454
 30
0.0
  0
SPLINE
  5
16e
100
AcDbEntity
  8
0
 62
7
100
AcDbSpline
 70
8
 71
3
 72
8
 73
4
 74
0
 40
0
 40
0
 40
0
 40
0
 40
1
 40
1
 40
1
 40
1
 10
-28.849069
 20
132.015137
 30
0.0
 10
-29.713722
 20
130.522181
 30
0.0
 10
-31.324844
 20
129.515354
 30
0.0
 10
-33.174802
 20
129.515354
 30
0.0
  0
SPLINE
  5
16f
100
AcDbEntity
  8
0
 62
7
100
AcDbSpline
 70
8
 71
3
 72
8
 73
4
 74
0
 40
0
 40
0
 40
0
 40
0
 40
1
 40
1
 40
1
 40
1
 10
-33.174802
 20
129.515354
 30
0.0
 10
-35.936326
 20
129.515354
 30
0.0
 10
-38.175040
 20
131.753729
 30
0.0
 10
-38.175040
 20
134.515273
 30
0.0
  0
LWPOLYLINE
  5
170
100
AcDbEntity
  8
0
 62
7
100
AcDbPolyline
 90
2
 70
0
 10
97.798977
 20
132.015317
 30
0.0
 10
-28.849069
 20
132.015137
 30
0.0
  0
SPLINE
  5
171
100
AcDbEntity
  8
0
 62
7
100
AcDbSpline
 70
8
 71
3
 72
8
 73
4
 74
0
 40
0
 40
0
 40
0
 40
0
 40
1
 40
1
 40
1
 40
1
 10
-17.690790
 20
144.740147
 30
0.0
 10
-18.795337
 20
144.740147
 30
0.0
 10
-19.691040
 20
145.635850
 30
0.0
 10
-19.691040
 20
146.740397
 30
0.0
  0
LWPOLYLINE
  5
172
100
AcDbEntity
  8
0
 62
7
100
AcDbPolyline
 90
2
 70
0
 10
-38.175040
 20
134.515273
 30
0.0
 10
-38.175040
 20
170.615252
 30
0.0
  0
SPLINE
  5
173
100
AcDbEntity
  8
0
 62
7
100
AcDbSpline
 70
8
 71
3
 72
8
 73
4
 74
0
 40
0
 40
0
 40
0
 40
0
 40
1
 40
1
 40
1
 40
1
 10
-19.691040
 20
151.739964
 30
0.0
 10
-19.691040
 20
152.844511
 30
0.0
 10
-18.795337
 20
153.740214
 30
0.0
 10
-17.690790
 20
153.740214
 30
0.0
  0
LWPOLYLINE
  5
174
100
AcDbEntity
  8
0
 62
7
100
AcDbPolyline
 90
2
 70
0
 10
-19.691040
 20
146.740397
 30
0.0
 10
-19.691040
 20
151.739964
 30
0.0
  0
SPLINE
  5
175
100
AcDbEntity
  8
0
 62
7
100
AcDbSpline
 70
8
 71
3
 72
8
 73
4
 74
0
 40
0
 40
0
 40
0
 40
0
 40
1
 40
1
 40
1
 40
1
 10
-9.690495
 20
153.740214
 30
0.0
 10
-8.585948
 20
153.740214
 30
0.0
 10
-7.690951
 20
152.844511
 30
0.0
 10
-7.690951
 20
151.739964
 30
0.0
  0
LWPOLYLINE
  5
176
100
AcDbEntity
  8
0
 62
7
100
AcDbPolyline
 90
2
 70
0
 10
-17.690790
 20
153.740214
 30
0.0
 10
-9.690495
 20
153.740214
 30
0.0
  0
SPLINE
  5
177
100
AcDbEntity
  8
0
 62
7
100
AcDbSpline
 70
8
 71
3
 72
8
 73
4
 74
0
 40
0
 40
0
 40
0
 40
0
 40
1
 40
1
 40
1
 40
1
 10
-7.690951
 20
146.740397
 30
0.0
 10
-7.690951
 20
145.635850
 30
0.0
 10
-8.585948
 20
144.740147
 30
0.0
 10
-9.690495
 20
144.740147
 30
0.0
  0
LWPOLYLINE
  5
178
100
AcDbEntity
  8
0
 62
7
100
AcDbPolyline
 90
2
 70
0
 10
-7.690951
 20
151.739964
 30
0.0
 10
-7.690951
 20
146.740397
 30
0.0
  0
SPLINE
  5
179
100
AcDbEntity
  8
0
 62
7
100
AcDbSpline
 70
8
 71
3
 72
8
 73
4
 74
0
 40
0
 40
0
 40
0
 40
0
 40
1
 40
1
 40
1
 40
1
 10
250.125024
 20
43.514439
 30
0.0
 10
250.125024
 20
42.962695
 30
0.0
 10
249.676991
 20
42.515372
 30
0.0
 10
249.125243
 20
42.515372
 30
0.0
  0
LWPOLYLINE
  5
17a
100
AcDbEntity
  8
0
 62
7
100
AcDbPolyline
 90
3
 70
0
 10
-9.690495
 20
144.740147
 30
0.0
 10
-17.690790
 20
144.740147
 30
0.0
 10
-17.690790
 20
144.740147
 30
0.0
  0
SPLINE
  5
17b
100
AcDbEntity
  8
0
 62
7
100
AcDbSpline
 70
8
 71
3
 72
8
 73
4
 74
0
 40
0
 40
0
 40
0
 40
0
 40
1
 40
1
 40
1
 40
1
 10
230.124852
 20
40.515122
 30
0.0
 10
230.124852
 20
39.963378
 30
0.0
 10
229.676819
 20
39.515350
 30
0.0
 10
229.125072
 20
39.515350
 30
0.0
  0
LWPOLYLINE
  5
17c
100
AcDbEntity
  8
0
 62
7
100
AcDbPolyline
 90
3
 70
0
 10
249.125243
 20
42.515372
 30
0.0
 10
230.124852
 20
42.515372
 30
0.0
 10
230.124852
 20
40.515122
 30
0.0
  0
SPLINE
  5
17d
100
AcDbEntity
  8
0
 62
7
100
AcDbSpline
 70
8
 71
3
 72
8
 73
4
 74
0
 40
0
 40
0
 40
0
 40
0
 40
1
 40
1
 40
1
 40
1
 10
221.125028
 20
39.515350
 30
0.0
 10
220.572928
 20
39.515350
 30
0.0
 10
220.537250
 20
40.148538
 30
0.0
 10
220.124898
 20
40.515122
 30
0.0
  0
LWPOLYLINE
  5
17e
100
AcDbEntity
  8
0
 62
7
100
AcDbPolyline
 90
2
 70
0
 10
229.125072
 20
39.515350
 30
0.0
 10
221.125028
 20
39.515350
 30
0.0
  0
SPLINE
  5
17f
100
AcDbEntity
  8
0
 62
7
100
AcDbSpline
 70
8
 71
3
 72
8
 73
4
 74
0
 40
0
 40
0
 40
0
 40
0
 40
1
 40
1
 40
1
 40
1
 10
145.124850
 20
40.515173
 30
0.0
 10
145.124850
 20
39.963429
 30
0.0
 10
144.676820
 20
39.515404
 30
0.0
 10
144.125072
 20
39.515401
 30
0.0
  0
LWPOLYLINE
  5
180
100
AcDbEntity
  8
0
 62
7
100
AcDbPolyline
 90
4
 70
0
 10
220.124898
 20
40.515122
 30
0.0
 10
220.124898
 20
42.515372
 30
0.0
 10
145.124850
 20
42.515423
 30
0.0
 10
145.124850
 20
40.515173
 30
0.0
  0
SPLINE
  5
181
100
AcDbEntity
  8
0
 62
7
100
AcDbSpline
 70
8
 71
3
 72
8
 73
4
 74
0
 40
0
 40
0
 40
0
 40
0
 40
1
 40
1
 40
1
 40
1
 10
135.824849
 20
39.515350
 30
0.0
 10
135.273102
 20
39.515347
 30
0.0
 10
134.797521
 20
39.964066
 30
0.0
 10
134.825071
 20
40.515122
 30
0.0
  0
LWPOLYLINE
  5
182
100
AcDbEntity
  8
0
 62
7
100
AcDbPolyline
 90
2
 70
0
 10
144.125072
 20
39.515401
 30
0.0
 10
135.824849
 20
39.515350
 30
0.0
  0
SPLINE
  5
183
100
AcDbEntity
  8
0
 62
7
100
AcDbSpline
 70
8
 71
3
 72
8
 73
4
 74
0
 40
0
 40
0
 40
0
 40
0
 40
1
 40
1
 40
1
 40
1
 10
115.825448
 20
42.515372
 30
0.0
 10
115.272992
 20
42.515372
 30
0.0
 10
114.824962
 20
42.962695
 30
0.0
 10
114.824962
 20
43.514439
 30
0.0
  0
LWPOLYLINE
  5
184
100
AcDbEntity
  8
0
 62
7
100
AcDbPolyline
 90
3
 70
0
 10
134.825071
 20
40.515122
 30
0.0
 10
134.825071
 20
42.515372
 30
0.0
 10
115.825448
 20
42.515372
 30
0.0
  0
SPLINE
  5
185
100
AcDbEntity
  8
0
 62
7
100
AcDbSpline
 70
8
 71
3
 72
8
 73
4
 74
0
 40
0
 40
0
 40
0
 40
0
 40
1
 40
1
 40
1
 40
1
 10
114.824962
 20
121.815456
 30
0.0
 10
114.824962
 20
122.367201
 30
0.0
 10
115.272992
 20
122.815229
 30
0.0
 10
115.825448
 20
122.815229
 30
0.0
  0
LWPOLYLINE
  5
186
100
AcDbEntity
  8
0
 62
7
100
AcDbPolyline
 90
2
 70
0
 10
114.824962
 20
43.514439
 30
0.0
 10
114.824962
 20
121.815456
 30
0.0
  0
SPLINE
  5
187
100
AcDbEntity
  8
0
 62
7
100
AcDbSpline
 70
8
 71
3
 72
8
 73
4
 74
0
 40
0
 40
0
 40
0
 40
0
 40
1
 40
1
 40
1
 40
1
 10
134.825071
 20
124.815479
 30
0.0
 10
134.825071
 20
125.367223
 30
0.0
 10
135.273102
 20
125.815248
 30
0.0
 10
135.824849
 20
125.815251
 30
0.0
  0
LWPOLYLINE
  5
188
100
AcDbEntity
  8
0
 62
7
100
AcDbPolyline
 90
3
 70
0
 10
115.825448
 20
122.815229
 30
0.0
 10
134.825071
 20
122.815229
 30
0.0
 10
134.825071
 20
124.815479
 30
0.0
  0
SPLINE
  5
189
100
AcDbEntity
  8
0
 62
7
100
AcDbSpline
 70
8
 71
3
 72
8
 73
4
 74
0
 40
0
 40
0
 40
0
 40
0
 40
1
 40
1
 40
1
 40
1
 10
144.125072
 20
125.815302
 30
0.0
 10
144.676820
 20
125.815304
 30
0.0
 10
145.124850
 20
125.367274
 30
0.0
 10
145.124850
 20
124.815529
 30
0.0
  0
LWPOLYLINE
  5
18a
100
AcDbEntity
  8
0
 62
7
100
AcDbPolyline
 90
2
 70
0
 10
135.824849
 20
125.815251
 30
0.0
 10
144.125072
 20
125.815302
 30
0.0
  0
SPLINE
  5
18b
100
AcDbEntity
  8
0
 62
7
100
AcDbSpline
 70
8
 71
3
 72
8
 73
4
 74
0
 40
0
 40
0
 40
0
 40
0
 40
1
 40
1
 40
1
 40
1
 10
220.124898
 20
124.815479
 30
0.0
 10
220.124898
 20
125.367223
 30
0.0
 10
220.572928
 20
125.815251
 30
0.0
 10
221.125028
 20
125.815251
 30
0.0
  0
LWPOLYLINE
  5
18c
100
AcDbEntity
  8
0
 62
7
100
AcDbPolyline
 90
4
 70
0
 10
145.124850
 20
124.815529
 30
0.0
 10
145.124850
 20
122.815279
 30
0.0
 10
220.124898
 20
122.815229
 30
0.0
 10
220.124898
 20
124.815479
 30
0.0
  0
SPLINE
  5
18d
100
AcDbEntity
  8
0
 62
7
100
AcDbSpline
 70
8
 71
3
 72
8
 73
4
 74
0
 40
0
 40
0
 40
0
 40
0
 40
1
 40
1
 40
1
 40
1
 10
229.125072
 20
125.815251
 30
0.0
 10
229.676819
 20
125.815251
 30
0.0
 10
230.124852
 20
125.367223
 30
0.0
 10
230.124852
 20
124.815479
 30
0.0
  0
LWPOLYLINE
  5
18e
100
AcDbEntity
  8
0
 62
7
100
AcDbPolyline
 90
2
 70
0
 10
221.125028
 20
125.815251
 30
0.0
 10
229.125072
 20
125.815251
 30
0.0
  0
SPLINE
  5
18f
100
AcDbEntity
  8
0
 62
7
100
AcDbSpline
 70
8
 71
3
 72
8
 73
4
 74
0
 40
0
 40
0
 40
0
 40
0
 40
1
 40
1
 40
1
 40
1
 10
249.125243
 20
122.815229
 30
0.0
 10
249.676991
 20
122.815229
 30
0.0
 10
250.125024
 20
122.367201
 30
0.0
 10
250.125024
 20
121.815456
 30
0.0
  0
LWPOLYLINE
  5
190
100
AcDbEntity
  8
0
 62
7
100
AcDbPolyline
 90
3
 70
0
 10
230.124852
 20
124.815479
 30
0.0
 10
230.124852
 20
122.815229
 30
0.0
 10
249.125243
 20
122.815229
 30
0.0
  0
LWPOLYLINE
  5
191
100
AcDbEntity
  8
0
 62
7
100
AcDbPolyline
 90
2
 70
0
 10
250.125024
 20
121.815456
 30
0.0
 10
250.125024
 20
43.514439
 30
0.0
  0
LWPOLYLINE
  5
192
100
AcDbEntity
  8
0
 62
7
100
AcDbPolyline
 90
5
 70
0
 10
111.824962
 20
171.115649
 30
0.0
 10
114.824962
 20
171.115649
 30
0.0
 10
114.824962
 20
163.115354
 30
0.0
 10
111.824962
 20
163.115354
 30
0.0
 10
111.824962
 20
171.115649
 30
0.0
  0
LWPOLYLINE
  5
193
100
AcDbEntity
  8
0
 62
7
100
AcDbPolyline
 90
5
 70
0
 10
111.824962
 20
142.515503
 30
0.0
 10
114.824962
 20
142.515503
 30
0.0
 10
114.824962
 20
134.515208
 30
0.0
 10
111.824962
 20
134.515208
 30
0.0
 10
111.824962
 20
142.515503
 30
0.0
  0
LWPOLYLINE
  5
194
100
AcDbEntity
  8
0
 62
7
100
AcDbPolyline
 90
5
 70
0
 10
250.124965
 20
171.115649
 30
0.0
 10
253.124964
 20
171.115649
 30
0.0
 10
253.124964
 20
163.115354
 30
0.0
 10
250.124965
 20
163.115354
 30
0.0
 10
250.124965
 20
171.115649
 30
0.0
  0
SPLINE
  5
195
100
AcDbEntity
  8
0
 62
7
100
AcDbSpline
 70
8
 71
3
 72
8
 73
4
 74
0
 40
0
 40
0
 40
0
 40
0
 40
1
 40
1
 40
1
 40
1
 10
109.824963
 20
170.615252
 30
0.0
 10
109.824963
 20
172.272249
 30
0.0
 10
111.168688
 20
173.615271
 30
0.0
 10
112.824968
 20
173.615274
 30
0.0
  0
LWPOLYLINE
  5
196
100
AcDbEntity
  8
0
 62
7
100
AcDbPolyline
 90
6
 70
0
 10
250.124965
 20
142.515503
 30
0.0
 10
253.124964
 20
142.515579
 30
0.0
 10
253.124964
 20
134.515284
 30
0.0
 10
250.124965
 20
134.515208
 30
0.0
 10
250.124965
 20
137.538516
 30
0.0
 10
250.124965
 20
142.515503
 30
0.0
  0
SPLINE
  5
197
100
AcDbEntity
  8
0
 62
7
100
AcDbSpline
 70
8
 71
3
 72
8
 73
4
 74
0
 40
0
 40
0
 40
0
 40
0
 40
1
 40
1
 40
1
 40
1
 10
252.124947
 20
173.615454
 30
0.0
 10
253.781227
 20
173.615457
 30
0.0
 10
255.124949
 20
172.272429
 30
0.0
 10
255.124949
 20
170.615432
 30
0.0
  0
LWPOLYLINE
  5
198
100
AcDbEntity
  8
0
 62
7
100
AcDbPolyline
 90
2
 70
0
 10
112.824968
 20
173.615274
 30
0.0
 10
252.124947
 20
173.615454
 30
0.0
  0
SPLINE
  5
199
100
AcDbEntity
  8
0
 62
7
100
AcDbSpline
 70
8
 71
3
 72
8
 73
4
 74
0
 40
0
 40
0
 40
0
 40
0
 40
1
 40
1
 40
1
 40
1
 10
255.124949
 20
134.515454
 30
0.0
 10
255.124949
 20
131.753909
 30
0.0
 10
252.886238
 20
129.515534
 30
0.0
 10
250.124714
 20
129.515534
 30
0.0
  0
SPLINE
  5
19a
100
AcDbEntity
  8
0
 62
7
100
AcDbSpline
 70
8
 71
3
 72
8
 73
4
 74
0
 40
0
 40
0
 40
0
 40
0
 40
1
 40
1
 40
1
 40
1
 10
250.124714
 20
129.515534
 30
0.0
 10
248.275111
 20
129.515534
 30
0.0
 10
246.663986
 20
130.522362
 30
0.0
 10
245.798981
 20
132.015317
 30
0.0
  0
LWPOLYLINE
  5
19b
100
AcDbEntity
  8
0
 62
7
100
AcDbPolyline
 90
2
 70
0
 10
255.124949
 20
170.615432
 30
0.0
 10
255.124949
 20
134.515454
 30
0.0
  0
SPLINE
  5
19c
100
AcDbEntity
  8
0
 62
7
100
AcDbSpline
 70
8
 71
3
 72
8
 73
4
 74
0
 40
0
 40
0
 40
0
 40
0
 40
1
 40
1
 40
1
 40
1
 10
119.150934
 20
132.015137
 30
0.0
 10
118.286282
 20
130.522181
 30
0.0
 10
116.675160
 20
129.515354
 30
0.0
 10
114.825201
 20
129.515354
 30
0.0
  0
SPLINE
  5
19d
100
AcDbEntity
  8
0
 62
7
100
AcDbSpline
 70
8
 71
3
 72
8
 73
4
 74
0
 40
0
 40
0
 40
0
 40
0
 40
1
 40
1
 40
1
 40
1
 10
114.825201
 20
129.515354
 30
0.0
 10
112.063677
 20
129.515354
 30
0.0
 10
109.824963
 20
131.753729
 30
0.0
 10
109.824963
 20
134.515273
 30
0.0
  0
LWPOLYLINE
  5
19e
100
AcDbEntity
  8
0
 62
7
100
AcDbPolyline
 90
2
 70
0
 10
245.798981
 20
132.015317
 30
0.0
 10
119.150934
 20
132.015137
 30
0.0
  0
LWPOLYLINE
  5
19f
100
AcDbEntity
  8
0
 62
7
100
AcDbPolyline
 90
2
 70
0
 10
109.824963
 20
134.515273
 30
0.0
 10
109.824963
 20
170.615252
 30
0.0
  0
LWPOLYLINE
  5
1a0
100
AcDbEntity
  8
0
 62
7
100
AcDbPolyline
 90
5
 70
0
 10
-13.325040
 20
137.814789
 30
0.0
 10
-2.725039
 20
137.815918
 30
0.0
 10
-2.725039
 20
134.515916
 30
0.0
 10
-13.325040
 20
134.514788
 30
0.0
 10
-13.325040
 20
137.814789
 30
0.0
  0
LWPOLYLINE
  5
1a1
100
AcDbEntity
  8
0
 62
7
100
AcDbPolyline
 90
5
 70
0
 10
-13.325040
 20
171.114937
 30
0.0
 10
-2.725039
 20
171.116066
 30
0.0
 10
-2.725039
 20
167.816019
 30
0.0
 10
-13.325040
 20
167.814890
 30
0.0
 10
-13.325040
 20
171.114937
 30
0.0
  0
LWPOLYLINE
  5
1a2
100
AcDbEntity
  8
0
 62
7
100
AcDbPolyline
 90
5
 70
0
 10
71.975351
 20
171.114937
 30
0.0
 10
82.575352
 20
171.116066
 30
0.0
 10
82.575352
 20
167.816019
 30
0.0
 10
71.975351
 20
167.814890
 30
0.0
 10
71.975351
 20
171.114937
 30
0.0
  0
LWPOLYLINE
  5
1a3
100
AcDbEntity
  8
0
 62
7
100
AcDbPolyline
 90
5
 70
0
 10
71.975351
 20
137.814789
 30
0.0
 10
82.575352
 20
137.815918
 30
0.0
 10
82.575352
 20
134.515916
 30
0.0
 10
71.975351
 20
134.514788
 30
0.0
 10
71.975351
 20
137.814789
 30
0.0
  0
LWPOLYLINE
  5
1a4
100
AcDbEntity
  8
0
 62
7
100
AcDbPolyline
 90
5
 70
0
 10
134.675352
 20
137.814789
 30
0.0
 10
145.275354
 20
137.815918
 30
0.0
 10
145.275354
 20
134.515916
 30
0.0
 10
134.675352
 20
134.514788
 30
0.0
 10
134.675352
 20
137.814789
 30
0.0
  0
LWPOLYLINE
  5
1a5
100
AcDbEntity
  8
0
 62
7
100
AcDbPolyline
 90
5
 70
0
 10
134.675352
 20
171.114937
 30
0.0
 10
145.275354
 20
171.116066
 30
0.0
 10
145.275354
 20
167.816019
 30
0.0
 10
134.675352
 20
167.814890
 30
0.0
 10
134.675352
 20
171.114937
 30
0.0
  0
LWPOLYLINE
  5
1a6
100
AcDbEntity
  8
0
 62
7
100
AcDbPolyline
 90
5
 70
0
 10
219.975743
 20
171.114937
 30
0.0
 10
230.575745
 20
171.116066
 30
0.0
 10
230.575745
 20
167.816019
 30
0.0
 10
219.975743
 20
167.814890
 30
0.0
 10
219.975743
 20
171.114937
 30
0.0
  0
SPLINE
  5
1a7
100
AcDbEntity
  8
0
 62
7
100
AcDbSpline
 70
8
 71
3
 72
8
 73
4
 74
0
 40
0
 40
0
 40
0
 40
0
 40
1
 40
1
 40
1
 40
1
 10
66.700327
 20
186.815247
 30
0.0
 10
66.700327
 20
187.367344
 30
0.0
 10
67.147646
 20
187.815372
 30
0.0
 10
67.700096
 20
187.815372
 30
0.0
  0
LWPOLYLINE
  5
1a8
100
AcDbEntity
  8
0
 62
7
100
AcDbPolyline
 90
5
 70
0
 10
219.975743
 20
137.814789
 30
0.0
 10
230.575745
 20
137.815918
 30
0.0
 10
230.575745
 20
134.515916
 30
0.0
 10
219.975743
 20
134.514788
 30
0.0
 10
219.975743
 20
137.814789
 30
0.0
  0
SPLINE
  5
1a9
100
AcDbEntity
  8
0
 62
7
100
AcDbSpline
 70
8
 71
3
 72
8
 73
4
 74
0
 40
0
 40
0
 40
0
 40
0
 40
1
 40
1
 40
1
 40
1
 10
67.700096
 20
208.114969
 30
0.0
 10
67.147646
 20
208.114969
 30
0.0
 10
66.700327
 20
208.562997
 30
0.0
 10
66.700327
 20
209.115094
 30
0.0
  0
LWPOLYLINE
  5
1aa
100
AcDbEntity
  8
0
 62
7
100
AcDbPolyline
 90
4
 70
0
 10
67.700096
 20
187.815372
 30
0.0
 10
69.650246
 20
187.815372
 30
0.0
 10
69.650246
 20
208.114969
 30
0.0
 10
67.700096
 20
208.114969
 30
0.0
  0
SPLINE
  5
1ab
100
AcDbEntity
  8
0
 62
7
100
AcDbSpline
 70
8
 71
3
 72
8
 73
4
 74
0
 40
0
 40
0
 40
0
 40
0
 40
1
 40
1
 40
1
 40
1
 10
69.700340
 20
212.365235
 30
0.0
 10
73.066188
 20
212.365235
 30
0.0
 10
75.773396
 20
212.896872
 30
0.0
 10
77.424393
 20
213.532224
 30
0.0
  0
SPLINE
  5
1ac
100
AcDbEntity
  8
0
 62
7
100
AcDbSpline
 70
8
 71
3
 72
8
 73
4
 74
0
 40
0
 40
0
 40
0
 40
0
 40
1
 40
1
 40
1
 40
1
 10
77.424393
 20
213.532224
 30
0.0
 10
79.040112
 20
214.153819
 30
0.0
 10
81.565996
 20
214.615252
 30
0.0
 10
84.700420
 20
214.615252
 30
0.0
  0
SPLINE
  5
1ad
100
AcDbEntity
  8
0
 62
7
100
AcDbSpline
 70
8
 71
3
 72
8
 73
4
 74
0
 40
0
 40
0
 40
0
 40
0
 40
1
 40
1
 40
1
 40
1
 10
84.700420
 20
214.615252
 30
0.0
 10
85.045790
 20
214.615252
 30
0.0
 10
85.325187
 20
214.895005
 30
0.0
 10
85.325187
 20
215.240022
 30
0.0
  0
LWPOLYLINE
  5
1ae
100
AcDbEntity
  8
0
 62
7
100
AcDbPolyline
 90
3
 70
0
 10
66.700327
 20
209.115094
 30
0.0
 10
66.700327
 20
212.365235
 30
0.0
 10
69.700340
 20
212.365235
 30
0.0
  0
SPLINE
  5
1af
100
AcDbEntity
  8
0
 62
7
100
AcDbSpline
 70
8
 71
3
 72
8
 73
4
 74
0
 40
0
 40
0
 40
0
 40
0
 40
1
 40
1
 40
1
 40
1
 10
85.325187
 20
215.240022
 30
0.0
 10
85.325187
 20
215.585391
 30
0.0
 10
85.045437
 20
215.864791
 30
0.0
 10
84.700420
 20
215.864791
 30
0.0
  0
SPLINE
  5
1b0
100
AcDbEntity
  8
0
 62
7
100
AcDbSpline
 70
8
 71
3
 72
8
 73
4
 74
0
 40
0
 40
0
 40
0
 40
0
 40
1
 40
1
 40
1
 40
1
 10
84.700420
 20
215.864791
 30
0.0
 10
81.334573
 20
215.864791
 30
0.0
 10
78.626657
 20
215.333508
 30
0.0
 10
76.976015
 20
214.698155
 30
0.0
  0
SPLINE
  5
1b1
100
AcDbEntity
  8
0
 62
7
100
AcDbSpline
 70
8
 71
3
 72
8
 73
4
 74
0
 40
0
 40
0
 40
0
 40
0
 40
1
 40
1
 40
1
 40
1
 10
76.976015
 20
214.698155
 30
0.0
 10
75.360296
 20
214.076561
 30
0.0
 10
72.834413
 20
213.614774
 30
0.0
 10
69.700693
 20
213.614774
 30
0.0
  0
LWPOLYLINE
  5
1b2
100
AcDbEntity
  8
0
 62
7
100
AcDbPolyline
 90
2
 70
0
 10
85.325187
 20
215.240022
 30
0.0
 10
85.325187
 20
215.240022
 30
0.0
  0
SPLINE
  5
1b3
100
AcDbEntity
  8
0
 62
7
100
AcDbSpline
 70
8
 71
3
 72
8
 73
4
 74
0
 40
0
 40
0
 40
0
 40
0
 40
1
 40
1
 40
1
 40
1
 10
66.700679
 20
213.615057
 30
0.0
 10
65.664924
 20
213.615057
 30
0.0
 10
64.825316
 20
214.454315
 30
0.0
 10
64.825316
 20
215.489718
 30
0.0
  0
SPLINE
  5
1b4
100
AcDbEntity
  8
0
 62
7
100
AcDbSpline
 70
8
 71
3
 72
8
 73
4
 74
0
 40
0
 40
0
 40
0
 40
0
 40
1
 40
1
 40
1
 40
1
 10
64.825316
 20
215.489718
 30
0.0
 10
64.825316
 20
216.525121
 30
0.0
 10
65.665277
 20
217.364379
 30
0.0
 10
66.700679
 20
217.364379
 30
0.0
  0
LWPOLYLINE
  5
1b5
100
AcDbEntity
  8
0
 62
7
100
AcDbPolyline
 90
2
 70
0
 10
69.700693
 20
213.614774
 30
0.0
 10
66.700679
 20
213.615057
 30
0.0
  0
SPLINE
  5
1b6
100
AcDbEntity
  8
0
 62
7
100
AcDbSpline
 70
8
 71
3
 72
8
 73
4
 74
0
 40
0
 40
0
 40
0
 40
0
 40
1
 40
1
 40
1
 40
1
 10
69.700693
 20
217.615204
 30
0.0
 10
69.700693
 20
218.167301
 30
0.0
 10
70.148015
 20
218.614976
 30
0.0
 10
70.700465
 20
218.614976
 30
0.0
  0
LWPOLYLINE
  5
1b7
100
AcDbEntity
  8
0
 62
7
100
AcDbPolyline
 90
4
 70
0
 10
66.700679
 20
217.364379
 30
0.0
 10
66.700679
 20
216.214323
 30
0.0
 10
69.700693
 20
216.214323
 30
0.0
 10
69.700693
 20
217.615204
 30
0.0
  0
SPLINE
  5
1b8
100
AcDbEntity
  8
0
 62
7
100
AcDbSpline
 70
8
 71
3
 72
8
 73
4
 74
0
 40
0
 40
0
 40
0
 40
0
 40
1
 40
1
 40
1
 40
1
 10
71.200701
 20
218.614976
 30
0.0
 10
71.328054
 20
218.614976
 30
0.0
 10
71.456465
 20
218.565940
 30
0.0
 10
71.554185
 20
218.468573
 30
0.0
  0
SPLINE
  5
1b9
100
AcDbEntity
  8
0
 62
7
100
AcDbSpline
 70
8
 71
3
 72
8
 73
4
 74
0
 40
0
 40
0
 40
0
 40
0
 40
1
 40
1
 40
1
 40
1
 10
71.554185
 20
218.468573
 30
0.0
 10
71.749271
 20
218.273134
 30
0.0
 10
72.065357
 20
218.273134
 30
0.0
 10
72.261149
 20
218.468573
 30
0.0
  0
SPLINE
  5
1ba
100
AcDbEntity
  8
0
 62
7
100
AcDbSpline
 70
8
 71
3
 72
8
 73
4
 74
0
 40
0
 40
0
 40
0
 40
0
 40
1
 40
1
 40
1
 40
1
 10
72.261149
 20
218.468573
 30
0.0
 10
72.456235
 20
218.664012
 30
0.0
 10
72.773029
 20
218.664012
 30
0.0
 10
72.968115
 20
218.468291
 30
0.0
  0
SPLINE
  5
1bb
100
AcDbEntity
  8
0
 62
7
100
AcDbSpline
 70
8
 71
3
 72
8
 73
4
 74
0
 40
0
 40
0
 40
0
 40
0
 40
1
 40
1
 40
1
 40
1
 10
72.968115
 20
218.468291
 30
0.0
 10
73.163199
 20
218.273205
 30
0.0
 10
73.479993
 20
218.273205
 30
0.0
 10
73.675079
 20
218.468573
 30
0.0
  0
SPLINE
  5
1bc
100
AcDbEntity
  8
0
 62
7
100
AcDbSpline
 70
8
 71
3
 72
8
 73
4
 74
0
 40
0
 40
0
 40
0
 40
0
 40
1
 40
1
 40
1
 40
1
 10
73.675079
 20
218.468573
 30
0.0
 10
73.870165
 20
218.664012
 30
0.0
 10
74.186960
 20
218.664012
 30
0.0
 10
74.382046
 20
218.468291
 30
0.0
  0
SPLINE
  5
1bd
100
AcDbEntity
  8
0
 62
7
100
AcDbSpline
 70
8
 71
3
 72
8
 73
4
 74
0
 40
0
 40
0
 40
0
 40
0
 40
1
 40
1
 40
1
 40
1
 10
74.382046
 20
218.468291
 30
0.0
 10
74.577835
 20
218.273205
 30
0.0
 10
74.893924
 20
218.273205
 30
0.0
 10
75.089010
 20
218.468573
 30
0.0
  0
SPLINE
  5
1be
100
AcDbEntity
  8
0
 62
7
100
AcDbSpline
 70
8
 71
3
 72
8
 73
4
 74
0
 40
0
 40
0
 40
0
 40
0
 40
1
 40
1
 40
1
 40
1
 10
75.089010
 20
218.468573
 30
0.0
 10
75.284801
 20
218.664012
 30
0.0
 10
75.600890
 20
218.664012
 30
0.0
 10
75.796679
 20
218.468291
 30
0.0
  0
SPLINE
  5
1bf
100
AcDbEntity
  8
0
 62
7
100
AcDbSpline
 70
8
 71
3
 72
8
 73
4
 74
0
 40
0
 40
0
 40
0
 40
0
 40
1
 40
1
 40
1
 40
1
 10
75.796679
 20
218.468291
 30
0.0
 10
75.991765
 20
218.273205
 30
0.0
 10
76.307854
 20
218.273205
 30
0.0
 10
76.503646
 20
218.468573
 30
0.0
  0
SPLINE
  5
1c0
100
AcDbEntity
  8
0
 62
7
100
AcDbSpline
 70
8
 71
3
 72
8
 73
4
 74
0
 40
0
 40
0
 40
0
 40
0
 40
1
 40
1
 40
1
 40
1
 10
76.503646
 20
218.468573
 30
0.0
 10
76.600660
 20
218.565940
 30
0.0
 10
76.729071
 20
218.614976
 30
0.0
 10
76.857129
 20
218.614976
 30
0.0
  0
LWPOLYLINE
  5
1c1
100
AcDbEntity
  8
0
 62
7
100
AcDbPolyline
 90
2
 70
0
 10
70.700465
 20
218.614976
 30
0.0
 10
71.200701
 20
218.614976
 30
0.0
  0
SPLINE
  5
1c2
100
AcDbEntity
  8
0
 62
7
100
AcDbSpline
 70
8
 71
3
 72
8
 73
4
 74
0
 40
0
 40
0
 40
0
 40
0
 40
1
 40
1
 40
1
 40
1
 10
142.743476
 20
218.614666
 30
0.0
 10
142.871531
 20
218.614665
 30
0.0
 10
142.999945
 20
218.565630
 30
0.0
 10
143.096959
 20
218.468263
 30
0.0
  0
SPLINE
  5
1c3
100
AcDbEntity
  8
0
 62
7
100
AcDbSpline
 70
8
 71
3
 72
8
 73
4
 74
0
 40
0
 40
0
 40
0
 40
0
 40
1
 40
1
 40
1
 40
1
 10
143.096959
 20
218.468263
 30
0.0
 10
143.292751
 20
218.272824
 30
0.0
 10
143.608834
 20
218.272824
 30
0.0
 10
143.803923
 20
218.467981
 30
0.0
  0
SPLINE
  5
1c4
100
AcDbEntity
  8
0
 62
7
100
AcDbSpline
 70
8
 71
3
 72
8
 73
4
 74
0
 40
0
 40
0
 40
0
 40
0
 40
1
 40
1
 40
1
 40
1
 10
143.803923
 20
218.467981
 30
0.0
 10
143.999715
 20
218.663772
 30
0.0
 10
144.315801
 20
218.663772
 30
0.0
 10
144.511595
 20
218.468263
 30
0.0
  0
SPLINE
  5
1c5
100
AcDbEntity
  8
0
 62
7
100
AcDbSpline
 70
8
 71
3
 72
8
 73
4
 74
0
 40
0
 40
0
 40
0
 40
0
 40
1
 40
1
 40
1
 40
1
 10
144.511595
 20
218.468263
 30
0.0
 10
144.706676
 20
218.272824
 30
0.0
 10
145.022768
 20
218.272824
 30
0.0
 10
145.218206
 20
218.467981
 30
0.0
  0
SPLINE
  5
1c6
100
AcDbEntity
  8
0
 62
7
100
AcDbSpline
 70
8
 71
3
 72
8
 73
4
 74
0
 40
0
 40
0
 40
0
 40
0
 40
1
 40
1
 40
1
 40
1
 10
145.218206
 20
218.467981
 30
0.0
 10
145.413290
 20
218.663772
 30
0.0
 10
145.730087
 20
218.663772
 30
0.0
 10
145.925173
 20
218.468263
 30
0.0
  0
SPLINE
  5
1c7
100
AcDbEntity
  8
0
 62
7
100
AcDbSpline
 70
8
 71
3
 72
8
 73
4
 74
0
 40
0
 40
0
 40
0
 40
0
 40
1
 40
1
 40
1
 40
1
 10
145.925173
 20
218.468263
 30
0.0
 10
146.120609
 20
218.272824
 30
0.0
 10
146.437404
 20
218.272824
 30
0.0
 10
146.632487
 20
218.467981
 30
0.0
  0
SPLINE
  5
1c8
100
AcDbEntity
  8
0
 62
7
100
AcDbSpline
 70
8
 71
3
 72
8
 73
4
 74
0
 40
0
 40
0
 40
0
 40
0
 40
1
 40
1
 40
1
 40
1
 10
146.632487
 20
218.467981
 30
0.0
 10
146.827576
 20
218.663772
 30
0.0
 10
147.144367
 20
218.663772
 30
0.0
 10
147.339451
 20
218.468263
 30
0.0
  0
SPLINE
  5
1c9
100
AcDbEntity
  8
0
 62
7
100
AcDbSpline
 70
8
 71
3
 72
8
 73
4
 74
0
 40
0
 40
0
 40
0
 40
0
 40
1
 40
1
 40
1
 40
1
 10
147.339451
 20
218.468263
 30
0.0
 10
147.535245
 20
218.272824
 30
0.0
 10
147.851334
 20
218.272824
 30
0.0
 10
148.046420
 20
218.468263
 30
0.0
  0
SPLINE
  5
1ca
100
AcDbEntity
  8
0
 62
7
100
AcDbSpline
 70
8
 71
3
 72
8
 73
4
 74
0
 40
0
 40
0
 40
0
 40
0
 40
1
 40
1
 40
1
 40
1
 10
148.046420
 20
218.468263
 30
0.0
 10
148.144137
 20
218.565630
 30
0.0
 10
148.272551
 20
218.614666
 30
0.0
 10
148.399904
 20
218.614666
 30
0.0
  0
LWPOLYLINE
  5
1cb
100
AcDbEntity
  8
0
 62
7
100
AcDbPolyline
 90
3
 70
0
 10
76.857129
 20
218.614976
 30
0.0
 10
105.285430
 20
218.614976
 30
0.0
 10
142.743476
 20
218.614666
 30
0.0
  0
SPLINE
  5
1cc
100
AcDbEntity
  8
0
 62
7
100
AcDbSpline
 70
8
 71
3
 72
8
 73
4
 74
0
 40
0
 40
0
 40
0
 40
0
 40
1
 40
1
 40
1
 40
1
 10
148.900140
 20
218.614666
 30
0.0
 10
149.452587
 20
218.614666
 30
0.0
 10
149.899912
 20
218.166991
 30
0.0
 10
149.899912
 20
217.614893
 30
0.0
  0
LWPOLYLINE
  5
1cd
100
AcDbEntity
  8
0
 62
7
100
AcDbPolyline
 90
2
 70
0
 10
148.399904
 20
218.614666
 30
0.0
 10
148.900140
 20
218.614666
 30
0.0
  0
SPLINE
  5
1ce
100
AcDbEntity
  8
0
 62
7
100
AcDbSpline
 70
8
 71
3
 72
8
 73
4
 74
0
 40
0
 40
0
 40
0
 40
0
 40
1
 40
1
 40
1
 40
1
 10
153.049856
 20
217.364774
 30
0.0
 10
154.085606
 20
217.364774
 30
0.0
 10
154.924514
 20
216.525516
 30
0.0
 10
154.924514
 20
215.490113
 30
0.0
  0
SPLINE
  5
1cf
100
AcDbEntity
  8
0
 62
7
100
AcDbSpline
 70
8
 71
3
 72
8
 73
4
 74
0
 40
0
 40
0
 40
0
 40
0
 40
1
 40
1
 40
1
 40
1
 10
154.924514
 20
215.490113
 30
0.0
 10
154.924514
 20
214.454710
 30
0.0
 10
154.085256
 20
213.615452
 30
0.0
 10
153.049856
 20
213.615452
 30
0.0
  0
LWPOLYLINE
  5
1d0
100
AcDbEntity
  8
0
 62
7
100
AcDbPolyline
 90
4
 70
0
 10
149.899912
 20
217.614893
 30
0.0
 10
149.899912
 20
216.214718
 30
0.0
 10
153.049856
 20
216.214718
 30
0.0
 10
153.049856
 20
217.364774
 30
0.0
  0
SPLINE
  5
1d1
100
AcDbEntity
  8
0
 62
7
100
AcDbSpline
 70
8
 71
3
 72
8
 73
4
 74
0
 40
0
 40
0
 40
0
 40
0
 40
1
 40
1
 40
1
 40
1
 10
149.899912
 20
213.615170
 30
0.0
 10
146.766193
 20
213.615170
 30
0.0
 10
144.240306
 20
214.077308
 30
0.0
 10
142.624237
 20
214.698550
 30
0.0
  0
SPLINE
  5
1d2
100
AcDbEntity
  8
0
 62
7
100
AcDbSpline
 70
8
 71
3
 72
8
 73
4
 74
0
 40
0
 40
0
 40
0
 40
0
 40
1
 40
1
 40
1
 40
1
 10
142.624237
 20
214.698550
 30
0.0
 10
140.973240
 20
215.333903
 30
0.0
 10
138.266029
 20
215.865186
 30
0.0
 10
134.900185
 20
215.865186
 30
0.0
  0
SPLINE
  5
1d3
100
AcDbEntity
  8
0
 62
7
100
AcDbSpline
 70
8
 71
3
 72
8
 73
4
 74
0
 40
0
 40
0
 40
0
 40
0
 40
1
 40
1
 40
1
 40
1
 10
134.900185
 20
215.865186
 30
0.0
 10
134.554815
 20
215.865186
 30
0.0
 10
134.275415
 20
215.585433
 30
0.0
 10
134.275415
 20
215.240417
 30
0.0
  0
LWPOLYLINE
  5
1d4
100
AcDbEntity
  8
0
 62
7
100
AcDbPolyline
 90
2
 70
0
 10
153.049856
 20
213.615452
 30
0.0
 10
149.899912
 20
213.615170
 30
0.0
  0
SPLINE
  5
1d5
100
AcDbEntity
  8
0
 62
7
100
AcDbSpline
 70
8
 71
3
 72
8
 73
4
 74
0
 40
0
 40
0
 40
0
 40
0
 40
1
 40
1
 40
1
 40
1
 10
134.275415
 20
215.240417
 30
0.0
 10
134.275415
 20
214.895047
 30
0.0
 10
134.555168
 20
214.615647
 30
0.0
 10
134.900185
 20
214.615647
 30
0.0
  0
SPLINE
  5
1d6
100
AcDbEntity
  8
0
 62
7
100
AcDbSpline
 70
8
 71
3
 72
8
 73
4
 74
0
 40
0
 40
0
 40
0
 40
0
 40
1
 40
1
 40
1
 40
1
 10
134.900185
 20
214.615647
 30
0.0
 10
138.033901
 20
214.615647
 30
0.0
 10
140.559787
 20
214.153861
 30
0.0
 10
142.175504
 20
213.532620
 30
0.0
  0
SPLINE
  5
1d7
100
AcDbEntity
  8
0
 62
7
100
AcDbSpline
 70
8
 71
3
 72
8
 73
4
 74
0
 40
0
 40
0
 40
0
 40
0
 40
1
 40
1
 40
1
 40
1
 10
142.175504
 20
213.532620
 30
0.0
 10
143.826501
 20
212.897267
 30
0.0
 10
146.533712
 20
212.365299
 30
0.0
 10
149.899559
 20
212.365630
 30
0.0
  0
LWPOLYLINE
  5
1d8
100
AcDbEntity
  8
0
 62
7
100
AcDbPolyline
 90
2
 70
0
 10
134.275415
 20
215.240417
 30
0.0
 10
134.275415
 20
215.240417
 30
0.0
  0
SPLINE
  5
1d9
100
AcDbEntity
  8
0
 62
7
100
AcDbSpline
 70
8
 71
3
 72
8
 73
4
 74
0
 40
0
 40
0
 40
0
 40
0
 40
1
 40
1
 40
1
 40
1
 10
153.049501
 20
209.115489
 30
0.0
 10
153.049501
 20
208.563392
 30
0.0
 10
152.602181
 20
208.115364
 30
0.0
 10
152.049731
 20
208.115364
 30
0.0
  0
LWPOLYLINE
  5
1da
100
AcDbEntity
  8
0
 62
7
100
AcDbPolyline
 90
3
 70
0
 10
149.899559
 20
212.365630
 30
0.0
 10
153.049501
 20
212.365630
 30
0.0
 10
153.049501
 20
209.115489
 30
0.0
  0
SPLINE
  5
1db
100
AcDbEntity
  8
0
 62
7
100
AcDbSpline
 70
8
 71
3
 72
8
 73
4
 74
0
 40
0
 40
0
 40
0
 40
0
 40
1
 40
1
 40
1
 40
1
 10
152.049731
 20
187.815767
 30
0.0
 10
152.602181
 20
187.815767
 30
0.0
 10
153.049501
 20
187.367739
 30
0.0
 10
153.049501
 20
186.815642
 30
0.0
  0
LWPOLYLINE
  5
1dc
100
AcDbEntity
  8
0
 62
7
100
AcDbPolyline
 90
4
 70
0
 10
152.049731
 20
208.115364
 30
0.0
 10
149.949298
 20
208.115364
 30
0.0
 10
149.949298
 20
187.815767
 30
0.0
 10
152.049731
 20
187.815767
 30
0.0
  0
SPLINE
  5
1dd
100
AcDbEntity
  8
0
 62
7
100
AcDbSpline
 70
8
 71
3
 72
8
 73
4
 74
0
 40
0
 40
0
 40
0
 40
0
 40
1
 40
1
 40
1
 40
1
 10
153.049501
 20
182.315610
 30
0.0
 10
154.085253
 20
182.315610
 30
0.0
 10
154.924159
 20
181.475998
 30
0.0
 10
154.924159
 20
180.440595
 30
0.0
  0
SPLINE
  5
1de
100
AcDbEntity
  8
0
 62
7
100
AcDbSpline
 70
8
 71
3
 72
8
 73
4
 74
0
 40
0
 40
0
 40
0
 40
0
 40
1
 40
1
 40
1
 40
1
 10
154.924159
 20
180.440595
 30
0.0
 10
154.924159
 20
179.405193
 30
0.0
 10
154.084901
 20
178.565934
 30
0.0
 10
153.049501
 20
178.565934
 30
0.0
  0
LWPOLYLINE
  5
1df
100
AcDbEntity
  8
0
 62
7
100
AcDbPolyline
 90
2
 70
0
 10
153.049501
 20
186.815642
 30
0.0
 10
153.049501
 20
182.315610
 30
0.0
  0
SPLINE
  5
1e0
100
AcDbEntity
  8
0
 62
7
100
AcDbSpline
 70
8
 71
3
 72
8
 73
4
 74
0
 40
0
 40
0
 40
0
 40
0
 40
1
 40
1
 40
1
 40
1
 10
149.899203
 20
178.315815
 30
0.0
 10
149.899203
 20
177.764070
 30
0.0
 10
149.451884
 20
177.316040
 30
0.0
 10
148.899431
 20
177.316043
 30
0.0
  0
LWPOLYLINE
  5
1e1
100
AcDbEntity
  8
0
 62
7
100
AcDbPolyline
 90
4
 70
0
 10
153.049501
 20
178.565934
 30
0.0
 10
153.049501
 20
179.715990
 30
0.0
 10
149.899203
 20
179.715990
 30
0.0
 10
149.899203
 20
178.315815
 30
0.0
  0
SPLINE
  5
1e2
100
AcDbEntity
  8
0
 62
7
100
AcDbSpline
 70
8
 71
3
 72
8
 73
4
 74
0
 40
0
 40
0
 40
0
 40
0
 40
1
 40
1
 40
1
 40
1
 10
70.700113
 20
177.316325
 30
0.0
 10
70.147663
 20
177.316328
 30
0.0
 10
69.700340
 20
177.764353
 30
0.0
 10
69.700340
 20
178.316097
 30
0.0
  0
LWPOLYLINE
  5
1e3
100
AcDbEntity
  8
0
 62
7
100
AcDbPolyline
 90
2
 70
0
 10
148.899431
 20
177.316043
 30
0.0
 10
70.700113
 20
177.316325
 30
0.0
  0
SPLINE
  5
1e4
100
AcDbEntity
  8
0
 62
7
100
AcDbSpline
 70
8
 71
3
 72
8
 73
4
 74
0
 40
0
 40
0
 40
0
 40
0
 40
1
 40
1
 40
1
 40
1
 10
66.700327
 20
178.566216
 30
0.0
 10
65.664571
 20
178.566216
 30
0.0
 10
64.824963
 20
179.405475
 30
0.0
 10
64.824963
 20
180.440878
 30
0.0
  0
SPLINE
  5
1e5
100
AcDbEntity
  8
0
 62
7
100
AcDbSpline
 70
8
 71
3
 72
8
 73
4
 74
0
 40
0
 40
0
 40
0
 40
0
 40
1
 40
1
 40
1
 40
1
 10
64.824963
 20
180.440878
 30
0.0
 10
64.824963
 20
181.476280
 30
0.0
 10
65.664924
 20
182.315892
 30
0.0
 10
66.700327
 20
182.315892
 30
0.0
  0
LWPOLYLINE
  5
1e6
100
AcDbEntity
  8
0
 62
7
100
AcDbPolyline
 90
4
 70
0
 10
69.700340
 20
178.316097
 30
0.0
 10
69.700340
 20
179.716272
 30
0.0
 10
66.700327
 20
179.716272
 30
0.0
 10
66.700327
 20
178.566216
 30
0.0
  0
SPLINE
  5
1e7
100
AcDbEntity
  8
0
 62
7
100
AcDbSpline
 70
8
 71
3
 72
8
 73
4
 74
0
 40
0
 40
0
 40
0
 40
0
 40
1
 40
1
 40
1
 40
1
 10
29.129849
 20
140.117124
 30
0.0
 10
29.129849
 20
139.565380
 30
0.0
 10
28.681821
 20
139.117352
 30
0.0
 10
28.130075
 20
139.117352
 30
0.0
  0
LWPOLYLINE
  5
1e8
100
AcDbEntity
  8
0
 62
7
100
AcDbPolyline
 90
2
 70
0
 10
66.700327
 20
182.315892
 30
0.0
 10
66.700327
 20
186.815247
 30
0.0
  0
SPLINE
  5
1e9
100
AcDbEntity
  8
0
 62
7
100
AcDbSpline
 70
8
 71
3
 72
8
 73
4
 74
0
 40
0
 40
0
 40
0
 40
0
 40
1
 40
1
 40
1
 40
1
 10
-0.871153
 20
139.117352
 30
0.0
 10
-1.422898
 20
139.117352
 30
0.0
 10
-1.870926
 20
139.565380
 30
0.0
 10
-1.870926
 20
140.117124
 30
0.0
  0
LWPOLYLINE
  5
1ea
100
AcDbEntity
  8
0
 62
7
100
AcDbPolyline
 90
3
 70
0
 10
28.130075
 20
139.117352
 30
0.0
 10
12.458911
 20
139.117352
 30
0.0
 10
-0.871153
 20
139.117352
 30
0.0
  0
SPLINE
  5
1eb
100
AcDbEntity
  8
0
 62
7
100
AcDbSpline
 70
8
 71
3
 72
8
 73
4
 74
0
 40
0
 40
0
 40
0
 40
0
 40
1
 40
1
 40
1
 40
1
 10
-1.870926
 20
143.617278
 30
0.0
 10
-1.870926
 20
144.169023
 30
0.0
 10
-1.422898
 20
144.617051
 30
0.0
 10
-0.871153
 20
144.617051
 30
0.0
  0
LWPOLYLINE
  5
1ec
100
AcDbEntity
  8
0
 62
7
100
AcDbPolyline
 90
2
 70
0
 10
-1.870926
 20
140.117124
 30
0.0
 10
-1.870926
 20
143.617278
 30
0.0
  0
SPLINE
  5
1ed
100
AcDbEntity
  8
0
 62
7
100
AcDbSpline
 70
8
 71
3
 72
8
 73
4
 74
0
 40
0
 40
0
 40
0
 40
0
 40
1
 40
1
 40
1
 40
1
 10
28.130075
 20
144.617051
 30
0.0
 10
28.681821
 20
144.617051
 30
0.0
 10
29.129849
 20
144.169023
 30
0.0
 10
29.129849
 20
143.617278
 30
0.0
  0
LWPOLYLINE
  5
1ee
100
AcDbEntity
  8
0
 62
7
100
AcDbPolyline
 90
2
 70
0
 10
-0.871153
 20
144.617051
 30
0.0
 10
28.130075
 20
144.617051
 30
0.0
  0
SPLINE
  5
1ef
100
AcDbEntity
  8
0
 62
7
100
AcDbSpline
 70
8
 71
3
 72
8
 73
4
 74
0
 40
0
 40
0
 40
0
 40
0
 40
1
 40
1
 40
1
 40
1
 10
68.825212
 20
144.740147
 30
0.0
 10
67.720664
 20
144.740147
 30
0.0
 10
66.824962
 20
145.635850
 30
0.0
 10
66.824962
 20
146.740397
 30
0.0
  0
LWPOLYLINE
  5
1f0
100
AcDbEntity
  8
0
 62
7
100
AcDbPolyline
 90
2
 70
0
 10
29.129849
 20
143.617278
 30
0.0
 10
29.129849
 20
140.117124
 30
0.0
  0
SPLINE
  5
1f1
100
AcDbEntity
  8
0
 62
7
100
AcDbSpline
 70
8
 71
3
 72
8
 73
4
 74
0
 40
0
 40
0
 40
0
 40
0
 40
1
 40
1
 40
1
 40
1
 10
66.824962
 20
151.739964
 30
0.0
 10
66.824962
 20
152.844511
 30
0.0
 10
67.720664
 20
153.740214
 30
0.0
 10
68.825212
 20
153.740214
 30
0.0
  0
LWPOLYLINE
  5
1f2
100
AcDbEntity
  8
0
 62
7
100
AcDbPolyline
 90
2
 70
0
 10
66.824962
 20
146.740397
 30
0.0
 10
66.824962
 20
151.739964
 30
0.0
  0
SPLINE
  5
1f3
100
AcDbEntity
  8
0
 62
7
100
AcDbSpline
 70
8
 71
3
 72
8
 73
4
 74
0
 40
0
 40
0
 40
0
 40
0
 40
1
 40
1
 40
1
 40
1
 10
84.825191
 20
153.740214
 30
0.0
 10
85.929738
 20
153.740214
 30
0.0
 10
86.824735
 20
152.844511
 30
0.0
 10
86.824735
 20
151.739964
 30
0.0
  0
SPLINE
  5
1f4
100
AcDbEntity
  8
0
 62
7
100
AcDbSpline
 70
8
 71
3
 72
8
 73
4
 74
0
 40
0
 40
0
 40
0
 40
0
 40
1
 40
1
 40
1
 40
1
 10
86.824735
 20
151.739964
 30
0.0
 10
86.824735
 20
150.073442
 30
0.0
 10
86.824735
 20
148.406920
 30
0.0
 10
86.824735
 20
146.740397
 30
0.0
  0
SPLINE
  5
1f5
100
AcDbEntity
  8
0
 62
7
100
AcDbSpline
 70
8
 71
3
 72
8
 73
4
 74
0
 40
0
 40
0
 40
0
 40
0
 40
1
 40
1
 40
1
 40
1
 10
86.824735
 20
146.740397
 30
0.0
 10
86.824735
 20
145.635850
 30
0.0
 10
85.929738
 20
144.740147
 30
0.0
 10
84.825191
 20
144.740147
 30
0.0
  0
LWPOLYLINE
  5
1f6
100
AcDbEntity
  8
0
 62
7
100
AcDbPolyline
 90
2
 70
0
 10
68.825212
 20
153.740214
 30
0.0
 10
84.825191
 20
153.740214
 30
0.0
  0
SPLINE
  5
1f7
100
AcDbEntity
  8
0
 62
7
100
AcDbSpline
 70
8
 71
3
 72
8
 73
4
 74
0
 40
0
 40
0
 40
0
 40
0
 40
1
 40
1
 40
1
 40
1
 10
36.825211
 20
144.740147
 30
0.0
 10
35.720663
 20
144.740147
 30
0.0
 10
34.824961
 20
145.635850
 30
0.0
 10
34.824961
 20
146.740397
 30
0.0
  0
LWPOLYLINE
  5
1f8
100
AcDbEntity
  8
0
 62
7
100
AcDbPolyline
 90
2
 70
0
 10
84.825191
 20
144.740147
 30
0.0
 10
68.825212
 20
144.740147
 30
0.0
  0
SPLINE
  5
1f9
100
AcDbEntity
  8
0
 62
7
100
AcDbSpline
 70
8
 71
3
 72
8
 73
4
 74
0
 40
0
 40
0
 40
0
 40
0
 40
1
 40
1
 40
1
 40
1
 10
34.824961
 20
151.739964
 30
0.0
 10
34.824961
 20
152.844511
 30
0.0
 10
35.720663
 20
153.740214
 30
0.0
 10
36.825211
 20
153.740214
 30
0.0
  0
LWPOLYLINE
  5
1fa
100
AcDbEntity
  8
0
 62
7
100
AcDbPolyline
 90
2
 70
0
 10
34.824961
 20
146.740397
 30
0.0
 10
34.824961
 20
151.739964
 30
0.0
  0
SPLINE
  5
1fb
100
AcDbEntity
  8
0
 62
7
100
AcDbSpline
 70
8
 71
3
 72
8
 73
4
 74
0
 40
0
 40
0
 40
0
 40
0
 40
1
 40
1
 40
1
 40
1
 10
52.825190
 20
153.740214
 30
0.0
 10
53.929737
 20
153.740214
 30
0.0
 10
54.824734
 20
152.844511
 30
0.0
 10
54.824734
 20
151.739964
 30
0.0
  0
SPLINE
  5
1fc
100
AcDbEntity
  8
0
 62
7
100
AcDbSpline
 70
8
 71
3
 72
8
 73
4
 74
0
 40
0
 40
0
 40
0
 40
0
 40
1
 40
1
 40
1
 40
1
 10
54.824734
 20
151.739964
 30
0.0
 10
54.824734
 20
150.073442
 30
0.0
 10
54.824734
 20
148.406920
 30
0.0
 10
54.824734
 20
146.740397
 30
0.0
  0
SPLINE
  5
1fd
100
AcDbEntity
  8
0
 62
7
100
AcDbSpline
 70
8
 71
3
 72
8
 73
4
 74
0
 40
0
 40
0
 40
0
 40
0
 40
1
 40
1
 40
1
 40
1
 10
54.824734
 20
146.740397
 30
0.0
 10
54.824734
 20
145.635850
 30
0.0
 10
53.929737
 20
144.740147
 30
0.0
 10
52.825190
 20
144.740147
 30
0.0
  0
LWPOLYLINE
  5
1fe
100
AcDbEntity
  8
0
 62
7
100
AcDbPolyline
 90
2
 70
0
 10
36.825211
 20
153.740214
 30
0.0
 10
52.825190
 20
153.740214
 30
0.0
  0
SPLINE
  5
1ff
100
AcDbEntity
  8
0
 62
7
100
AcDbSpline
 70
8
 71
3
 72
8
 73
4
 74
0
 40
0
 40
0
 40
0
 40
0
 40
1
 40
1
 40
1
 40
1
 10
126.825087
 20
144.740263
 30
0.0
 10
125.720540
 20
144.740263
 30
0.0
 10
124.824837
 20
145.635966
 30
0.0
 10
124.824837
 20
146.740513
 30
0.0
  0
LWPOLYLINE
  5
200
100
AcDbEntity
  8
0
 62
7
100
AcDbPolyline
 90
2
 70
0
 10
52.825190
 20
144.740147
 30
0.0
 10
36.825211
 20
144.740147
 30
0.0
  0
SPLINE
  5
201
100
AcDbEntity
  8
0
 62
7
100
AcDbSpline
 70
8
 71
3
 72
8
 73
4
 74
0
 40
0
 40
0
 40
0
 40
0
 40
1
 40
1
 40
1
 40
1
 10
124.824837
 20
162.740230
 30
0.0
 10
124.824837
 20
163.844777
 30
0.0
 10
125.720540
 20
164.740480
 30
0.0
 10
126.825087
 20
164.740480
 30
0.0
  0
LWPOLYLINE
  5
202
100
AcDbEntity
  8
0
 62
7
100
AcDbPolyline
 90
2
 70
0
 10
124.824837
 20
146.740513
 30
0.0
 10
124.824837
 20
162.740230
 30
0.0
  0
SPLINE
  5
203
100
AcDbEntity
  8
0
 62
7
100
AcDbSpline
 70
8
 71
3
 72
8
 73
4
 74
0
 40
0
 40
0
 40
0
 40
0
 40
1
 40
1
 40
1
 40
1
 10
169.825190
 20
164.740480
 30
0.0
 10
170.929737
 20
164.740480
 30
0.0
 10
171.824735
 20
163.844777
 30
0.0
 10
171.824735
 20
162.740230
 30
0.0
  0
SPLINE
  5
204
100
AcDbEntity
  8
0
 62
7
100
AcDbSpline
 70
8
 71
3
 72
8
 73
4
 74
0
 40
0
 40
0
 40
0
 40
0
 40
1
 40
1
 40
1
 40
1
 10
171.824735
 20
162.740230
 30
0.0
 10
171.824735
 20
161.073708
 30
0.0
 10
171.824735
 20
148.407035
 30
0.0
 10
171.824735
 20
146.740513
 30
0.0
  0
SPLINE
  5
205
100
AcDbEntity
  8
0
 62
7
100
AcDbSpline
 70
8
 71
3
 72
8
 73
4
 74
0
 40
0
 40
0
 40
0
 40
0
 40
1
 40
1
 40
1
 40
1
 10
171.824735
 20
146.740513
 30
0.0
 10
171.824735
 20
145.635966
 30
0.0
 10
170.929737
 20
144.740263
 30
0.0
 10
169.825190
 20
144.740263
 30
0.0
  0
LWPOLYLINE
  5
206
100
AcDbEntity
  8
0
 62
7
100
AcDbPolyline
 90
2
 70
0
 10
126.825087
 20
164.740480
 30
0.0
 10
169.825190
 20
164.740480
 30
0.0
  0
SPLINE
  5
207
100
AcDbEntity
  8
0
 62
7
100
AcDbSpline
 70
8
 71
3
 72
8
 73
4
 74
0
 40
0
 40
0
 40
0
 40
0
 40
1
 40
1
 40
1
 40
1
 10
162.600327
 20
186.815558
 30
0.0
 10
162.600327
 20
187.367656
 30
0.0
 10
163.047646
 20
187.815683
 30
0.0
 10
163.600096
 20
187.815683
 30
0.0
  0
LWPOLYLINE
  5
208
100
AcDbEntity
  8
0
 62
7
100
AcDbPolyline
 90
2
 70
0
 10
169.825190
 20
144.740263
 30
0.0
 10
126.825087
 20
144.740263
 30
0.0
  0
SPLINE
  5
209
100
AcDbEntity
  8
0
 62
7
100
AcDbSpline
 70
8
 71
3
 72
8
 73
4
 74
0
 40
0
 40
0
 40
0
 40
0
 40
1
 40
1
 40
1
 40
1
 10
163.600096
 20
208.115280
 30
0.0
 10
163.047646
 20
208.115280
 30
0.0
 10
162.600327
 20
208.563308
 30
0.0
 10
162.600327
 20
209.115405
 30
0.0
  0
LWPOLYLINE
  5
20a
100
AcDbEntity
  8
0
 62
7
100
AcDbPolyline
 90
4
 70
0
 10
163.600096
 20
187.815683
 30
0.0
 10
165.550246
 20
187.815683
 30
0.0
 10
165.550246
 20
208.115280
 30
0.0
 10
163.600096
 20
208.115280
 30
0.0
  0
SPLINE
  5
20b
100
AcDbEntity
  8
0
 62
7
100
AcDbSpline
 70
8
 71
3
 72
8
 73
4
 74
0
 40
0
 40
0
 40
0
 40
0
 40
1
 40
1
 40
1
 40
1
 10
165.600340
 20
212.365547
 30
0.0
 10
168.966188
 20
212.365547
 30
0.0
 10
171.673396
 20
212.897183
 30
0.0
 10
173.324393
 20
213.532536
 30
0.0
  0
SPLINE
  5
20c
100
AcDbEntity
  8
0
 62
7
100
AcDbSpline
 70
8
 71
3
 72
8
 73
4
 74
0
 40
0
 40
0
 40
0
 40
0
 40
1
 40
1
 40
1
 40
1
 10
173.324393
 20
213.532536
 30
0.0
 10
174.940112
 20
214.154130
 30
0.0
 10
177.465996
 20
214.615564
 30
0.0
 10
180.600421
 20
214.615564
 30
0.0
  0
SPLINE
  5
20d
100
AcDbEntity
  8
0
 62
7
100
AcDbSpline
 70
8
 71
3
 72
8
 73
4
 74
0
 40
0
 40
0
 40
0
 40
0
 40
1
 40
1
 40
1
 40
1
 10
180.600421
 20
214.615564
 30
0.0
 10
180.945790
 20
214.615564
 30
0.0
 10
181.225187
 20
214.895317
 30
0.0
 10
181.225187
 20
215.240333
 30
0.0
  0
LWPOLYLINE
  5
20e
100
AcDbEntity
  8
0
 62
7
100
AcDbPolyline
 90
3
 70
0
 10
162.600327
 20
209.115405
 30
0.0
 10
162.600327
 20
212.365547
 30
0.0
 10
165.600340
 20
212.365547
 30
0.0
  0
SPLINE
  5
20f
100
AcDbEntity
  8
0
 62
7
100
AcDbSpline
 70
8
 71
3
 72
8
 73
4
 74
0
 40
0
 40
0
 40
0
 40
0
 40
1
 40
1
 40
1
 40
1
 10
181.225187
 20
215.240333
 30
0.0
 10
181.225187
 20
215.585703
 30
0.0
 10
180.945437
 20
215.865103
 30
0.0
 10
180.600421
 20
215.865103
 30
0.0
  0
SPLINE
  5
210
100
AcDbEntity
  8
0
 62
7
100
AcDbSpline
 70
8
 71
3
 72
8
 73
4
 74
0
 40
0
 40
0
 40
0
 40
0
 40
1
 40
1
 40
1
 40
1
 10
180.600421
 20
215.865103
 30
0.0
 10
177.234573
 20
215.865103
 30
0.0
 10
174.526657
 20
215.333819
 30
0.0
 10
172.876015
 20
214.698467
 30
0.0
  0
SPLINE
  5
211
100
AcDbEntity
  8
0
 62
7
100
AcDbSpline
 70
8
 71
3
 72
8
 73
4
 74
0
 40
0
 40
0
 40
0
 40
0
 40
1
 40
1
 40
1
 40
1
 10
172.876015
 20
214.698467
 30
0.0
 10
171.260296
 20
214.076872
 30
0.0
 10
168.734413
 20
213.615086
 30
0.0
 10
165.600693
 20
213.615086
 30
0.0
  0
LWPOLYLINE
  5
212
100
AcDbEntity
  8
0
 62
7
100
AcDbPolyline
 90
2
 70
0
 10
181.225187
 20
215.240333
 30
0.0
 10
181.225187
 20
215.240333
 30
0.0
  0
SPLINE
  5
213
100
AcDbEntity
  8
0
 62
7
100
AcDbSpline
 70
8
 71
3
 72
8
 73
4
 74
0
 40
0
 40
0
 40
0
 40
0
 40
1
 40
1
 40
1
 40
1
 10
162.600680
 20
213.615368
 30
0.0
 10
161.564924
 20
213.615368
 30
0.0
 10
160.725316
 20
214.454627
 30
0.0
 10
160.725316
 20
215.490029
 30
0.0
  0
SPLINE
  5
214
100
AcDbEntity
  8
0
 62
7
100
AcDbSpline
 70
8
 71
3
 72
8
 73
4
 74
0
 40
0
 40
0
 40
0
 40
0
 40
1
 40
1
 40
1
 40
1
 10
160.725316
 20
215.490029
 30
0.0
 10
160.725316
 20
216.525432
 30
0.0
 10
161.565277
 20
217.364690
 30
0.0
 10
162.600680
 20
217.364690
 30
0.0
  0
LWPOLYLINE
  5
215
100
AcDbEntity
  8
0
 62
7
100
AcDbPolyline
 90
2
 70
0
 10
165.600693
 20
213.615086
 30
0.0
 10
162.600680
 20
213.615368
 30
0.0
  0
SPLINE
  5
216
100
AcDbEntity
  8
0
 62
7
100
AcDbSpline
 70
8
 71
3
 72
8
 73
4
 74
0
 40
0
 40
0
 40
0
 40
0
 40
1
 40
1
 40
1
 40
1
 10
165.600693
 20
217.615515
 30
0.0
 10
165.600693
 20
218.167613
 30
0.0
 10
166.048015
 20
218.615288
 30
0.0
 10
166.600465
 20
218.615288
 30
0.0
  0
LWPOLYLINE
  5
217
100
AcDbEntity
  8
0
 62
7
100
AcDbPolyline
 90
4
 70
0
 10
162.600680
 20
217.364690
 30
0.0
 10
162.600680
 20
216.214635
 30
0.0
 10
165.600693
 20
216.214635
 30
0.0
 10
165.600693
 20
217.615515
 30
0.0
  0
SPLINE
  5
218
100
AcDbEntity
  8
0
 62
7
100
AcDbSpline
 70
8
 71
3
 72
8
 73
4
 74
0
 40
0
 40
0
 40
0
 40
0
 40
1
 40
1
 40
1
 40
1
 10
167.100702
 20
218.615288
 30
0.0
 10
167.228054
 20
218.615288
 30
0.0
 10
167.356465
 20
218.566252
 30
0.0
 10
167.454185
 20
218.468885
 30
0.0
  0
SPLINE
  5
219
100
AcDbEntity
  8
0
 62
7
100
AcDbSpline
 70
8
 71
3
 72
8
 73
4
 74
0
 40
0
 40
0
 40
0
 40
0
 40
1
 40
1
 40
1
 40
1
 10
167.454185
 20
218.468885
 30
0.0
 10
167.649271
 20
218.273446
 30
0.0
 10
167.965357
 20
218.273446
 30
0.0
 10
168.161149
 20
218.468885
 30
0.0
  0
SPLINE
  5
21a
100
AcDbEntity
  8
0
 62
7
100
AcDbSpline
 70
8
 71
3
 72
8
 73
4
 74
0
 40
0
 40
0
 40
0
 40
0
 40
1
 40
1
 40
1
 40
1
 10
168.161149
 20
218.468885
 30
0.0
 10
168.356235
 20
218.664324
 30
0.0
 10
168.673029
 20
218.664324
 30
0.0
 10
168.868115
 20
218.468603
 30
0.0
  0
SPLINE
  5
21b
100
AcDbEntity
  8
0
 62
7
100
AcDbSpline
 70
8
 71
3
 72
8
 73
4
 74
0
 40
0
 40
0
 40
0
 40
0
 40
1
 40
1
 40
1
 40
1
 10
168.868115
 20
218.468603
 30
0.0
 10
169.063199
 20
218.273517
 30
0.0
 10
169.379993
 20
218.273517
 30
0.0
 10
169.575079
 20
218.468885
 30
0.0
  0
SPLINE
  5
21c
100
AcDbEntity
  8
0
 62
7
100
AcDbSpline
 70
8
 71
3
 72
8
 73
4
 74
0
 40
0
 40
0
 40
0
 40
0
 40
1
 40
1
 40
1
 40
1
 10
169.575079
 20
218.468885
 30
0.0
 10
169.770165
 20
218.664324
 30
0.0
 10
170.086960
 20
218.664324
 30
0.0
 10
170.282046
 20
218.468603
 30
0.0
  0
SPLINE
  5
21d
100
AcDbEntity
  8
0
 62
7
100
AcDbSpline
 70
8
 71
3
 72
8
 73
4
 74
0
 40
0
 40
0
 40
0
 40
0
 40
1
 40
1
 40
1
 40
1
 10
170.282046
 20
218.468603
 30
0.0
 10
170.477835
 20
218.273517
 30
0.0
 10
170.793924
 20
218.273517
 30
0.0
 10
170.989010
 20
218.468885
 30
0.0
  0
SPLINE
  5
21e
100
AcDbEntity
  8
0
 62
7
100
AcDbSpline
 70
8
 71
3
 72
8
 73
4
 74
0
 40
0
 40
0
 40
0
 40
0
 40
1
 40
1
 40
1
 40
1
 10
170.989010
 20
218.468885
 30
0.0
 10
171.184801
 20
218.664324
 30
0.0
 10
171.500890
 20
218.664324
 30
0.0
 10
171.696679
 20
218.468603
 30
0.0
  0
SPLINE
  5
21f
100
AcDbEntity
  8
0
 62
7
100
AcDbSpline
 70
8
 71
3
 72
8
 73
4
 74
0
 40
0
 40
0
 40
0
 40
0
 40
1
 40
1
 40
1
 40
1
 10
171.696679
 20
218.468603
 30
0.0
 10
171.891765
 20
218.273517
 30
0.0
 10
172.207854
 20
218.273517
 30
0.0
 10
172.403646
 20
218.468885
 30
0.0
  0
SPLINE
  5
220
100
AcDbEntity
  8
0
 62
7
100
AcDbSpline
 70
8
 71
3
 72
8
 73
4
 74
0
 40
0
 40
0
 40
0
 40
0
 40
1
 40
1
 40
1
 40
1
 10
172.403646
 20
218.468885
 30
0.0
 10
172.500660
 20
218.566252
 30
0.0
 10
172.629071
 20
218.615288
 30
0.0
 10
172.757129
 20
218.615288
 30
0.0
  0
LWPOLYLINE
  5
221
100
AcDbEntity
  8
0
 62
7
100
AcDbPolyline
 90
2
 70
0
 10
166.600465
 20
218.615288
 30
0.0
 10
167.100702
 20
218.615288
 30
0.0
  0
SPLINE
  5
222
100
AcDbEntity
  8
0
 62
7
100
AcDbSpline
 70
8
 71
3
 72
8
 73
4
 74
0
 40
0
 40
0
 40
0
 40
0
 40
1
 40
1
 40
1
 40
1
 10
238.643476
 20
218.614977
 30
0.0
 10
238.771532
 20
218.614976
 30
0.0
 10
238.899946
 20
218.565941
 30
0.0
 10
238.996959
 20
218.468574
 30
0.0
  0
SPLINE
  5
223
100
AcDbEntity
  8
0
 62
7
100
AcDbSpline
 70
8
 71
3
 72
8
 73
4
 74
0
 40
0
 40
0
 40
0
 40
0
 40
1
 40
1
 40
1
 40
1
 10
238.996959
 20
218.468574
 30
0.0
 10
239.192751
 20
218.273136
 30
0.0
 10
239.508834
 20
218.273136
 30
0.0
 10
239.703923
 20
218.468292
 30
0.0
  0
SPLINE
  5
224
100
AcDbEntity
  8
0
 62
7
100
AcDbSpline
 70
8
 71
3
 72
8
 73
4
 74
0
 40
0
 40
0
 40
0
 40
0
 40
1
 40
1
 40
1
 40
1
 10
239.703923
 20
218.468292
 30
0.0
 10
239.899715
 20
218.664084
 30
0.0
 10
240.215801
 20
218.664084
 30
0.0
 10
240.411595
 20
218.468574
 30
0.0
  0
SPLINE
  5
225
100
AcDbEntity
  8
0
 62
7
100
AcDbSpline
 70
8
 71
3
 72
8
 73
4
 74
0
 40
0
 40
0
 40
0
 40
0
 40
1
 40
1
 40
1
 40
1
 10
240.411595
 20
218.468574
 30
0.0
 10
240.606676
 20
218.273136
 30
0.0
 10
240.922768
 20
218.273136
 30
0.0
 10
241.118207
 20
218.468292
 30
0.0
  0
SPLINE
  5
226
100
AcDbEntity
  8
0
 62
7
100
AcDbSpline
 70
8
 71
3
 72
8
 73
4
 74
0
 40
0
 40
0
 40
0
 40
0
 40
1
 40
1
 40
1
 40
1
 10
241.118207
 20
218.468292
 30
0.0
 10
241.313290
 20
218.664084
 30
0.0
 10
241.630087
 20
218.664084
 30
0.0
 10
241.825173
 20
218.468574
 30
0.0
  0
SPLINE
  5
227
100
AcDbEntity
  8
0
 62
7
100
AcDbSpline
 70
8
 71
3
 72
8
 73
4
 74
0
 40
0
 40
0
 40
0
 40
0
 40
1
 40
1
 40
1
 40
1
 10
241.825173
 20
218.468574
 30
0.0
 10
242.020609
 20
218.273136
 30
0.0
 10
242.337404
 20
218.273136
 30
0.0
 10
242.532487
 20
218.468292
 30
0.0
  0
SPLINE
  5
228
100
AcDbEntity
  8
0
 62
7
100
AcDbSpline
 70
8
 71
3
 72
8
 73
4
 74
0
 40
0
 40
0
 40
0
 40
0
 40
1
 40
1
 40
1
 40
1
 10
242.532487
 20
218.468292
 30
0.0
 10
242.727576
 20
218.664084
 30
0.0
 10
243.044368
 20
218.664084
 30
0.0
 10
243.239451
 20
218.468574
 30
0.0
  0
SPLINE
  5
229
100
AcDbEntity
  8
0
 62
7
100
AcDbSpline
 70
8
 71
3
 72
8
 73
4
 74
0
 40
0
 40
0
 40
0
 40
0
 40
1
 40
1
 40
1
 40
1
 10
243.239451
 20
218.468574
 30
0.0
 10
243.435245
 20
218.273136
 30
0.0
 10
243.751334
 20
218.273136
 30
0.0
 10
243.946420
 20
218.468574
 30
0.0
  0
SPLINE
  5
22a
100
AcDbEntity
  8
0
 62
7
100
AcDbSpline
 70
8
 71
3
 72
8
 73
4
 74
0
 40
0
 40
0
 40
0
 40
0
 40
1
 40
1
 40
1
 40
1
 10
243.946420
 20
218.468574
 30
0.0
 10
244.044137
 20
218.565941
 30
0.0
 10
244.172551
 20
218.614977
 30
0.0
 10
244.299904
 20
218.614977
 30
0.0
  0
LWPOLYLINE
  5
22b
100
AcDbEntity
  8
0
 62
7
100
AcDbPolyline
 90
3
 70
0
 10
172.757129
 20
218.615288
 30
0.0
 10
201.185430
 20
218.615288
 30
0.0
 10
238.643476
 20
218.614977
 30
0.0
  0
SPLINE
  5
22c
100
AcDbEntity
  8
0
 62
7
100
AcDbSpline
 70
8
 71
3
 72
8
 73
4
 74
0
 40
0
 40
0
 40
0
 40
0
 40
1
 40
1
 40
1
 40
1
 10
244.800140
 20
218.614977
 30
0.0
 10
245.352587
 20
218.614977
 30
0.0
 10
245.799912
 20
218.167302
 30
0.0
 10
245.799912
 20
217.615205
 30
0.0
  0
LWPOLYLINE
  5
22d
100
AcDbEntity
  8
0
 62
7
100
AcDbPolyline
 90
2
 70
0
 10
244.299904
 20
218.614977
 30
0.0
 10
244.800140
 20
218.614977
 30
0.0
  0
SPLINE
  5
22e
100
AcDbEntity
  8
0
 62
7
100
AcDbSpline
 70
8
 71
3
 72
8
 73
4
 74
0
 40
0
 40
0
 40
0
 40
0
 40
1
 40
1
 40
1
 40
1
 10
248.949856
 20
217.365086
 30
0.0
 10
249.985606
 20
217.365086
 30
0.0
 10
250.824515
 20
216.525827
 30
0.0
 10
250.824515
 20
215.490424
 30
0.0
  0
SPLINE
  5
22f
100
AcDbEntity
  8
0
 62
7
100
AcDbSpline
 70
8
 71
3
 72
8
 73
4
 74
0
 40
0
 40
0
 40
0
 40
0
 40
1
 40
1
 40
1
 40
1
 10
250.824515
 20
215.490424
 30
0.0
 10
250.824515
 20
214.455022
 30
0.0
 10
249.985256
 20
213.615763
 30
0.0
 10
248.949856
 20
213.615763
 30
0.0
  0
LWPOLYLINE
  5
230
100
AcDbEntity
  8
0
 62
7
100
AcDbPolyline
 90
4
 70
0
 10
245.799912
 20
217.615205
 30
0.0
 10
245.799912
 20
216.215030
 30
0.0
 10
248.949856
 20
216.215030
 30
0.0
 10
248.949856
 20
217.365086
 30
0.0
  0
SPLINE
  5
231
100
AcDbEntity
  8
0
 62
7
100
AcDbSpline
 70
8
 71
3
 72
8
 73
4
 74
0
 40
0
 40
0
 40
0
 40
0
 40
1
 40
1
 40
1
 40
1
 10
245.799912
 20
213.615481
 30
0.0
 10
242.666193
 20
213.615481
 30
0.0
 10
240.140307
 20
214.077620
 30
0.0
 10
238.524237
 20
214.698862
 30
0.0
  0
SPLINE
  5
232
100
AcDbEntity
  8
0
 62
7
100
AcDbSpline
 70
8
 71
3
 72
8
 73
4
 74
0
 40
0
 40
0
 40
0
 40
0
 40
1
 40
1
 40
1
 40
1
 10
238.524237
 20
214.698862
 30
0.0
 10
236.873240
 20
215.334214
 30
0.0
 10
234.166029
 20
215.865498
 30
0.0
 10
230.800185
 20
215.865498
 30
0.0
  0
SPLINE
  5
233
100
AcDbEntity
  8
0
 62
7
100
AcDbSpline
 70
8
 71
3
 72
8
 73
4
 74
0
 40
0
 40
0
 40
0
 40
0
 40
1
 40
1
 40
1
 40
1
 10
230.800185
 20
215.865498
 30
0.0
 10
230.454815
 20
215.865498
 30
0.0
 10
230.175415
 20
215.585745
 30
0.0
 10
230.175415
 20
215.240728
 30
0.0
  0
LWPOLYLINE
  5
234
100
AcDbEntity
  8
0
 62
7
100
AcDbPolyline
 90
2
 70
0
 10
248.949856
 20
213.615763
 30
0.0
 10
245.799912
 20
213.615481
 30
0.0
  0
SPLINE
  5
235
100
AcDbEntity
  8
0
 62
7
100
AcDbSpline
 70
8
 71
3
 72
8
 73
4
 74
0
 40
0
 40
0
 40
0
 40
0
 40
1
 40
1
 40
1
 40
1
 10
230.175415
 20
215.240728
 30
0.0
 10
230.175415
 20
214.895359
 30
0.0
 10
230.455168
 20
214.615959
 30
0.0
 10
230.800185
 20
214.615959
 30
0.0
  0
SPLINE
  5
236
100
AcDbEntity
  8
0
 62
7
100
AcDbSpline
 70
8
 71
3
 72
8
 73
4
 74
0
 40
0
 40
0
 40
0
 40
0
 40
1
 40
1
 40
1
 40
1
 10
230.800185
 20
214.615959
 30
0.0
 10
233.933901
 20
214.615959
 30
0.0
 10
236.459787
 20
214.154173
 30
0.0
 10
238.075504
 20
213.532931
 30
0.0
  0
SPLINE
  5
237
100
AcDbEntity
  8
0
 62
7
100
AcDbSpline
 70
8
 71
3
 72
8
 73
4
 74
0
 40
0
 40
0
 40
0
 40
0
 40
1
 40
1
 40
1
 40
1
 10
238.075504
 20
213.532931
 30
0.0
 10
239.726501
 20
212.897578
 30
0.0
 10
242.433712
 20
212.365610
 30
0.0
 10
245.799559
 20
212.365942
 30
0.0
  0
LWPOLYLINE
  5
238
100
AcDbEntity
  8
0
 62
7
100
AcDbPolyline
 90
2
 70
0
 10
230.175415
 20
215.240728
 30
0.0
 10
230.175415
 20
215.240728
 30
0.0
  0
SPLINE
  5
239
100
AcDbEntity
  8
0
 62
7
100
AcDbSpline
 70
8
 71
3
 72
8
 73
4
 74
0
 40
0
 40
0
 40
0
 40
0
 40
1
 40
1
 40
1
 40
1
 10
248.949501
 20
209.115800
 30
0.0
 10
248.949501
 20
208.563703
 30
0.0
 10
248.502181
 20
208.115675
 30
0.0
 10
247.949731
 20
208.115675
 30
0.0
  0
LWPOLYLINE
  5
23a
100
AcDbEntity
  8
0
 62
7
100
AcDbPolyline
 90
3
 70
0
 10
245.799559
 20
212.365942
 30
0.0
 10
248.949501
 20
212.365942
 30
0.0
 10
248.949501
 20
209.115800
 30
0.0
  0
SPLINE
  5
23b
100
AcDbEntity
  8
0
 62
7
100
AcDbSpline
 70
8
 71
3
 72
8
 73
4
 74
0
 40
0
 40
0
 40
0
 40
0
 40
1
 40
1
 40
1
 40
1
 10
247.949731
 20
187.816079
 30
0.0
 10
248.502181
 20
187.816079
 30
0.0
 10
248.949501
 20
187.368051
 30
0.0
 10
248.949501
 20
186.815954
 30
0.0
  0
LWPOLYLINE
  5
23c
100
AcDbEntity
  8
0
 62
7
100
AcDbPolyline
 90
4
 70
0
 10
247.949731
 20
208.115675
 30
0.0
 10
245.849298
 20
208.115675
 30
0.0
 10
245.849298
 20
187.816079
 30
0.0
 10
247.949731
 20
187.816079
 30
0.0
  0
SPLINE
  5
23d
100
AcDbEntity
  8
0
 62
7
100
AcDbSpline
 70
8
 71
3
 72
8
 73
4
 74
0
 40
0
 40
0
 40
0
 40
0
 40
1
 40
1
 40
1
 40
1
 10
248.949501
 20
182.315921
 30
0.0
 10
249.985253
 20
182.315921
 30
0.0
 10
250.824159
 20
181.476309
 30
0.0
 10
250.824159
 20
180.440906
 30
0.0
  0
SPLINE
  5
23e
100
AcDbEntity
  8
0
 62
7
100
AcDbSpline
 70
8
 71
3
 72
8
 73
4
 74
0
 40
0
 40
0
 40
0
 40
0
 40
1
 40
1
 40
1
 40
1
 10
250.824159
 20
180.440906
 30
0.0
 10
250.824159
 20
179.405503
 30
0.0
 10
249.984901
 20
178.566245
 30
0.0
 10
248.949501
 20
178.566245
 30
0.0
  0
LWPOLYLINE
  5
23f
100
AcDbEntity
  8
0
 62
7
100
AcDbPolyline
 90
2
 70
0
 10
248.949501
 20
186.815954
 30
0.0
 10
248.949501
 20
182.315921
 30
0.0
  0
SPLINE
  5
240
100
AcDbEntity
  8
0
 62
7
100
AcDbSpline
 70
8
 71
3
 72
8
 73
4
 74
0
 40
0
 40
0
 40
0
 40
0
 40
1
 40
1
 40
1
 40
1
 10
245.799204
 20
178.316125
 30
0.0
 10
245.799204
 20
177.764381
 30
0.0
 10
245.351884
 20
177.316350
 30
0.0
 10
244.799431
 20
177.316353
 30
0.0
  0
LWPOLYLINE
  5
241
100
AcDbEntity
  8
0
 62
7
100
AcDbPolyline
 90
4
 70
0
 10
248.949501
 20
178.566245
 30
0.0
 10
248.949501
 20
179.716300
 30
0.0
 10
245.799204
 20
179.716300
 30
0.0
 10
245.799204
 20
178.316125
 30
0.0
  0
SPLINE
  5
242
100
AcDbEntity
  8
0
 62
7
100
AcDbSpline
 70
8
 71
3
 72
8
 73
4
 74
0
 40
0
 40
0
 40
0
 40
0
 40
1
 40
1
 40
1
 40
1
 10
166.600113
 20
177.316635
 30
0.0
 10
166.047663
 20
177.316638
 30
0.0
 10
165.600340
 20
177.764663
 30
0.0
 10
165.600340
 20
178.316407
 30
0.0
  0
LWPOLYLINE
  5
243
100
AcDbEntity
  8
0
 62
7
100
AcDbPolyline
 90
2
 70
0
 10
244.799431
 20
177.316353
 30
0.0
 10
166.600113
 20
177.316635
 30
0.0
  0
SPLINE
  5
244
100
AcDbEntity
  8
0
 62
7
100
AcDbSpline
 70
8
 71
3
 72
8
 73
4
 74
0
 40
0
 40
0
 40
0
 40
0
 40
1
 40
1
 40
1
 40
1
 10
162.600327
 20
178.566527
 30
0.0
 10
161.564571
 20
178.566527
 30
0.0
 10
160.724963
 20
179.405785
 30
0.0
 10
160.724963
 20
180.441188
 30
0.0
  0
SPLINE
  5
245
100
AcDbEntity
  8
0
 62
7
100
AcDbSpline
 70
8
 71
3
 72
8
 73
4
 74
0
 40
0
 40
0
 40
0
 40
0
 40
1
 40
1
 40
1
 40
1
 10
160.724963
 20
180.441188
 30
0.0
 10
160.724963
 20
181.476591
 30
0.0
 10
161.564924
 20
182.316204
 30
0.0
 10
162.600327
 20
182.316204
 30
0.0
  0
LWPOLYLINE
  5
246
100
AcDbEntity
  8
0
 62
7
100
AcDbPolyline
 90
4
 70
0
 10
165.600340
 20
178.316407
 30
0.0
 10
165.600340
 20
179.716582
 30
0.0
 10
162.600327
 20
179.716582
 30
0.0
 10
162.600327
 20
178.566527
 30
0.0
  0
LWPOLYLINE
  5
247
100
AcDbEntity
  8
0
 62
7
100
AcDbPolyline
 90
2
 70
0
 10
162.600327
 20
182.316204
 30
0.0
 10
162.600327
 20
186.815558
 30
0.0
  0
ENDSEC
  0
SECTION
  2
OBJECTS
  0
DICTIONARY
  5
C
330
0
100
AcDbDictionary
  3
ACAD_GROUP
350
D
  3
ACAD_MLINESTYLE
350
17
  0
DICTIONARY
  5
D
330
C
100
AcDbDictionary
  0
DICTIONARY
  5
1A
330
C
100
AcDbDictionary
  0
DICTIONARY
  5
17
330
C
100
AcDbDictionary
  3
STANDARD
350
18
  0
DICTIONARY
  5
19
330
C
100
AcDbDictionary
  0
ENDSEC
  0
EOF
