  0
SECTION
  2
HEADER
  9
$ACADVER
  1
AC1014
  9
$HANDSEED
  5
FFFF
  9
$MEASUREMENT
 70
     1
  0
ENDSEC
  0
SECTION
  2
TABLES
  0
TABLE
  2
VPORT
  5
8
330
0
100
AcDbSymbolTable
 70
     4
  0
VPORT
  5
2E
330
8
100
AcDbSymbolTableRecord
100
AcDbViewportTableRecord
  2
*ACTIVE
 70
     0
 10
0.0
 20
0.0
 11
1.0
 21
1.0
 12
210.0
 22
148.5
 13
0.0
 23
0.0
 14
10.0
 24
10.0
 15
10.0
 25
10.0
 16
0.0
 26
0.0
 36
1.0
 17
0.0
 27
0.0
 37
0.0
 40
341.0
 41
1.24
 42
50.0
 43
0.0
 44
0.0
 50
0.0
 51
0.0
 71
     0
 72
   100
 73
     1
 74
     3
 75
     0
 76
     0
 77
     0
 78
     0
  0
ENDTAB
  0
TABLE
  2
LTYPE
  5
5
330
0
100
AcDbSymbolTable
 70
     1
  0
LTYPE
  5
14
330
5
100
AcDbSymbolTableRecord
100
AcDbLinetypeTableRecord
  2
BYBLOCK
 70
     0
  3

 72
    65
 73
     0
 40
0.0
  0
LTYPE
  5
15
330
5
100
AcDbSymbolTableRecord
100
AcDbLinetypeTableRecord
  2
BYLAYER
 70
     0
  3

 72
    65
 73
     0
 40
0.0
  0
LTYPE
  5
16
330
5
100
AcDbSymbolTableRecord
100
AcDbLinetypeTableRecord
  2
CONTINUOUS
 70
     0
  3
Solid line
 72
    65
 73
     0
 40
0.0
  0
ENDTAB
  0
TABLE
  2
LAYER
  5
2
100
AcDbSymbolTable
 70
1
  0
LAYER
  5
50
100
AcDbSymbolTableRecord
100
AcDbLayerTableRecord
  2
0
 70
0
  6
CONTINUOUS
  0
ENDTAB
  0
TABLE
  2
STYLE
  5
3
330
0
100
AcDbSymbolTable
 70
     1
  0
STYLE
  5
11
330
3
100
AcDbSymbolTableRecord
100
AcDbTextStyleTableRecord
  2
STANDARD
 70
     0
 40
0.0
 41
1.0
 50
0.0
 71
     0
 42
2.5
  3
txt
  4

  0
ENDTAB
  0
TABLE
  2
VIEW
  5
6
330
0
100
AcDbSymbolTable
 70
     0
  0
ENDTAB
  0
TABLE
  2
UCS
  5
7
330
0
100
AcDbSymbolTable
 70
     0
  0
ENDTAB
  0
TABLE
  2
APPID
  5
9
330
0
100
AcDbSymbolTable
 70
     2
  0
APPID
  5
12
330
9
100
AcDbSymbolTableRecord
100
AcDbRegAppTableRecord
  2
ACAD
 70
     0
  0
ENDTAB
  0
TABLE
  2
DIMSTYLE
  5
A
330
0
100
AcDbSymbolTable
 70
     1
  0
DIMSTYLE
105
27
330
A
100
AcDbSymbolTableRecord
100
AcDbDimStyleTableRecord
  2
ISO-25
 70
     0
  3

  4

  5

  6

  7

 40
1.0
 41
2.5
 42
0.625
 43
3.75
 44
1.25
 45
0.0
 46
0.0
 47
0.0
 48
0.0
140
2.5
141
2.5
142
0.0
143
0.03937007874016
144
1.0
145
0.0
146
1.0
147
0.625
 71
     0
 72
     0
 73
     0
 74
     0
 75
     0
 76
     0
 77
     1
 78
     8
170
     0
171
     3
172
     1
173
     0
174
     0
175
     0
176
     0
177
     0
178
     0
270
     2
271
     2
272
     2
273
     2
274
     3
340
11
275
     0
280
     0
281
     0
282
     0
283
     0
284
     8
285
     0
286
     0
287
     3
288
     0
  0
ENDTAB
  0
TABLE
  2
BLOCK_RECORD
  5
1
330
0
100
AcDbSymbolTable
 70
     1
  0
BLOCK_RECORD
  5
1F
330
1
100
AcDbSymbolTableRecord
100
AcDbBlockTableRecord
  2
*MODEL_SPACE
  0
BLOCK_RECORD
  5
1B
330
1
100
AcDbSymbolTableRecord
100
AcDbBlockTableRecord
  2
*PAPER_SPACE
  0
ENDTAB
  0
ENDSEC
  0
SECTION
  2
BLOCKS
  0
BLOCK
  5
20
330
1F
100
AcDbEntity
  8
0
100
AcDbBlockBegin
  2
*MODEL_SPACE
 70
     0
 10
0.0
 20
0.0
 30
0.0
  3
*MODEL_SPACE
  1

  0
ENDBLK
  5
21
330
1F
100
AcDbEntity
  8
0
100
AcDbBlockEnd
  0
BLOCK
  5
1C
330
1B
100
AcDbEntity
 67
     1
  8
0
100
AcDbBlockBegin
  2
*PAPER_SPACE
  1

  0
ENDBLK
  5
1D
330
1B
100
AcDbEntity
 67
     1
  8
0
100
AcDbBlockEnd
  0
ENDSEC
  0
SECTION
  2
ENTITIES
  0
SPLINE
  5
100
100
AcDbEntity
  8
0
 62
7
100
AcDbSpline
 70
8
 71
3
 72
8
 73
4
 74
0
 40
0
 40
0
 40
0
 40
0
 40
1
 40
1
 40
1
 40
1
 10
-22.074804
 20
134.415349
 30
0.0
 10
-23.179346
 20
134.415349
 30
0.0
 10
-24.075040
 20
135.311052
 30
0.0
 10
-24.075040
 20
136.415602
 30
0.0
  0
SPLINE
  5
101
100
AcDbEntity
  8
0
 62
7
100
AcDbSpline
 70
8
 71
3
 72
8
 73
4
 74
0
 40
0
 40
0
 40
0
 40
0
 40
1
 40
1
 40
1
 40
1
 10
-24.075040
 20
141.415169
 30
0.0
 10
-24.075040
 20
142.519716
 30
0.0
 10
-23.179346
 20
143.415419
 30
0.0
 10
-22.074804
 20
143.415419
 30
0.0
  0
LWPOLYLINE
  5
102
100
AcDbEntity
  8
0
 62
7
100
AcDbPolyline
 90
2
 70
0
 10
-24.075040
 20
136.415602
 30
0.0
 10
-24.075040
 20
141.415169
 30
0.0
  0
SPLINE
  5
103
100
AcDbEntity
  8
0
 62
7
100
AcDbSpline
 70
8
 71
3
 72
8
 73
4
 74
0
 40
0
 40
0
 40
0
 40
0
 40
1
 40
1
 40
1
 40
1
 10
-14.074570
 20
143.415419
 30
0.0
 10
-12.970030
 20
143.415419
 30
0.0
 10
-12.075039
 20
142.519716
 30
0.0
 10
-12.075039
 20
141.415169
 30
0.0
  0
LWPOLYLINE
  5
104
100
AcDbEntity
  8
0
 62
7
100
AcDbPolyline
 90
2
 70
0
 10
-22.074804
 20
143.415419
 30
0.0
 10
-14.074570
 20
143.415419
 30
0.0
  0
SPLINE
  5
105
100
AcDbEntity
  8
0
 62
7
100
AcDbSpline
 70
8
 71
3
 72
8
 73
4
 74
0
 40
0
 40
0
 40
0
 40
0
 40
1
 40
1
 40
1
 40
1
 10
-12.075039
 20
136.415602
 30
0.0
 10
-12.075039
 20
135.311052
 30
0.0
 10
-12.970030
 20
134.415349
 30
0.0
 10
-14.074570
 20
134.415349
 30
0.0
  0
LWPOLYLINE
  5
106
100
AcDbEntity
  8
0
 62
7
100
AcDbPolyline
 90
2
 70
0
 10
-12.075039
 20
141.415169
 30
0.0
 10
-12.075039
 20
136.415602
 30
0.0
  0
LWPOLYLINE
  5
107
100
AcDbEntity
  8
0
 62
7
100
AcDbPolyline
 90
3
 70
0
 10
-14.074570
 20
134.415349
 30
0.0
 10
-22.074804
 20
134.415349
 30
0.0
 10
-22.074804
 20
134.415349
 30
0.0
  0
LWPOLYLINE
  5
108
100
AcDbEntity
  8
0
 62
7
100
AcDbPolyline
 90
5
 70
0
 10
58.324950
 20
210.115651
 30
0.0
 10
61.324950
 20
210.115651
 30
0.0
 10
61.324950
 20
202.115356
 30
0.0
 10
58.324950
 20
202.115356
 30
0.0
 10
58.324950
 20
210.115651
 30
0.0
  0
LWPOLYLINE
  5
109
100
AcDbEntity
  8
0
 62
7
100
AcDbPolyline
 90
5
 70
0
 10
58.324950
 20
181.515506
 30
0.0
 10
61.324950
 20
181.515506
 30
0.0
 10
61.324950
 20
173.515212
 30
0.0
 10
58.324950
 20
173.515212
 30
0.0
 10
58.324950
 20
181.515506
 30
0.0
  0
LWPOLYLINE
  5
10a
100
AcDbEntity
  8
0
 62
7
100
AcDbPolyline
 90
5
 70
0
 10
143.124936
 20
210.115651
 30
0.0
 10
146.124936
 20
210.115651
 30
0.0
 10
146.124936
 20
202.115356
 30
0.0
 10
143.124936
 20
202.115356
 30
0.0
 10
143.124936
 20
210.115651
 30
0.0
  0
SPLINE
  5
10b
100
AcDbEntity
  8
0
 62
7
100
AcDbSpline
 70
8
 71
3
 72
8
 73
4
 74
0
 40
0
 40
0
 40
0
 40
0
 40
1
 40
1
 40
1
 40
1
 10
56.324963
 20
209.615254
 30
0.0
 10
56.324963
 20
211.272251
 30
0.0
 10
57.668688
 20
212.615272
 30
0.0
 10
59.324968
 20
212.615276
 30
0.0
  0
LWPOLYLINE
  5
10c
100
AcDbEntity
  8
0
 62
7
100
AcDbPolyline
 90
6
 70
0
 10
143.124936
 20
181.515506
 30
0.0
 10
146.124936
 20
181.515583
 30
0.0
 10
146.124936
 20
173.515288
 30
0.0
 10
143.124936
 20
173.515212
 30
0.0
 10
143.124936
 20
176.538520
 30
0.0
 10
143.124936
 20
181.515506
 30
0.0
  0
SPLINE
  5
10d
100
AcDbEntity
  8
0
 62
7
100
AcDbSpline
 70
8
 71
3
 72
8
 73
4
 74
0
 40
0
 40
0
 40
0
 40
0
 40
1
 40
1
 40
1
 40
1
 10
145.124918
 20
212.615457
 30
0.0
 10
146.781198
 20
212.615460
 30
0.0
 10
148.124920
 20
211.272432
 30
0.0
 10
148.124920
 20
209.615434
 30
0.0
  0
LWPOLYLINE
  5
10e
100
AcDbEntity
  8
0
 62
7
100
AcDbPolyline
 90
2
 70
0
 10
59.324968
 20
212.615276
 30
0.0
 10
145.124918
 20
212.615457
 30
0.0
  0
SPLINE
  5
10f
100
AcDbEntity
  8
0
 62
7
100
AcDbSpline
 70
8
 71
3
 72
8
 73
4
 74
0
 40
0
 40
0
 40
0
 40
0
 40
1
 40
1
 40
1
 40
1
 10
148.124920
 20
173.515457
 30
0.0
 10
148.124920
 20
170.753910
 30
0.0
 10
145.886210
 20
168.515535
 30
0.0
 10
143.124685
 20
168.515535
 30
0.0
  0
SPLINE
  5
110
100
AcDbEntity
  8
0
 62
7
100
AcDbSpline
 70
8
 71
3
 72
8
 73
4
 74
0
 40
0
 40
0
 40
0
 40
0
 40
1
 40
1
 40
1
 40
1
 10
143.124685
 20
168.515535
 30
0.0
 10
141.275082
 20
168.515535
 30
0.0
 10
139.663957
 20
169.522363
 30
0.0
 10
138.798952
 20
171.015321
 30
0.0
  0
LWPOLYLINE
  5
111
100
AcDbEntity
  8
0
 62
7
100
AcDbPolyline
 90
2
 70
0
 10
148.124920
 20
209.615434
 30
0.0
 10
148.124920
 20
173.515457
 30
0.0
  0
SPLINE
  5
112
100
AcDbEntity
  8
0
 62
7
100
AcDbSpline
 70
8
 71
3
 72
8
 73
4
 74
0
 40
0
 40
0
 40
0
 40
0
 40
1
 40
1
 40
1
 40
1
 10
65.650934
 20
171.015141
 30
0.0
 10
64.786281
 20
169.522182
 30
0.0
 10
63.175159
 20
168.515355
 30
0.0
 10
61.325201
 20
168.515355
 30
0.0
  0
SPLINE
  5
113
100
AcDbEntity
  8
0
 62
7
100
AcDbSpline
 70
8
 71
3
 72
8
 73
4
 74
0
 40
0
 40
0
 40
0
 40
0
 40
1
 40
1
 40
1
 40
1
 10
61.325201
 20
168.515355
 30
0.0
 10
58.563677
 20
168.515355
 30
0.0
 10
56.324963
 20
170.753730
 30
0.0
 10
56.324963
 20
173.515277
 30
0.0
  0
LWPOLYLINE
  5
114
100
AcDbEntity
  8
0
 62
7
100
AcDbPolyline
 90
2
 70
0
 10
138.798952
 20
171.015321
 30
0.0
 10
65.650934
 20
171.015141
 30
0.0
  0
SPLINE
  5
115
100
AcDbEntity
  8
0
 62
7
100
AcDbSpline
 70
8
 71
3
 72
8
 73
4
 74
0
 40
0
 40
0
 40
0
 40
0
 40
1
 40
1
 40
1
 40
1
 10
119.725025
 20
46.864228
 30
0.0
 10
118.620478
 20
46.864228
 30
0.0
 10
117.973139
 20
47.788215
 30
0.0
 10
117.724775
 20
48.864478
 30
0.0
  0
LWPOLYLINE
  5
116
100
AcDbEntity
  8
0
 62
7
100
AcDbPolyline
 90
2
 70
0
 10
56.324963
 20
173.515277
 30
0.0
 10
56.324963
 20
209.615254
 30
0.0
  0
SPLINE
  5
117
100
AcDbEntity
  8
0
 62
7
100
AcDbSpline
 70
8
 71
3
 72
8
 73
4
 74
0
 40
0
 40
0
 40
0
 40
0
 40
1
 40
1
 40
1
 40
1
 10
114.724900
 20
61.864226
 30
0.0
 10
114.476538
 20
62.940489
 30
0.0
 10
115.620602
 20
63.864476
 30
0.0
 10
116.725150
 20
63.864476
 30
0.0
  0
LWPOLYLINE
  5
118
100
AcDbEntity
  8
0
 62
7
100
AcDbPolyline
 90
2
 70
0
 10
117.724775
 20
48.864478
 30
0.0
 10
114.724900
 20
61.864226
 30
0.0
  0
SPLINE
  5
119
100
AcDbEntity
  8
0
 62
7
100
AcDbSpline
 70
8
 71
3
 72
8
 73
4
 74
0
 40
0
 40
0
 40
0
 40
0
 40
1
 40
1
 40
1
 40
1
 10
161.325190
 20
63.864476
 30
0.0
 10
162.429738
 20
63.864476
 30
0.0
 10
163.324735
 20
62.968773
 30
0.0
 10
163.324735
 20
61.864226
 30
0.0
  0
SPLINE
  5
11a
100
AcDbEntity
  8
0
 62
7
100
AcDbSpline
 70
8
 71
3
 72
8
 73
4
 74
0
 40
0
 40
0
 40
0
 40
0
 40
1
 40
1
 40
1
 40
1
 10
163.324735
 20
61.864226
 30
0.0
 10
163.324735
 20
60.197704
 30
0.0
 10
163.324735
 20
50.531000
 30
0.0
 10
163.324735
 20
48.864478
 30
0.0
  0
SPLINE
  5
11b
100
AcDbEntity
  8
0
 62
7
100
AcDbSpline
 70
8
 71
3
 72
8
 73
4
 74
0
 40
0
 40
0
 40
0
 40
0
 40
1
 40
1
 40
1
 40
1
 10
163.324735
 20
48.864478
 30
0.0
 10
163.324735
 20
47.759930
 30
0.0
 10
162.429738
 20
46.864228
 30
0.0
 10
161.325190
 20
46.864228
 30
0.0
  0
LWPOLYLINE
  5
11c
100
AcDbEntity
  8
0
 62
7
100
AcDbPolyline
 90
2
 70
0
 10
116.725150
 20
63.864476
 30
0.0
 10
161.325190
 20
63.864476
 30
0.0
  0
SPLINE
  5
11d
100
AcDbEntity
  8
0
 62
7
100
AcDbSpline
 70
8
 71
3
 72
8
 73
4
 74
0
 40
0
 40
0
 40
0
 40
0
 40
1
 40
1
 40
1
 40
1
 10
-36.774676
 20
156.616225
 30
0.0
 10
-36.774676
 20
156.064128
 30
0.0
 10
-36.327357
 20
155.616100
 30
0.0
 10
-35.774907
 20
155.616100
 30
0.0
  0
LWPOLYLINE
  5
11e
100
AcDbEntity
  8
0
 62
7
100
AcDbPolyline
 90
2
 70
0
 10
161.325190
 20
46.864228
 30
0.0
 10
119.725025
 20
46.864228
 30
0.0
  0
SPLINE
  5
11f
100
AcDbEntity
  8
0
 62
7
100
AcDbSpline
 70
8
 71
3
 72
8
 73
4
 74
0
 40
0
 40
0
 40
0
 40
0
 40
1
 40
1
 40
1
 40
1
 10
-35.774907
 20
135.316502
 30
0.0
 10
-36.327357
 20
135.316502
 30
0.0
 10
-36.774676
 20
134.868474
 30
0.0
 10
-36.774676
 20
134.316377
 30
0.0
  0
LWPOLYLINE
  5
120
100
AcDbEntity
  8
0
 62
7
100
AcDbPolyline
 90
4
 70
0
 10
-35.774907
 20
155.616100
 30
0.0
 10
-33.824757
 20
155.616100
 30
0.0
 10
-33.824757
 20
135.316502
 30
0.0
 10
-35.774907
 20
135.316502
 30
0.0
  0
SPLINE
  5
121
100
AcDbEntity
  8
0
 62
7
100
AcDbSpline
 70
8
 71
3
 72
8
 73
4
 74
0
 40
0
 40
0
 40
0
 40
0
 40
1
 40
1
 40
1
 40
1
 10
-33.774662
 20
131.066235
 30
0.0
 10
-30.408815
 20
131.066235
 30
0.0
 10
-27.701604
 20
130.534599
 30
0.0
 10
-26.050610
 20
129.899246
 30
0.0
  0
SPLINE
  5
122
100
AcDbEntity
  8
0
 62
7
100
AcDbSpline
 70
8
 71
3
 72
8
 73
4
 74
0
 40
0
 40
0
 40
0
 40
0
 40
1
 40
1
 40
1
 40
1
 10
-26.050610
 20
129.899246
 30
0.0
 10
-24.434891
 20
129.277652
 30
0.0
 10
-21.909007
 20
128.816219
 30
0.0
 10
-18.774582
 20
128.816219
 30
0.0
  0
SPLINE
  5
123
100
AcDbEntity
  8
0
 62
7
100
AcDbSpline
 70
8
 71
3
 72
8
 73
4
 74
0
 40
0
 40
0
 40
0
 40
0
 40
1
 40
1
 40
1
 40
1
 10
-18.774582
 20
128.816219
 30
0.0
 10
-18.429214
 20
128.816219
 30
0.0
 10
-18.149814
 20
128.536466
 30
0.0
 10
-18.149814
 20
128.191449
 30
0.0
  0
LWPOLYLINE
  5
124
100
AcDbEntity
  8
0
 62
7
100
AcDbPolyline
 90
3
 70
0
 10
-36.774676
 20
134.316377
 30
0.0
 10
-36.774676
 20
131.066235
 30
0.0
 10
-33.774662
 20
131.066235
 30
0.0
  0
SPLINE
  5
125
100
AcDbEntity
  8
0
 62
7
100
AcDbSpline
 70
8
 71
3
 72
8
 73
4
 74
0
 40
0
 40
0
 40
0
 40
0
 40
1
 40
1
 40
1
 40
1
 10
-18.149814
 20
128.191449
 30
0.0
 10
-18.149814
 20
127.846080
 30
0.0
 10
-18.429566
 20
127.566680
 30
0.0
 10
-18.774582
 20
127.566680
 30
0.0
  0
SPLINE
  5
126
100
AcDbEntity
  8
0
 62
7
100
AcDbSpline
 70
8
 71
3
 72
8
 73
4
 74
0
 40
0
 40
0
 40
0
 40
0
 40
1
 40
1
 40
1
 40
1
 10
-18.774582
 20
127.566680
 30
0.0
 10
-22.140427
 20
127.566680
 30
0.0
 10
-24.848343
 20
128.097963
 30
0.0
 10
-26.498988
 20
128.733316
 30
0.0
  0
SPLINE
  5
127
100
AcDbEntity
  8
0
 62
7
100
AcDbSpline
 70
8
 71
3
 72
8
 73
4
 74
0
 40
0
 40
0
 40
0
 40
0
 40
1
 40
1
 40
1
 40
1
 10
-26.498988
 20
128.733316
 30
0.0
 10
-28.114707
 20
129.354910
 30
0.0
 10
-30.640590
 20
129.816696
 30
0.0
 10
-33.774309
 20
129.816696
 30
0.0
  0
LWPOLYLINE
  5
128
100
AcDbEntity
  8
0
 62
7
100
AcDbPolyline
 90
2
 70
0
 10
-18.149814
 20
128.191449
 30
0.0
 10
-18.149814
 20
128.191449
 30
0.0
  0
SPLINE
  5
129
100
AcDbEntity
  8
0
 62
7
100
AcDbSpline
 70
8
 71
3
 72
8
 73
4
 74
0
 40
0
 40
0
 40
0
 40
0
 40
1
 40
1
 40
1
 40
1
 10
-36.774323
 20
129.816414
 30
0.0
 10
-37.810079
 20
129.816414
 30
0.0
 10
-38.649687
 20
128.977156
 30
0.0
 10
-38.649687
 20
127.941753
 30
0.0
  0
SPLINE
  5
12a
100
AcDbEntity
  8
0
 62
7
100
AcDbSpline
 70
8
 71
3
 72
8
 73
4
 74
0
 40
0
 40
0
 40
0
 40
0
 40
1
 40
1
 40
1
 40
1
 10
-38.649687
 20
127.941753
 30
0.0
 10
-38.649687
 20
126.906350
 30
0.0
 10
-37.809726
 20
126.067092
 30
0.0
 10
-36.774323
 20
126.067092
 30
0.0
  0
LWPOLYLINE
  5
12b
100
AcDbEntity
  8
0
 62
7
100
AcDbPolyline
 90
2
 70
0
 10
-33.774309
 20
129.816696
 30
0.0
 10
-36.774323
 20
129.816414
 30
0.0
  0
SPLINE
  5
12c
100
AcDbEntity
  8
0
 62
7
100
AcDbSpline
 70
8
 71
3
 72
8
 73
4
 74
0
 40
0
 40
0
 40
0
 40
0
 40
1
 40
1
 40
1
 40
1
 10
-33.774309
 20
125.816267
 30
0.0
 10
-33.774309
 20
125.264170
 30
0.0
 10
-33.326987
 20
124.816495
 30
0.0
 10
-32.774537
 20
124.816495
 30
0.0
  0
LWPOLYLINE
  5
12d
100
AcDbEntity
  8
0
 62
7
100
AcDbPolyline
 90
4
 70
0
 10
-36.774323
 20
126.067092
 30
0.0
 10
-36.774323
 20
127.217147
 30
0.0
 10
-33.774309
 20
127.217147
 30
0.0
 10
-33.774309
 20
125.816267
 30
0.0
  0
SPLINE
  5
12e
100
AcDbEntity
  8
0
 62
7
100
AcDbSpline
 70
8
 71
3
 72
8
 73
4
 74
0
 40
0
 40
0
 40
0
 40
0
 40
1
 40
1
 40
1
 40
1
 10
-32.274301
 20
124.816495
 30
0.0
 10
-32.146948
 20
124.816495
 30
0.0
 10
-32.018537
 20
124.865531
 30
0.0
 10
-31.920818
 20
124.962897
 30
0.0
  0
SPLINE
  5
12f
100
AcDbEntity
  8
0
 62
7
100
AcDbSpline
 70
8
 71
3
 72
8
 73
4
 74
0
 40
0
 40
0
 40
0
 40
0
 40
1
 40
1
 40
1
 40
1
 10
-31.920818
 20
124.962897
 30
0.0
 10
-31.725732
 20
125.158336
 30
0.0
 10
-31.409643
 20
125.158336
 30
0.0
 10
-31.213854
 20
124.962897
 30
0.0
  0
SPLINE
  5
130
100
AcDbEntity
  8
0
 62
7
100
AcDbSpline
 70
8
 71
3
 72
8
 73
4
 74
0
 40
0
 40
0
 40
0
 40
0
 40
1
 40
1
 40
1
 40
1
 10
-31.213854
 20
124.962897
 30
0.0
 10
-31.018768
 20
124.767459
 30
0.0
 10
-30.701973
 20
124.767459
 30
0.0
 10
-30.506887
 20
124.963180
 30
0.0
  0
SPLINE
  5
131
100
AcDbEntity
  8
0
 62
7
100
AcDbSpline
 70
8
 71
3
 72
8
 73
4
 74
0
 40
0
 40
0
 40
0
 40
0
 40
1
 40
1
 40
1
 40
1
 10
-30.506887
 20
124.963180
 30
0.0
 10
-30.311801
 20
125.158266
 30
0.0
 10
-29.995007
 20
125.158266
 30
0.0
 10
-29.799923
 20
124.962897
 30
0.0
  0
SPLINE
  5
132
100
AcDbEntity
  8
0
 62
7
100
AcDbSpline
 70
8
 71
3
 72
8
 73
4
 74
0
 40
0
 40
0
 40
0
 40
0
 40
1
 40
1
 40
1
 40
1
 10
-29.799923
 20
124.962897
 30
0.0
 10
-29.604837
 20
124.767459
 30
0.0
 10
-29.288043
 20
124.767459
 30
0.0
 10
-29.092957
 20
124.963180
 30
0.0
  0
SPLINE
  5
133
100
AcDbEntity
  8
0
 62
7
100
AcDbSpline
 70
8
 71
3
 72
8
 73
4
 74
0
 40
0
 40
0
 40
0
 40
0
 40
1
 40
1
 40
1
 40
1
 10
-29.092957
 20
124.963180
 30
0.0
 10
-28.897165
 20
125.158266
 30
0.0
 10
-28.581079
 20
125.158266
 30
0.0
 10
-28.385993
 20
124.962897
 30
0.0
  0
SPLINE
  5
134
100
AcDbEntity
  8
0
 62
7
100
AcDbSpline
 70
8
 71
3
 72
8
 73
4
 74
0
 40
0
 40
0
 40
0
 40
0
 40
1
 40
1
 40
1
 40
1
 10
-28.385993
 20
124.962897
 30
0.0
 10
-28.190202
 20
124.767459
 30
0.0
 10
-27.874113
 20
124.767459
 30
0.0
 10
-27.678321
 20
124.963180
 30
0.0
  0
SPLINE
  5
135
100
AcDbEntity
  8
0
 62
7
100
AcDbSpline
 70
8
 71
3
 72
8
 73
4
 74
0
 40
0
 40
0
 40
0
 40
0
 40
1
 40
1
 40
1
 40
1
 10
-27.678321
 20
124.963180
 30
0.0
 10
-27.483235
 20
125.158266
 30
0.0
 10
-27.167149
 20
125.158266
 30
0.0
 10
-26.971357
 20
124.962897
 30
0.0
  0
SPLINE
  5
136
100
AcDbEntity
  8
0
 62
7
100
AcDbSpline
 70
8
 71
3
 72
8
 73
4
 74
0
 40
0
 40
0
 40
0
 40
0
 40
1
 40
1
 40
1
 40
1
 10
-26.971357
 20
124.962897
 30
0.0
 10
-26.874343
 20
124.865531
 30
0.0
 10
-26.745932
 20
124.816495
 30
0.0
 10
-26.617874
 20
124.816495
 30
0.0
  0
LWPOLYLINE
  5
137
100
AcDbEntity
  8
0
 62
7
100
AcDbPolyline
 90
2
 70
0
 10
-32.774537
 20
124.816495
 30
0.0
 10
-32.274301
 20
124.816495
 30
0.0
  0
SPLINE
  5
138
100
AcDbEntity
  8
0
 62
7
100
AcDbSpline
 70
8
 71
3
 72
8
 73
4
 74
0
 40
0
 40
0
 40
0
 40
0
 40
1
 40
1
 40
1
 40
1
 10
95.269473
 20
124.816777
 30
0.0
 10
95.397529
 20
124.816777
 30
0.0
 10
95.525943
 20
124.865813
 30
0.0
 10
95.622957
 20
124.963180
 30
0.0
  0
SPLINE
  5
139
100
AcDbEntity
  8
0
 62
7
100
AcDbSpline
 70
8
 71
3
 72
8
 73
4
 74
0
 40
0
 40
0
 40
0
 40
0
 40
1
 40
1
 40
1
 40
1
 10
95.622957
 20
124.963180
 30
0.0
 10
95.818748
 20
125.158619
 30
0.0
 10
96.134832
 20
125.158619
 30
0.0
 10
96.329921
 20
124.963462
 30
0.0
  0
SPLINE
  5
13a
100
AcDbEntity
  8
0
 62
7
100
AcDbSpline
 70
8
 71
3
 72
8
 73
4
 74
0
 40
0
 40
0
 40
0
 40
0
 40
1
 40
1
 40
1
 40
1
 10
96.329921
 20
124.963462
 30
0.0
 10
96.525712
 20
124.767670
 30
0.0
 10
96.841798
 20
124.767670
 30
0.0
 10
97.037593
 20
124.963180
 30
0.0
  0
SPLINE
  5
13b
100
AcDbEntity
  8
0
 62
7
100
AcDbSpline
 70
8
 71
3
 72
8
 73
4
 74
0
 40
0
 40
0
 40
0
 40
0
 40
1
 40
1
 40
1
 40
1
 10
97.037593
 20
124.963180
 30
0.0
 10
97.232673
 20
125.158619
 30
0.0
 10
97.548765
 20
125.158619
 30
0.0
 10
97.744204
 20
124.963462
 30
0.0
  0
SPLINE
  5
13c
100
AcDbEntity
  8
0
 62
7
100
AcDbSpline
 70
8
 71
3
 72
8
 73
4
 74
0
 40
0
 40
0
 40
0
 40
0
 40
1
 40
1
 40
1
 40
1
 10
97.744204
 20
124.963462
 30
0.0
 10
97.939287
 20
124.767670
 30
0.0
 10
98.256084
 20
124.767670
 30
0.0
 10
98.451170
 20
124.963180
 30
0.0
  0
SPLINE
  5
13d
100
AcDbEntity
  8
0
 62
7
100
AcDbSpline
 70
8
 71
3
 72
8
 73
4
 74
0
 40
0
 40
0
 40
0
 40
0
 40
1
 40
1
 40
1
 40
1
 10
98.451170
 20
124.963180
 30
0.0
 10
98.646607
 20
125.158619
 30
0.0
 10
98.963401
 20
125.158619
 30
0.0
 10
99.158484
 20
124.963462
 30
0.0
  0
SPLINE
  5
13e
100
AcDbEntity
  8
0
 62
7
100
AcDbSpline
 70
8
 71
3
 72
8
 73
4
 74
0
 40
0
 40
0
 40
0
 40
0
 40
1
 40
1
 40
1
 40
1
 10
99.158484
 20
124.963462
 30
0.0
 10
99.353573
 20
124.767670
 30
0.0
 10
99.670365
 20
124.767670
 30
0.0
 10
99.865448
 20
124.963180
 30
0.0
  0
SPLINE
  5
13f
100
AcDbEntity
  8
0
 62
7
100
AcDbSpline
 70
8
 71
3
 72
8
 73
4
 74
0
 40
0
 40
0
 40
0
 40
0
 40
1
 40
1
 40
1
 40
1
 10
99.865448
 20
124.963180
 30
0.0
 10
100.061243
 20
125.158619
 30
0.0
 10
100.377331
 20
125.158619
 30
0.0
 10
100.572418
 20
124.963180
 30
0.0
  0
SPLINE
  5
140
100
AcDbEntity
  8
0
 62
7
100
AcDbSpline
 70
8
 71
3
 72
8
 73
4
 74
0
 40
0
 40
0
 40
0
 40
0
 40
1
 40
1
 40
1
 40
1
 10
100.572418
 20
124.963180
 30
0.0
 10
100.670134
 20
124.865813
 30
0.0
 10
100.798548
 20
124.816777
 30
0.0
 10
100.925901
 20
124.816777
 30
0.0
  0
LWPOLYLINE
  5
141
100
AcDbEntity
  8
0
 62
7
100
AcDbPolyline
 90
3
 70
0
 10
-26.617874
 20
124.816495
 30
0.0
 10
1.810428
 20
124.816495
 30
0.0
 10
95.269473
 20
124.816777
 30
0.0
  0
SPLINE
  5
142
100
AcDbEntity
  8
0
 62
7
100
AcDbSpline
 70
8
 71
3
 72
8
 73
4
 74
0
 40
0
 40
0
 40
0
 40
0
 40
1
 40
1
 40
1
 40
1
 10
101.426137
 20
124.816777
 30
0.0
 10
101.978584
 20
124.816777
 30
0.0
 10
102.977834
 20
125.802748
 30
0.0
 10
102.425909
 20
125.816549
 30
0.0
  0
LWPOLYLINE
  5
143
100
AcDbEntity
  8
0
 62
7
100
AcDbPolyline
 90
2
 70
0
 10
100.925901
 20
124.816777
 30
0.0
 10
101.426137
 20
124.816777
 30
0.0
  0
SPLINE
  5
144
100
AcDbEntity
  8
0
 62
7
100
AcDbSpline
 70
8
 71
3
 72
8
 73
4
 74
0
 40
0
 40
0
 40
0
 40
0
 40
1
 40
1
 40
1
 40
1
 10
105.575854
 20
126.066669
 30
0.0
 10
106.611603
 20
126.066669
 30
0.0
 10
107.450512
 20
126.905927
 30
0.0
 10
107.450512
 20
127.941330
 30
0.0
  0
SPLINE
  5
145
100
AcDbEntity
  8
0
 62
7
100
AcDbSpline
 70
8
 71
3
 72
8
 73
4
 74
0
 40
0
 40
0
 40
0
 40
0
 40
1
 40
1
 40
1
 40
1
 10
107.450512
 20
127.941330
 30
0.0
 10
107.450512
 20
128.976732
 30
0.0
 10
106.611253
 20
129.815991
 30
0.0
 10
105.575854
 20
129.815991
 30
0.0
  0
LWPOLYLINE
  5
146
100
AcDbEntity
  8
0
 62
7
100
AcDbPolyline
 90
4
 70
0
 10
102.425909
 20
125.816549
 30
0.0
 10
102.425909
 20
127.216724
 30
0.0
 10
105.575854
 20
127.216724
 30
0.0
 10
105.575854
 20
126.066669
 30
0.0
  0
SPLINE
  5
147
100
AcDbEntity
  8
0
 62
7
100
AcDbSpline
 70
8
 71
3
 72
8
 73
4
 74
0
 40
0
 40
0
 40
0
 40
0
 40
1
 40
1
 40
1
 40
1
 10
102.425909
 20
129.816273
 30
0.0
 10
99.292190
 20
129.816273
 30
0.0
 10
96.766304
 20
129.354134
 30
0.0
 10
95.150234
 20
128.732892
 30
0.0
  0
SPLINE
  5
148
100
AcDbEntity
  8
0
 62
7
100
AcDbSpline
 70
8
 71
3
 72
8
 73
4
 74
0
 40
0
 40
0
 40
0
 40
0
 40
1
 40
1
 40
1
 40
1
 10
95.150234
 20
128.732892
 30
0.0
 10
93.499237
 20
128.097540
 30
0.0
 10
90.792026
 20
127.566256
 30
0.0
 10
87.426182
 20
127.566256
 30
0.0
  0
SPLINE
  5
149
100
AcDbEntity
  8
0
 62
7
100
AcDbSpline
 70
8
 71
3
 72
8
 73
4
 74
0
 40
0
 40
0
 40
0
 40
0
 40
1
 40
1
 40
1
 40
1
 10
87.426182
 20
127.566256
 30
0.0
 10
87.080812
 20
127.566256
 30
0.0
 10
86.801412
 20
127.846009
 30
0.0
 10
86.801412
 20
128.191026
 30
0.0
  0
LWPOLYLINE
  5
14a
100
AcDbEntity
  8
0
 62
7
100
AcDbPolyline
 90
2
 70
0
 10
105.575854
 20
129.815991
 30
0.0
 10
102.425909
 20
129.816273
 30
0.0
  0
SPLINE
  5
14b
100
AcDbEntity
  8
0
 62
7
100
AcDbSpline
 70
8
 71
3
 72
8
 73
4
 74
0
 40
0
 40
0
 40
0
 40
0
 40
1
 40
1
 40
1
 40
1
 10
86.801412
 20
128.191026
 30
0.0
 10
86.801412
 20
128.536395
 30
0.0
 10
87.081165
 20
128.815795
 30
0.0
 10
87.426182
 20
128.815795
 30
0.0
  0
SPLINE
  5
14c
100
AcDbEntity
  8
0
 62
7
100
AcDbSpline
 70
8
 71
3
 72
8
 73
4
 74
0
 40
0
 40
0
 40
0
 40
0
 40
1
 40
1
 40
1
 40
1
 10
87.426182
 20
128.815795
 30
0.0
 10
90.559898
 20
128.815795
 30
0.0
 10
93.085785
 20
129.277581
 30
0.0
 10
94.701501
 20
129.898823
 30
0.0
  0
SPLINE
  5
14d
100
AcDbEntity
  8
0
 62
7
100
AcDbSpline
 70
8
 71
3
 72
8
 73
4
 74
0
 40
0
 40
0
 40
0
 40
0
 40
1
 40
1
 40
1
 40
1
 10
94.701501
 20
129.898823
 30
0.0
 10
96.352498
 20
130.534176
 30
0.0
 10
99.059709
 20
131.065812
 30
0.0
 10
102.425556
 20
131.065812
 30
0.0
  0
LWPOLYLINE
  5
14e
100
AcDbEntity
  8
0
 62
7
100
AcDbPolyline
 90
2
 70
0
 10
86.801412
 20
128.191026
 30
0.0
 10
86.801412
 20
128.191026
 30
0.0
  0
SPLINE
  5
14f
100
AcDbEntity
  8
0
 62
7
100
AcDbSpline
 70
8
 71
3
 72
8
 73
4
 74
0
 40
0
 40
0
 40
0
 40
0
 40
1
 40
1
 40
1
 40
1
 10
105.575498
 20
134.315954
 30
0.0
 10
105.575498
 20
134.868051
 30
0.0
 10
105.128179
 20
135.316079
 30
0.0
 10
104.575729
 20
135.316079
 30
0.0
  0
LWPOLYLINE
  5
150
100
AcDbEntity
  8
0
 62
7
100
AcDbPolyline
 90
3
 70
0
 10
102.425556
 20
131.065812
 30
0.0
 10
105.575498
 20
131.065812
 30
0.0
 10
105.575498
 20
134.315954
 30
0.0
  0
SPLINE
  5
151
100
AcDbEntity
  8
0
 62
7
100
AcDbSpline
 70
8
 71
3
 72
8
 73
4
 74
0
 40
0
 40
0
 40
0
 40
0
 40
1
 40
1
 40
1
 40
1
 10
104.575729
 20
155.615677
 30
0.0
 10
105.128179
 20
155.615677
 30
0.0
 10
105.575498
 20
156.063704
 30
0.0
 10
105.575498
 20
156.615802
 30
0.0
  0
LWPOLYLINE
  5
152
100
AcDbEntity
  8
0
 62
7
100
AcDbPolyline
 90
4
 70
0
 10
104.575729
 20
135.316079
 30
0.0
 10
102.475295
 20
135.316079
 30
0.0
 10
102.475295
 20
155.615677
 30
0.0
 10
104.575729
 20
155.615677
 30
0.0
  0
SPLINE
  5
153
100
AcDbEntity
  8
0
 62
7
100
AcDbSpline
 70
8
 71
3
 72
8
 73
4
 74
0
 40
0
 40
0
 40
0
 40
0
 40
1
 40
1
 40
1
 40
1
 10
105.575498
 20
161.115835
 30
0.0
 10
106.611251
 20
161.115835
 30
0.0
 10
107.450156
 20
161.955446
 30
0.0
 10
107.450156
 20
162.990849
 30
0.0
  0
SPLINE
  5
154
100
AcDbEntity
  8
0
 62
7
100
AcDbSpline
 70
8
 71
3
 72
8
 73
4
 74
0
 40
0
 40
0
 40
0
 40
0
 40
1
 40
1
 40
1
 40
1
 10
107.450156
 20
162.990849
 30
0.0
 10
107.450156
 20
164.026252
 30
0.0
 10
106.610898
 20
164.865510
 30
0.0
 10
105.575498
 20
164.865510
 30
0.0
  0
LWPOLYLINE
  5
155
100
AcDbEntity
  8
0
 62
7
100
AcDbPolyline
 90
2
 70
0
 10
105.575498
 20
156.615802
 30
0.0
 10
105.575498
 20
161.115835
 30
0.0
  0
SPLINE
  5
156
100
AcDbEntity
  8
0
 62
7
100
AcDbSpline
 70
8
 71
3
 72
8
 73
4
 74
0
 40
0
 40
0
 40
0
 40
0
 40
1
 40
1
 40
1
 40
1
 10
102.425201
 20
165.115629
 30
0.0
 10
102.425201
 20
165.667374
 30
0.0
 10
101.977881
 20
166.115402
 30
0.0
 10
101.425429
 20
166.115402
 30
0.0
  0
LWPOLYLINE
  5
157
100
AcDbEntity
  8
0
 62
7
100
AcDbPolyline
 90
4
 70
0
 10
105.575498
 20
164.865510
 30
0.0
 10
105.575498
 20
163.715454
 30
0.0
 10
102.425201
 20
163.715454
 30
0.0
 10
102.425201
 20
165.115629
 30
0.0
  0
SPLINE
  5
158
100
AcDbEntity
  8
0
 62
7
100
AcDbSpline
 70
8
 71
3
 72
8
 73
4
 74
0
 40
0
 40
0
 40
0
 40
0
 40
1
 40
1
 40
1
 40
1
 10
-32.774890
 20
166.115119
 30
0.0
 10
-33.327340
 20
166.115119
 30
0.0
 10
-33.774662
 20
165.667092
 30
0.0
 10
-33.774662
 20
165.115347
 30
0.0
  0
LWPOLYLINE
  5
159
100
AcDbEntity
  8
0
 62
7
100
AcDbPolyline
 90
2
 70
0
 10
101.425429
 20
166.115402
 30
0.0
 10
-32.774890
 20
166.115119
 30
0.0
  0
SPLINE
  5
15a
100
AcDbEntity
  8
0
 62
7
100
AcDbSpline
 70
8
 71
3
 72
8
 73
4
 74
0
 40
0
 40
0
 40
0
 40
0
 40
1
 40
1
 40
1
 40
1
 10
-36.774676
 20
164.865228
 30
0.0
 10
-37.810432
 20
164.865228
 30
0.0
 10
-38.650040
 20
164.025969
 30
0.0
 10
-38.650040
 20
162.990567
 30
0.0
  0
SPLINE
  5
15b
100
AcDbEntity
  8
0
 62
7
100
AcDbSpline
 70
8
 71
3
 72
8
 73
4
 74
0
 40
0
 40
0
 40
0
 40
0
 40
1
 40
1
 40
1
 40
1
 10
-38.650040
 20
162.990567
 30
0.0
 10
-38.650040
 20
161.955164
 30
0.0
 10
-37.810079
 20
161.115553
 30
0.0
 10
-36.774676
 20
161.115553
 30
0.0
  0
LWPOLYLINE
  5
15c
100
AcDbEntity
  8
0
 62
7
100
AcDbPolyline
 90
4
 70
0
 10
-33.774662
 20
165.115347
 30
0.0
 10
-33.774662
 20
163.715172
 30
0.0
 10
-36.774676
 20
163.715172
 30
0.0
 10
-36.774676
 20
164.865228
 30
0.0
  0
LWPOLYLINE
  5
15d
100
AcDbEntity
  8
0
 62
7
100
AcDbPolyline
 90
2
 70
0
 10
-36.774676
 20
161.115553
 30
0.0
 10
-36.774676
 20
156.616225
 30
0.0
  0
LWPOLYLINE
  5
15e
100
AcDbEntity
  8
0
 62
7
100
AcDbPolyline
 90
5
 70
0
 10
-13.975040
 20
130.314745
 30
0.0
 10
-3.375040
 20
130.315874
 30
0.0
 10
-3.375040
 20
127.015872
 30
0.0
 10
-13.975040
 20
127.014743
 30
0.0
 10
-13.975040
 20
130.314745
 30
0.0
  0
LWPOLYLINE
  5
15f
100
AcDbEntity
  8
0
 62
7
100
AcDbPolyline
 90
5
 70
0
 10
-13.975040
 20
163.614893
 30
0.0
 10
-3.375040
 20
163.616022
 30
0.0
 10
-3.375040
 20
160.315975
 30
0.0
 10
-13.975040
 20
160.314846
 30
0.0
 10
-13.975040
 20
163.614893
 30
0.0
  0
LWPOLYLINE
  5
160
100
AcDbEntity
  8
0
 62
7
100
AcDbPolyline
 90
5
 70
0
 10
72.325351
 20
163.614893
 30
0.0
 10
82.925353
 20
163.616022
 30
0.0
 10
82.925353
 20
160.315975
 30
0.0
 10
72.325351
 20
160.314846
 30
0.0
 10
72.325351
 20
163.614893
 30
0.0
  0
LWPOLYLINE
  5
161
100
AcDbEntity
  8
0
 62
7
100
AcDbPolyline
 90
5
 70
0
 10
72.325351
 20
130.314745
 30
0.0
 10
82.925353
 20
130.315874
 30
0.0
 10
82.925353
 20
127.015872
 30
0.0
 10
72.325351
 20
127.014743
 30
0.0
 10
72.325351
 20
130.314745
 30
0.0
  0
LWPOLYLINE
  5
162
100
AcDbEntity
  8
0
 62
7
100
AcDbPolyline
 90
6
 70
0
 10
29.175352
 20
130.314745
 30
0.0
 10
39.775353
 20
130.315874
 30
0.0
 10
39.775353
 20
127.015872
 30
0.0
 10
29.175352
 20
127.014743
 30
0.0
 10
29.175352
 20
128.301733
 30
0.0
 10
29.175352
 20
130.314745
 30
0.0
  0
SPLINE
  5
163
100
AcDbEntity
  8
0
 62
7
100
AcDbSpline
 70
8
 71
3
 72
8
 73
4
 74
0
 40
0
 40
0
 40
0
 40
0
 40
1
 40
1
 40
1
 40
1
 10
-16.831456
 20
122.813959
 30
0.0
 10
-17.383059
 20
122.813959
 30
0.0
 10
-17.836610
 20
122.369106
 30
0.0
 10
-17.836610
 20
121.817361
 30
0.0
  0
LWPOLYLINE
  5
164
100
AcDbEntity
  8
0
 62
7
100
AcDbPolyline
 90
6
 70
0
 10
29.175352
 20
163.614746
 30
0.0
 10
39.775353
 20
163.615875
 30
0.0
 10
39.775353
 20
160.315873
 30
0.0
 10
29.175352
 20
160.314744
 30
0.0
 10
29.175352
 20
161.601734
 30
0.0
 10
29.175352
 20
163.614746
 30
0.0
  0
SPLINE
  5
165
100
AcDbEntity
  8
0
 62
7
100
AcDbSpline
 70
8
 71
3
 72
8
 73
4
 74
0
 40
0
 40
0
 40
0
 40
0
 40
1
 40
1
 40
1
 40
1
 10
-36.828722
 20
119.815345
 30
0.0
 10
-37.381033
 20
119.815345
 30
0.0
 10
-37.825059
 20
119.370492
 30
0.0
 10
-37.825059
 20
118.818747
 30
0.0
  0
LWPOLYLINE
  5
166
100
AcDbEntity
  8
0
 62
7
100
AcDbPolyline
 90
3
 70
0
 10
-17.836610
 20
121.817361
 30
0.0
 10
-17.836610
 20
119.815345
 30
0.0
 10
-36.828722
 20
119.815345
 30
0.0
  0
SPLINE
  5
167
100
AcDbEntity
  8
0
 62
7
100
AcDbSpline
 70
8
 71
3
 72
8
 73
4
 74
0
 40
0
 40
0
 40
0
 40
0
 40
1
 40
1
 40
1
 40
1
 10
-37.825059
 20
39.510544
 30
0.0
 10
-37.825059
 20
38.958799
 30
0.0
 10
-37.381033
 20
38.513947
 30
0.0
 10
-36.828722
 20
38.513947
 30
0.0
  0
LWPOLYLINE
  5
168
100
AcDbEntity
  8
0
 62
7
100
AcDbPolyline
 90
2
 70
0
 10
-37.825059
 20
118.818747
 30
0.0
 10
-37.825059
 20
39.510544
 30
0.0
  0
SPLINE
  5
169
100
AcDbEntity
  8
0
 62
7
100
AcDbSpline
 70
8
 71
3
 72
8
 73
4
 74
0
 40
0
 40
0
 40
0
 40
0
 40
1
 40
1
 40
1
 40
1
 10
-17.836610
 20
36.511930
 30
0.0
 10
-17.864155
 20
35.960874
 30
0.0
 10
-17.383059
 20
35.515330
 30
0.0
 10
-16.831456
 20
35.515333
 30
0.0
  0
LWPOLYLINE
  5
16a
100
AcDbEntity
  8
0
 62
7
100
AcDbPolyline
 90
3
 70
0
 10
-36.828722
 20
38.513947
 30
0.0
 10
-17.836610
 20
38.513947
 30
0.0
 10
-17.836610
 20
36.511930
 30
0.0
  0
SPLINE
  5
16b
100
AcDbEntity
  8
0
 62
7
100
AcDbSpline
 70
8
 71
3
 72
8
 73
4
 74
0
 40
0
 40
0
 40
0
 40
0
 40
1
 40
1
 40
1
 40
1
 10
-8.534530
 20
35.515333
 30
0.0
 10
-7.982927
 20
35.515336
 30
0.0
 10
-7.538193
 20
35.960185
 30
0.0
 10
-7.538193
 20
36.511930
 30
0.0
  0
LWPOLYLINE
  5
16c
100
AcDbEntity
  8
0
 62
7
100
AcDbPolyline
 90
2
 70
0
 10
-16.831456
 20
35.515333
 30
0.0
 10
-8.534530
 20
35.515333
 30
0.0
  0
SPLINE
  5
16d
100
AcDbEntity
  8
0
 62
7
100
AcDbSpline
 70
8
 71
3
 72
8
 73
4
 74
0
 40
0
 40
0
 40
0
 40
0
 40
1
 40
1
 40
1
 40
1
 10
25.156753
 20
36.511930
 30
0.0
 10
25.129208
 20
35.960874
 30
0.0
 10
25.601487
 20
35.515333
 30
0.0
 10
26.153091
 20
35.515333
 30
0.0
  0
LWPOLYLINE
  5
16e
100
AcDbEntity
  8
0
 62
7
100
AcDbPolyline
 90
4
 70
0
 10
-7.538193
 20
36.511930
 30
0.0
 10
-7.538193
 20
38.513947
 30
0.0
 10
25.156753
 20
38.513947
 30
0.0
 10
25.156753
 20
36.511930
 30
0.0
  0
SPLINE
  5
16f
100
AcDbEntity
  8
0
 62
7
100
AcDbSpline
 70
8
 71
3
 72
8
 73
4
 74
0
 40
0
 40
0
 40
0
 40
0
 40
1
 40
1
 40
1
 40
1
 10
34.450014
 20
35.515333
 30
0.0
 10
35.001618
 20
35.515333
 30
0.0
 10
35.455169
 20
35.960185
 30
0.0
 10
35.455169
 20
36.511930
 30
0.0
  0
LWPOLYLINE
  5
170
100
AcDbEntity
  8
0
 62
7
100
AcDbPolyline
 90
2
 70
0
 10
26.153091
 20
35.515333
 30
0.0
 10
34.450014
 20
35.515333
 30
0.0
  0
SPLINE
  5
171
100
AcDbEntity
  8
0
 62
7
100
AcDbSpline
 70
8
 71
3
 72
8
 73
4
 74
0
 40
0
 40
0
 40
0
 40
0
 40
1
 40
1
 40
1
 40
1
 10
68.447897
 20
36.511930
 30
0.0
 10
68.447897
 20
35.960188
 30
0.0
 10
68.892279
 20
35.515333
 30
0.0
 10
69.444235
 20
35.515333
 30
0.0
  0
LWPOLYLINE
  5
172
100
AcDbEntity
  8
0
 62
7
100
AcDbPolyline
 90
4
 70
0
 10
35.455169
 20
36.511930
 30
0.0
 10
35.455169
 20
38.513947
 30
0.0
 10
68.447897
 20
38.513947
 30
0.0
 10
68.447897
 20
36.511930
 30
0.0
  0
SPLINE
  5
173
100
AcDbEntity
  8
0
 62
7
100
AcDbSpline
 70
8
 71
3
 72
8
 73
4
 74
0
 40
0
 40
0
 40
0
 40
0
 40
1
 40
1
 40
1
 40
1
 10
77.441377
 20
35.515333
 30
0.0
 10
77.992980
 20
35.515333
 30
0.0
 10
78.437715
 20
35.960185
 30
0.0
 10
78.437715
 20
36.511930
 30
0.0
  0
LWPOLYLINE
  5
174
100
AcDbEntity
  8
0
 62
7
100
AcDbPolyline
 90
2
 70
0
 10
69.444235
 20
35.515333
 30
0.0
 10
77.441377
 20
35.515333
 30
0.0
  0
SPLINE
  5
175
100
AcDbEntity
  8
0
 62
7
100
AcDbSpline
 70
8
 71
3
 72
8
 73
4
 74
0
 40
0
 40
0
 40
0
 40
0
 40
1
 40
1
 40
1
 40
1
 10
97.438645
 20
38.513947
 30
0.0
 10
97.990248
 20
38.513947
 30
0.0
 10
98.434982
 20
38.958799
 30
0.0
 10
98.434982
 20
39.510544
 30
0.0
  0
LWPOLYLINE
  5
176
100
AcDbEntity
  8
0
 62
7
100
AcDbPolyline
 90
3
 70
0
 10
78.437715
 20
36.511930
 30
0.0
 10
78.437715
 20
38.513947
 30
0.0
 10
97.438645
 20
38.513947
 30
0.0
  0
SPLINE
  5
177
100
AcDbEntity
  8
0
 62
7
100
AcDbSpline
 70
8
 71
3
 72
8
 73
4
 74
0
 40
0
 40
0
 40
0
 40
0
 40
1
 40
1
 40
1
 40
1
 10
98.434982
 20
118.818747
 30
0.0
 10
98.434982
 20
119.370492
 30
0.0
 10
97.989486
 20
119.844343
 30
0.0
 10
97.438645
 20
119.815345
 30
0.0
  0
LWPOLYLINE
  5
178
100
AcDbEntity
  8
0
 62
7
100
AcDbPolyline
 90
2
 70
0
 10
98.434982
 20
39.510544
 30
0.0
 10
98.434982
 20
118.818747
 30
0.0
  0
SPLINE
  5
179
100
AcDbEntity
  8
0
 62
7
100
AcDbSpline
 70
8
 71
3
 72
8
 73
4
 74
0
 40
0
 40
0
 40
0
 40
0
 40
1
 40
1
 40
1
 40
1
 10
78.437715
 20
121.817361
 30
0.0
 10
78.437715
 20
122.369106
 30
0.0
 10
77.992980
 20
122.813959
 30
0.0
 10
77.441377
 20
122.813959
 30
0.0
  0
LWPOLYLINE
  5
17a
100
AcDbEntity
  8
0
 62
7
100
AcDbPolyline
 90
3
 70
0
 10
97.438645
 20
119.815345
 30
0.0
 10
78.437715
 20
119.815345
 30
0.0
 10
78.437715
 20
121.817361
 30
0.0
  0
SPLINE
  5
17b
100
AcDbEntity
  8
0
 62
7
100
AcDbSpline
 70
8
 71
3
 72
8
 73
4
 74
0
 40
0
 40
0
 40
0
 40
0
 40
1
 40
1
 40
1
 40
1
 10
69.444235
 20
122.813959
 30
0.0
 10
68.892279
 20
122.813959
 30
0.0
 10
68.447897
 20
122.369106
 30
0.0
 10
68.447897
 20
121.817361
 30
0.0
  0
LWPOLYLINE
  5
17c
100
AcDbEntity
  8
0
 62
7
100
AcDbPolyline
 90
2
 70
0
 10
77.441377
 20
122.813959
 30
0.0
 10
69.444235
 20
122.813959
 30
0.0
  0
SPLINE
  5
17d
100
AcDbEntity
  8
0
 62
7
100
AcDbSpline
 70
8
 71
3
 72
8
 73
4
 74
0
 40
0
 40
0
 40
0
 40
0
 40
1
 40
1
 40
1
 40
1
 10
35.455169
 20
121.817361
 30
0.0
 10
35.455169
 20
122.369106
 30
0.0
 10
35.001618
 20
122.813959
 30
0.0
 10
34.450014
 20
122.813959
 30
0.0
  0
LWPOLYLINE
  5
17e
100
AcDbEntity
  8
0
 62
7
100
AcDbPolyline
 90
4
 70
0
 10
68.447897
 20
121.817361
 30
0.0
 10
68.447897
 20
119.815345
 30
0.0
 10
35.455169
 20
119.815345
 30
0.0
 10
35.455169
 20
121.817361
 30
0.0
  0
SPLINE
  5
17f
100
AcDbEntity
  8
0
 62
7
100
AcDbSpline
 70
8
 71
3
 72
8
 73
4
 74
0
 40
0
 40
0
 40
0
 40
0
 40
1
 40
1
 40
1
 40
1
 10
26.153091
 20
122.813959
 30
0.0
 10
25.601487
 20
122.813959
 30
0.0
 10
25.156753
 20
122.369106
 30
0.0
 10
25.156753
 20
121.817361
 30
0.0
  0
LWPOLYLINE
  5
180
100
AcDbEntity
  8
0
 62
7
100
AcDbPolyline
 90
2
 70
0
 10
34.450014
 20
122.813959
 30
0.0
 10
26.153091
 20
122.813959
 30
0.0
  0
SPLINE
  5
181
100
AcDbEntity
  8
0
 62
7
100
AcDbSpline
 70
8
 71
3
 72
8
 73
4
 74
0
 40
0
 40
0
 40
0
 40
0
 40
1
 40
1
 40
1
 40
1
 10
-7.538193
 20
121.817361
 30
0.0
 10
-7.538193
 20
122.369106
 30
0.0
 10
-7.982927
 20
122.813959
 30
0.0
 10
-8.534530
 20
122.813959
 30
0.0
  0
LWPOLYLINE
  5
182
100
AcDbEntity
  8
0
 62
7
100
AcDbPolyline
 90
4
 70
0
 10
25.156753
 20
121.817361
 30
0.0
 10
25.156753
 20
119.815345
 30
0.0
 10
-7.538193
 20
119.815345
 30
0.0
 10
-7.538193
 20
121.817361
 30
0.0
  0
SPLINE
  5
183
100
AcDbEntity
  8
0
 62
7
100
AcDbSpline
 70
8
 71
3
 72
8
 73
4
 74
0
 40
0
 40
0
 40
0
 40
0
 40
1
 40
1
 40
1
 40
1
 10
28.825735
 20
131.617237
 30
0.0
 10
28.825735
 20
131.065493
 30
0.0
 10
28.377428
 20
130.599871
 30
0.0
 10
27.825962
 20
130.617465
 30
0.0
  0
LWPOLYLINE
  5
184
100
AcDbEntity
  8
0
 62
7
100
AcDbPolyline
 90
2
 70
0
 10
-8.534530
 20
122.813959
 30
0.0
 10
-16.831456
 20
122.813959
 30
0.0
  0
SPLINE
  5
185
100
AcDbEntity
  8
0
 62
7
100
AcDbSpline
 70
8
 71
3
 72
8
 73
4
 74
0
 40
0
 40
0
 40
0
 40
0
 40
1
 40
1
 40
1
 40
1
 10
-1.175267
 20
130.617465
 30
0.0
 10
-1.727012
 20
130.617465
 30
0.0
 10
-2.175039
 20
131.065493
 30
0.0
 10
-2.175039
 20
131.617237
 30
0.0
  0
LWPOLYLINE
  5
186
100
AcDbEntity
  8
0
 62
7
100
AcDbPolyline
 90
3
 70
0
 10
27.825962
 20
130.617465
 30
0.0
 10
12.154797
 20
130.617465
 30
0.0
 10
-1.175267
 20
130.617465
 30
0.0
  0
SPLINE
  5
187
100
AcDbEntity
  8
0
 62
7
100
AcDbSpline
 70
8
 71
3
 72
8
 73
4
 74
0
 40
0
 40
0
 40
0
 40
0
 40
1
 40
1
 40
1
 40
1
 10
-2.175039
 20
134.317466
 30
0.0
 10
-2.175039
 20
134.869211
 30
0.0
 10
-1.727012
 20
135.317238
 30
0.0
 10
-1.175267
 20
135.317238
 30
0.0
  0
LWPOLYLINE
  5
188
100
AcDbEntity
  8
0
 62
7
100
AcDbPolyline
 90
2
 70
0
 10
-2.175039
 20
131.617237
 30
0.0
 10
-2.175039
 20
134.317466
 30
0.0
  0
SPLINE
  5
189
100
AcDbEntity
  8
0
 62
7
100
AcDbSpline
 70
8
 71
3
 72
8
 73
4
 74
0
 40
0
 40
0
 40
0
 40
0
 40
1
 40
1
 40
1
 40
1
 10
27.825962
 20
135.317238
 30
0.0
 10
28.377707
 20
135.317238
 30
0.0
 10
28.825735
 20
134.869211
 30
0.0
 10
28.825735
 20
134.317466
 30
0.0
  0
LWPOLYLINE
  5
18a
100
AcDbEntity
  8
0
 62
7
100
AcDbPolyline
 90
2
 70
0
 10
-1.175267
 20
135.317238
 30
0.0
 10
27.825962
 20
135.317238
 30
0.0
  0
SPLINE
  5
18b
100
AcDbEntity
  8
0
 62
7
100
AcDbSpline
 70
8
 71
3
 72
8
 73
4
 74
0
 40
0
 40
0
 40
0
 40
0
 40
1
 40
1
 40
1
 40
1
 10
38.102086
 20
138.065228
 30
0.0
 10
36.997538
 20
138.065228
 30
0.0
 10
36.369681
 20
138.993903
 30
0.0
 10
36.101836
 20
140.065478
 30
0.0
  0
LWPOLYLINE
  5
18c
100
AcDbEntity
  8
0
 62
7
100
AcDbPolyline
 90
2
 70
0
 10
28.825735
 20
134.317466
 30
0.0
 10
28.825735
 20
131.617237
 30
0.0
  0
SPLINE
  5
18d
100
AcDbEntity
  8
0
 62
7
100
AcDbSpline
 70
8
 71
3
 72
8
 73
4
 74
0
 40
0
 40
0
 40
0
 40
0
 40
1
 40
1
 40
1
 40
1
 10
34.602160
 20
146.065229
 30
0.0
 10
34.334315
 20
147.136804
 30
0.0
 10
35.497863
 20
148.065479
 30
0.0
 10
36.602410
 20
148.065479
 30
0.0
  0
LWPOLYLINE
  5
18e
100
AcDbEntity
  8
0
 62
7
100
AcDbPolyline
 90
2
 70
0
 10
36.101836
 20
140.065478
 30
0.0
 10
34.602160
 20
146.065229
 30
0.0
  0
SPLINE
  5
18f
100
AcDbEntity
  8
0
 62
7
100
AcDbSpline
 70
8
 71
3
 72
8
 73
4
 74
0
 40
0
 40
0
 40
0
 40
0
 40
1
 40
1
 40
1
 40
1
 10
52.602390
 20
148.065479
 30
0.0
 10
53.706937
 20
148.065479
 30
0.0
 10
54.876706
 20
146.973510
 30
0.0
 10
54.601934
 20
146.065229
 30
0.0
  0
SPLINE
  5
190
100
AcDbEntity
  8
0
 62
7
100
AcDbSpline
 70
8
 71
3
 72
8
 73
4
 74
0
 40
0
 40
0
 40
0
 40
0
 40
1
 40
1
 40
1
 40
1
 10
54.601934
 20
146.065229
 30
0.0
 10
54.651077
 20
146.090205
 30
0.0
 10
53.101960
 20
140.065478
 30
0.0
 10
53.101960
 20
140.065478
 30
0.0
  0
SPLINE
  5
191
100
AcDbEntity
  8
0
 62
7
100
AcDbSpline
 70
8
 71
3
 72
8
 73
4
 74
0
 40
0
 40
0
 40
0
 40
0
 40
1
 40
1
 40
1
 40
1
 10
53.101960
 20
140.065478
 30
0.0
 10
52.581008
 20
138.960931
 30
0.0
 10
52.206508
 20
138.065228
 30
0.0
 10
51.101961
 20
138.065228
 30
0.0
  0
LWPOLYLINE
  5
192
100
AcDbEntity
  8
0
 62
7
100
AcDbPolyline
 90
2
 70
0
 10
36.602410
 20
148.065479
 30
0.0
 10
52.602390
 20
148.065479
 30
0.0
  0
SPLINE
  5
193
100
AcDbEntity
  8
0
 62
7
100
AcDbSpline
 70
8
 71
3
 72
8
 73
4
 74
0
 40
0
 40
0
 40
0
 40
0
 40
1
 40
1
 40
1
 40
1
 10
69.502085
 20
138.065228
 30
0.0
 10
68.397538
 20
138.065228
 30
0.0
 10
67.769757
 20
138.993920
 30
0.0
 10
67.501835
 20
140.065478
 30
0.0
  0
LWPOLYLINE
  5
194
100
AcDbEntity
  8
0
 62
7
100
AcDbPolyline
 90
2
 70
0
 10
51.101961
 20
138.065228
 30
0.0
 10
38.102086
 20
138.065228
 30
0.0
  0
SPLINE
  5
195
100
AcDbEntity
  8
0
 62
7
100
AcDbSpline
 70
8
 71
3
 72
8
 73
4
 74
0
 40
0
 40
0
 40
0
 40
0
 40
1
 40
1
 40
1
 40
1
 10
66.001714
 20
146.065229
 30
0.0
 10
65.733792
 20
147.136784
 30
0.0
 10
66.897417
 20
148.065479
 30
0.0
 10
68.001964
 20
148.065479
 30
0.0
  0
LWPOLYLINE
  5
196
100
AcDbEntity
  8
0
 62
7
100
AcDbPolyline
 90
2
 70
0
 10
67.501835
 20
140.065478
 30
0.0
 10
66.001714
 20
146.065229
 30
0.0
  0
SPLINE
  5
197
100
AcDbEntity
  8
0
 62
7
100
AcDbSpline
 70
8
 71
3
 72
8
 73
4
 74
0
 40
0
 40
0
 40
0
 40
0
 40
1
 40
1
 40
1
 40
1
 10
84.001943
 20
148.065479
 30
0.0
 10
85.106490
 20
148.065479
 30
0.0
 10
86.276259
 20
146.973510
 30
0.0
 10
86.001487
 20
146.065229
 30
0.0
  0
SPLINE
  5
198
100
AcDbEntity
  8
0
 62
7
100
AcDbSpline
 70
8
 71
3
 72
8
 73
4
 74
0
 40
0
 40
0
 40
0
 40
0
 40
1
 40
1
 40
1
 40
1
 10
86.001487
 20
146.065229
 30
0.0
 10
86.050631
 20
146.090205
 30
0.0
 10
84.501962
 20
140.065478
 30
0.0
 10
84.501962
 20
140.065478
 30
0.0
  0
SPLINE
  5
199
100
AcDbEntity
  8
0
 62
7
100
AcDbSpline
 70
8
 71
3
 72
8
 73
4
 74
0
 40
0
 40
0
 40
0
 40
0
 40
1
 40
1
 40
1
 40
1
 10
84.501962
 20
140.065478
 30
0.0
 10
83.981011
 20
138.960931
 30
0.0
 10
83.606510
 20
138.065228
 30
0.0
 10
82.501963
 20
138.065228
 30
0.0
  0
LWPOLYLINE
  5
19a
100
AcDbEntity
  8
0
 62
7
100
AcDbPolyline
 90
2
 70
0
 10
68.001964
 20
148.065479
 30
0.0
 10
84.001943
 20
148.065479
 30
0.0
  0
SPLINE
  5
19b
100
AcDbEntity
  8
0
 62
2
100
AcDbSpline
 70
8
 71
3
 72
8
 73
4
 74
0
 40
0
 40
0
 40
0
 40
0
 40
1
 40
1
 40
1
 40
1
 10
34.833300
 20
142.865351
 30
0.0
 10
34.833300
 20
141.203889
 30
0.0
 10
33.486423
 20
139.857009
 30
0.0
 10
31.824961
 20
139.857009
 30
0.0
  0
SPLINE
  5
19c
100
AcDbEntity
  8
0
 62
2
100
AcDbSpline
 70
8
 71
3
 72
8
 73
4
 74
0
 40
0
 40
0
 40
0
 40
0
 40
1
 40
1
 40
1
 40
1
 10
31.824961
 20
139.857009
 30
0.0
 10
30.163499
 20
139.857009
 30
0.0
 10
28.816622
 20
141.203889
 30
0.0
 10
28.816622
 20
142.865351
 30
0.0
  0
SPLINE
  5
19d
100
AcDbEntity
  8
0
 62
2
100
AcDbSpline
 70
8
 71
3
 72
8
 73
4
 74
0
 40
0
 40
0
 40
0
 40
0
 40
1
 40
1
 40
1
 40
1
 10
28.816622
 20
142.865351
 30
0.0
 10
28.816622
 20
144.526810
 30
0.0
 10
30.163499
 20
145.873690
 30
0.0
 10
31.824961
 20
145.873690
 30
0.0
  0
SPLINE
  5
19e
100
AcDbEntity
  8
0
 62
2
100
AcDbSpline
 70
8
 71
3
 72
8
 73
4
 74
0
 40
0
 40
0
 40
0
 40
0
 40
1
 40
1
 40
1
 40
1
 10
31.824961
 20
145.873690
 30
0.0
 10
33.486423
 20
145.873690
 30
0.0
 10
34.833300
 20
144.526810
 30
0.0
 10
34.833300
 20
142.865351
 30
0.0
  0
LWPOLYLINE
  5
19f
100
AcDbEntity
  8
0
 62
7
100
AcDbPolyline
 90
2
 70
0
 10
82.501963
 20
138.065228
 30
0.0
 10
69.502085
 20
138.065228
 30
0.0
  0
SPLINE
  5
1a0
100
AcDbEntity
  8
0
 62
2
100
AcDbSpline
 70
8
 71
3
 72
8
 73
4
 74
0
 40
0
 40
0
 40
0
 40
0
 40
1
 40
1
 40
1
 40
1
 10
57.329087
 20
145.876394
 30
0.0
 10
55.667625
 20
145.876394
 30
0.0
 10
54.312837
 20
144.530422
 30
0.0
 10
54.312837
 20
142.868963
 30
0.0
  0
SPLINE
  5
1a1
100
AcDbEntity
  8
0
 62
2
100
AcDbSpline
 70
8
 71
3
 72
8
 73
4
 74
0
 40
0
 40
0
 40
0
 40
0
 40
1
 40
1
 40
1
 40
1
 10
54.312837
 20
142.868963
 30
0.0
 10
54.312837
 20
141.207504
 30
0.0
 10
55.667625
 20
139.852713
 30
0.0
 10
57.329087
 20
139.852713
 30
0.0
  0
SPLINE
  5
1a2
100
AcDbEntity
  8
0
 62
2
100
AcDbSpline
 70
8
 71
3
 72
8
 73
4
 74
0
 40
0
 40
0
 40
0
 40
0
 40
1
 40
1
 40
1
 40
1
 10
57.329087
 20
139.852713
 30
0.0
 10
58.374565
 20
139.852713
 30
0.0
 10
62.275489
 20
139.852713
 30
0.0
 10
63.320837
 20
139.852713
 30
0.0
  0
SPLINE
  5
1a3
100
AcDbEntity
  8
0
 62
2
100
AcDbSpline
 70
8
 71
3
 72
8
 73
4
 74
0
 40
0
 40
0
 40
0
 40
0
 40
1
 40
1
 40
1
 40
1
 10
63.320837
 20
139.852713
 30
0.0
 10
64.982296
 20
139.852713
 30
0.0
 10
66.337087
 20
141.207504
 30
0.0
 10
66.337087
 20
142.868963
 30
0.0
  0
SPLINE
  5
1a4
100
AcDbEntity
  8
0
 62
2
100
AcDbSpline
 70
8
 71
3
 72
8
 73
4
 74
0
 40
0
 40
0
 40
0
 40
0
 40
1
 40
1
 40
1
 40
1
 10
66.337087
 20
142.868963
 30
0.0
 10
66.337087
 20
144.530422
 30
0.0
 10
64.982296
 20
145.876394
 30
0.0
 10
63.320837
 20
145.876394
 30
0.0
  0
SPLINE
  5
1a5
100
AcDbEntity
  8
0
 62
2
100
AcDbSpline
 70
8
 71
3
 72
8
 73
4
 74
0
 40
0
 40
0
 40
0
 40
0
 40
1
 40
1
 40
1
 40
1
 10
63.320837
 20
145.876394
 30
0.0
 10
62.275489
 20
145.876394
 30
0.0
 10
58.374565
 20
145.876394
 30
0.0
 10
57.329087
 20
145.876394
 30
0.0
  0
LWPOLYLINE
  5
1a6
100
AcDbEntity
  8
0
 62
2
100
AcDbPolyline
 90
2
 70
0
 10
34.833300
 20
142.865351
 30
0.0
 10
34.833300
 20
142.865351
 30
0.0
  0
SPLINE
  5
1a7
100
AcDbEntity
  8
0
 62
2
100
AcDbSpline
 70
8
 71
3
 72
8
 73
4
 74
0
 40
0
 40
0
 40
0
 40
0
 40
1
 40
1
 40
1
 40
1
 10
91.833299
 20
142.865351
 30
0.0
 10
91.833299
 20
141.203889
 30
0.0
 10
90.486422
 20
139.857009
 30
0.0
 10
88.824963
 20
139.857009
 30
0.0
  0
SPLINE
  5
1a8
100
AcDbEntity
  8
0
 62
2
100
AcDbSpline
 70
8
 71
3
 72
8
 73
4
 74
0
 40
0
 40
0
 40
0
 40
0
 40
1
 40
1
 40
1
 40
1
 10
88.824963
 20
139.857009
 30
0.0
 10
87.163498
 20
139.857009
 30
0.0
 10
85.816621
 20
141.203889
 30
0.0
 10
85.816621
 20
142.865351
 30
0.0
  0
SPLINE
  5
1a9
100
AcDbEntity
  8
0
 62
2
100
AcDbSpline
 70
8
 71
3
 72
8
 73
4
 74
0
 40
0
 40
0
 40
0
 40
0
 40
1
 40
1
 40
1
 40
1
 10
85.816621
 20
142.865351
 30
0.0
 10
85.816621
 20
144.526810
 30
0.0
 10
87.163498
 20
145.873690
 30
0.0
 10
88.824963
 20
145.873690
 30
0.0
  0
SPLINE
  5
1aa
100
AcDbEntity
  8
0
 62
2
100
AcDbSpline
 70
8
 71
3
 72
8
 73
4
 74
0
 40
0
 40
0
 40
0
 40
0
 40
1
 40
1
 40
1
 40
1
 10
88.824963
 20
145.873690
 30
0.0
 10
90.486422
 20
145.873690
 30
0.0
 10
91.833299
 20
144.526810
 30
0.0
 10
91.833299
 20
142.865351
 30
0.0
  0
LWPOLYLINE
  5
1ab
100
AcDbEntity
  8
0
 62
2
100
AcDbPolyline
 90
2
 70
0
 10
57.329087
 20
145.876394
 30
0.0
 10
57.329087
 20
145.876394
 30
0.0
  0
SPLINE
  5
1ac
100
AcDbEntity
  8
0
 62
7
100
AcDbSpline
 70
8
 71
3
 72
8
 73
4
 74
0
 40
0
 40
0
 40
0
 40
0
 40
1
 40
1
 40
1
 40
1
 10
102.225325
 20
67.315224
 30
0.0
 10
102.225325
 20
66.763127
 30
0.0
 10
102.672645
 20
66.315099
 30
0.0
 10
103.225095
 20
66.315099
 30
0.0
  0
LWPOLYLINE
  5
1ad
100
AcDbEntity
  8
0
 62
2
100
AcDbPolyline
 90
2
 70
0
 10
91.833299
 20
142.865351
 30
0.0
 10
91.833299
 20
142.865351
 30
0.0
  0
SPLINE
  5
1ae
100
AcDbEntity
  8
0
 62
7
100
AcDbSpline
 70
8
 71
3
 72
8
 73
4
 74
0
 40
0
 40
0
 40
0
 40
0
 40
1
 40
1
 40
1
 40
1
 10
103.225095
 20
46.015501
 30
0.0
 10
102.672645
 20
46.015501
 30
0.0
 10
102.225325
 20
45.567473
 30
0.0
 10
102.225325
 20
45.015376
 30
0.0
  0
LWPOLYLINE
  5
1af
100
AcDbEntity
  8
0
 62
7
100
AcDbPolyline
 90
4
 70
0
 10
103.225095
 20
66.315099
 30
0.0
 10
105.175245
 20
66.315099
 30
0.0
 10
105.175245
 20
46.015501
 30
0.0
 10
103.225095
 20
46.015501
 30
0.0
  0
SPLINE
  5
1b0
100
AcDbEntity
  8
0
 62
7
100
AcDbSpline
 70
8
 71
3
 72
8
 73
4
 74
0
 40
0
 40
0
 40
0
 40
0
 40
1
 40
1
 40
1
 40
1
 10
105.225339
 20
41.765234
 30
0.0
 10
108.591186
 20
41.765234
 30
0.0
 10
111.298397
 20
41.233598
 30
0.0
 10
112.949392
 20
40.598245
 30
0.0
  0
SPLINE
  5
1b1
100
AcDbEntity
  8
0
 62
7
100
AcDbSpline
 70
8
 71
3
 72
8
 73
4
 74
0
 40
0
 40
0
 40
0
 40
0
 40
1
 40
1
 40
1
 40
1
 10
112.949392
 20
40.598245
 30
0.0
 10
114.565111
 20
39.976651
 30
0.0
 10
117.090994
 20
39.515217
 30
0.0
 10
120.225419
 20
39.515217
 30
0.0
  0
SPLINE
  5
1b2
100
AcDbEntity
  8
0
 62
7
100
AcDbSpline
 70
8
 71
3
 72
8
 73
4
 74
0
 40
0
 40
0
 40
0
 40
0
 40
1
 40
1
 40
1
 40
1
 10
120.225419
 20
39.515217
 30
0.0
 10
120.570789
 20
39.515217
 30
0.0
 10
120.850189
 20
39.235465
 30
0.0
 10
120.850189
 20
38.890448
 30
0.0
  0
LWPOLYLINE
  5
1b3
100
AcDbEntity
  8
0
 62
7
100
AcDbPolyline
 90
3
 70
0
 10
102.225325
 20
45.015376
 30
0.0
 10
102.225325
 20
41.765234
 30
0.0
 10
105.225339
 20
41.765234
 30
0.0
  0
SPLINE
  5
1b4
100
AcDbEntity
  8
0
 62
7
100
AcDbSpline
 70
8
 71
3
 72
8
 73
4
 74
0
 40
0
 40
0
 40
0
 40
0
 40
1
 40
1
 40
1
 40
1
 10
120.850189
 20
38.890448
 30
0.0
 10
120.850189
 20
38.545079
 30
0.0
 10
120.570436
 20
38.265679
 30
0.0
 10
120.225419
 20
38.265679
 30
0.0
  0
SPLINE
  5
1b5
100
AcDbEntity
  8
0
 62
7
100
AcDbSpline
 70
8
 71
3
 72
8
 73
4
 74
0
 40
0
 40
0
 40
0
 40
0
 40
1
 40
1
 40
1
 40
1
 10
120.225419
 20
38.265679
 30
0.0
 10
116.859575
 20
38.265679
 30
0.0
 10
114.151658
 20
38.796962
 30
0.0
 10
112.501014
 20
39.432315
 30
0.0
  0
SPLINE
  5
1b6
100
AcDbEntity
  8
0
 62
7
100
AcDbSpline
 70
8
 71
3
 72
8
 73
4
 74
0
 40
0
 40
0
 40
0
 40
0
 40
1
 40
1
 40
1
 40
1
 10
112.501014
 20
39.432315
 30
0.0
 10
110.885295
 20
40.053909
 30
0.0
 10
108.359411
 20
40.515695
 30
0.0
 10
105.225692
 20
40.515695
 30
0.0
  0
LWPOLYLINE
  5
1b7
100
AcDbEntity
  8
0
 62
7
100
AcDbPolyline
 90
2
 70
0
 10
120.850189
 20
38.890448
 30
0.0
 10
120.850189
 20
38.890448
 30
0.0
  0
SPLINE
  5
1b8
100
AcDbEntity
  8
0
 62
7
100
AcDbSpline
 70
8
 71
3
 72
8
 73
4
 74
0
 40
0
 40
0
 40
0
 40
0
 40
1
 40
1
 40
1
 40
1
 10
102.225678
 20
40.515413
 30
0.0
 10
101.189923
 20
40.515413
 30
0.0
 10
100.350314
 20
39.676155
 30
0.0
 10
100.350314
 20
38.640752
 30
0.0
  0
SPLINE
  5
1b9
100
AcDbEntity
  8
0
 62
7
100
AcDbSpline
 70
8
 71
3
 72
8
 73
4
 74
0
 40
0
 40
0
 40
0
 40
0
 40
1
 40
1
 40
1
 40
1
 10
100.350314
 20
38.640752
 30
0.0
 10
100.350314
 20
37.605349
 30
0.0
 10
101.190275
 20
36.766091
 30
0.0
 10
102.225678
 20
36.766091
 30
0.0
  0
LWPOLYLINE
  5
1ba
100
AcDbEntity
  8
0
 62
7
100
AcDbPolyline
 90
2
 70
0
 10
105.225692
 20
40.515695
 30
0.0
 10
102.225678
 20
40.515413
 30
0.0
  0
SPLINE
  5
1bb
100
AcDbEntity
  8
0
 62
7
100
AcDbSpline
 70
8
 71
3
 72
8
 73
4
 74
0
 40
0
 40
0
 40
0
 40
0
 40
1
 40
1
 40
1
 40
1
 10
105.225692
 20
36.515266
 30
0.0
 10
105.225692
 20
35.963169
 30
0.0
 10
105.673014
 20
35.515494
 30
0.0
 10
106.225464
 20
35.515494
 30
0.0
  0
LWPOLYLINE
  5
1bc
100
AcDbEntity
  8
0
 62
7
100
AcDbPolyline
 90
4
 70
0
 10
102.225678
 20
36.766091
 30
0.0
 10
102.225678
 20
37.916146
 30
0.0
 10
105.225692
 20
37.916146
 30
0.0
 10
105.225692
 20
36.515266
 30
0.0
  0
SPLINE
  5
1bd
100
AcDbEntity
  8
0
 62
7
100
AcDbSpline
 70
8
 71
3
 72
8
 73
4
 74
0
 40
0
 40
0
 40
0
 40
0
 40
1
 40
1
 40
1
 40
1
 10
106.725700
 20
35.515494
 30
0.0
 10
106.853053
 20
35.515494
 30
0.0
 10
106.981464
 20
35.564530
 30
0.0
 10
107.079184
 20
35.661896
 30
0.0
  0
SPLINE
  5
1be
100
AcDbEntity
  8
0
 62
7
100
AcDbSpline
 70
8
 71
3
 72
8
 73
4
 74
0
 40
0
 40
0
 40
0
 40
0
 40
1
 40
1
 40
1
 40
1
 10
107.079184
 20
35.661896
 30
0.0
 10
107.274270
 20
35.857335
 30
0.0
 10
107.590359
 20
35.857335
 30
0.0
 10
107.786147
 20
35.661896
 30
0.0
  0
SPLINE
  5
1bf
100
AcDbEntity
  8
0
 62
7
100
AcDbSpline
 70
8
 71
3
 72
8
 73
4
 74
0
 40
0
 40
0
 40
0
 40
0
 40
1
 40
1
 40
1
 40
1
 10
107.786147
 20
35.661896
 30
0.0
 10
107.981234
 20
35.466457
 30
0.0
 10
108.298028
 20
35.466457
 30
0.0
 10
108.493114
 20
35.662179
 30
0.0
  0
SPLINE
  5
1c0
100
AcDbEntity
  8
0
 62
7
100
AcDbSpline
 70
8
 71
3
 72
8
 73
4
 74
0
 40
0
 40
0
 40
0
 40
0
 40
1
 40
1
 40
1
 40
1
 10
108.493114
 20
35.662179
 30
0.0
 10
108.688200
 20
35.857265
 30
0.0
 10
109.004995
 20
35.857265
 30
0.0
 10
109.200078
 20
35.661896
 30
0.0
  0
SPLINE
  5
1c1
100
AcDbEntity
  8
0
 62
7
100
AcDbSpline
 70
8
 71
3
 72
8
 73
4
 74
0
 40
0
 40
0
 40
0
 40
0
 40
1
 40
1
 40
1
 40
1
 10
109.200078
 20
35.661896
 30
0.0
 10
109.395164
 20
35.466457
 30
0.0
 10
109.711958
 20
35.466457
 30
0.0
 10
109.907045
 20
35.662179
 30
0.0
  0
SPLINE
  5
1c2
100
AcDbEntity
  8
0
 62
7
100
AcDbSpline
 70
8
 71
3
 72
8
 73
4
 74
0
 40
0
 40
0
 40
0
 40
0
 40
1
 40
1
 40
1
 40
1
 10
109.907045
 20
35.662179
 30
0.0
 10
110.102836
 20
35.857265
 30
0.0
 10
110.418922
 20
35.857265
 30
0.0
 10
110.614008
 20
35.661896
 30
0.0
  0
SPLINE
  5
1c3
100
AcDbEntity
  8
0
 62
7
100
AcDbSpline
 70
8
 71
3
 72
8
 73
4
 74
0
 40
0
 40
0
 40
0
 40
0
 40
1
 40
1
 40
1
 40
1
 10
110.614008
 20
35.661896
 30
0.0
 10
110.809800
 20
35.466457
 30
0.0
 10
111.125889
 20
35.466457
 30
0.0
 10
111.321681
 20
35.662179
 30
0.0
  0
SPLINE
  5
1c4
100
AcDbEntity
  8
0
 62
7
100
AcDbSpline
 70
8
 71
3
 72
8
 73
4
 74
0
 40
0
 40
0
 40
0
 40
0
 40
1
 40
1
 40
1
 40
1
 10
111.321681
 20
35.662179
 30
0.0
 10
111.516767
 20
35.857265
 30
0.0
 10
111.832853
 20
35.857265
 30
0.0
 10
112.028645
 20
35.661896
 30
0.0
  0
SPLINE
  5
1c5
100
AcDbEntity
  8
0
 62
7
100
AcDbSpline
 70
8
 71
3
 72
8
 73
4
 74
0
 40
0
 40
0
 40
0
 40
0
 40
1
 40
1
 40
1
 40
1
 10
112.028645
 20
35.661896
 30
0.0
 10
112.125658
 20
35.564530
 30
0.0
 10
112.254070
 20
35.515494
 30
0.0
 10
112.382128
 20
35.515494
 30
0.0
  0
LWPOLYLINE
  5
1c6
100
AcDbEntity
  8
0
 62
7
100
AcDbPolyline
 90
2
 70
0
 10
106.225464
 20
35.515494
 30
0.0
 10
106.725700
 20
35.515494
 30
0.0
  0
SPLINE
  5
1c7
100
AcDbEntity
  8
0
 62
7
100
AcDbSpline
 70
8
 71
3
 72
8
 73
4
 74
0
 40
0
 40
0
 40
0
 40
0
 40
1
 40
1
 40
1
 40
1
 10
234.269475
 20
35.515776
 30
0.0
 10
234.397530
 20
35.515776
 30
0.0
 10
234.525944
 20
35.564812
 30
0.0
 10
234.622958
 20
35.662179
 30
0.0
  0
SPLINE
  5
1c8
100
AcDbEntity
  8
0
 62
7
100
AcDbSpline
 70
8
 71
3
 72
8
 73
4
 74
0
 40
0
 40
0
 40
0
 40
0
 40
1
 40
1
 40
1
 40
1
 10
234.622958
 20
35.662179
 30
0.0
 10
234.818750
 20
35.857617
 30
0.0
 10
235.134833
 20
35.857617
 30
0.0
 10
235.329922
 20
35.662461
 30
0.0
  0
SPLINE
  5
1c9
100
AcDbEntity
  8
0
 62
7
100
AcDbSpline
 70
8
 71
3
 72
8
 73
4
 74
0
 40
0
 40
0
 40
0
 40
0
 40
1
 40
1
 40
1
 40
1
 10
235.329922
 20
35.662461
 30
0.0
 10
235.525714
 20
35.466669
 30
0.0
 10
235.841800
 20
35.466669
 30
0.0
 10
236.037594
 20
35.662179
 30
0.0
  0
SPLINE
  5
1ca
100
AcDbEntity
  8
0
 62
7
100
AcDbSpline
 70
8
 71
3
 72
8
 73
4
 74
0
 40
0
 40
0
 40
0
 40
0
 40
1
 40
1
 40
1
 40
1
 10
236.037594
 20
35.662179
 30
0.0
 10
236.232675
 20
35.857617
 30
0.0
 10
236.548766
 20
35.857617
 30
0.0
 10
236.744205
 20
35.662461
 30
0.0
  0
SPLINE
  5
1cb
100
AcDbEntity
  8
0
 62
7
100
AcDbSpline
 70
8
 71
3
 72
8
 73
4
 74
0
 40
0
 40
0
 40
0
 40
0
 40
1
 40
1
 40
1
 40
1
 10
236.744205
 20
35.662461
 30
0.0
 10
236.939288
 20
35.466669
 30
0.0
 10
237.256086
 20
35.466669
 30
0.0
 10
237.451172
 20
35.662179
 30
0.0
  0
SPLINE
  5
1cc
100
AcDbEntity
  8
0
 62
7
100
AcDbSpline
 70
8
 71
3
 72
8
 73
4
 74
0
 40
0
 40
0
 40
0
 40
0
 40
1
 40
1
 40
1
 40
1
 10
237.451172
 20
35.662179
 30
0.0
 10
237.646608
 20
35.857617
 30
0.0
 10
237.963402
 20
35.857617
 30
0.0
 10
238.158486
 20
35.662461
 30
0.0
  0
SPLINE
  5
1cd
100
AcDbEntity
  8
0
 62
7
100
AcDbSpline
 70
8
 71
3
 72
8
 73
4
 74
0
 40
0
 40
0
 40
0
 40
0
 40
1
 40
1
 40
1
 40
1
 10
238.158486
 20
35.662461
 30
0.0
 10
238.353575
 20
35.466669
 30
0.0
 10
238.670366
 20
35.466669
 30
0.0
 10
238.865450
 20
35.662179
 30
0.0
  0
SPLINE
  5
1ce
100
AcDbEntity
  8
0
 62
7
100
AcDbSpline
 70
8
 71
3
 72
8
 73
4
 74
0
 40
0
 40
0
 40
0
 40
0
 40
1
 40
1
 40
1
 40
1
 10
238.865450
 20
35.662179
 30
0.0
 10
239.061244
 20
35.857617
 30
0.0
 10
239.377333
 20
35.857617
 30
0.0
 10
239.572419
 20
35.662179
 30
0.0
  0
SPLINE
  5
1cf
100
AcDbEntity
  8
0
 62
7
100
AcDbSpline
 70
8
 71
3
 72
8
 73
4
 74
0
 40
0
 40
0
 40
0
 40
0
 40
1
 40
1
 40
1
 40
1
 10
239.572419
 20
35.662179
 30
0.0
 10
239.670136
 20
35.564812
 30
0.0
 10
239.798550
 20
35.515776
 30
0.0
 10
239.925902
 20
35.515776
 30
0.0
  0
LWPOLYLINE
  5
1d0
100
AcDbEntity
  8
0
 62
7
100
AcDbPolyline
 90
3
 70
0
 10
112.382128
 20
35.515494
 30
0.0
 10
140.810432
 20
35.515494
 30
0.0
 10
234.269475
 20
35.515776
 30
0.0
  0
SPLINE
  5
1d1
100
AcDbEntity
  8
0
 62
7
100
AcDbSpline
 70
8
 71
3
 72
8
 73
4
 74
0
 40
0
 40
0
 40
0
 40
0
 40
1
 40
1
 40
1
 40
1
 10
240.426138
 20
35.515776
 30
0.0
 10
240.978586
 20
35.515776
 30
0.0
 10
241.977836
 20
36.501747
 30
0.0
 10
241.425911
 20
36.515548
 30
0.0
  0
LWPOLYLINE
  5
1d2
100
AcDbEntity
  8
0
 62
7
100
AcDbPolyline
 90
2
 70
0
 10
239.925902
 20
35.515776
 30
0.0
 10
240.426138
 20
35.515776
 30
0.0
  0
SPLINE
  5
1d3
100
AcDbEntity
  8
0
 62
7
100
AcDbSpline
 70
8
 71
3
 72
8
 73
4
 74
0
 40
0
 40
0
 40
0
 40
0
 40
1
 40
1
 40
1
 40
1
 10
244.575855
 20
36.765667
 30
0.0
 10
245.611605
 20
36.765667
 30
0.0
 10
246.450513
 20
37.604926
 30
0.0
 10
246.450513
 20
38.640329
 30
0.0
  0
SPLINE
  5
1d4
100
AcDbEntity
  8
0
 62
7
100
AcDbSpline
 70
8
 71
3
 72
8
 73
4
 74
0
 40
0
 40
0
 40
0
 40
0
 40
1
 40
1
 40
1
 40
1
 10
246.450513
 20
38.640329
 30
0.0
 10
246.450513
 20
39.675731
 30
0.0
 10
245.611255
 20
40.514990
 30
0.0
 10
244.575855
 20
40.514990
 30
0.0
  0
LWPOLYLINE
  5
1d5
100
AcDbEntity
  8
0
 62
7
100
AcDbPolyline
 90
4
 70
0
 10
241.425911
 20
36.515548
 30
0.0
 10
241.425911
 20
37.915723
 30
0.0
 10
244.575855
 20
37.915723
 30
0.0
 10
244.575855
 20
36.765667
 30
0.0
  0
SPLINE
  5
1d6
100
AcDbEntity
  8
0
 62
7
100
AcDbSpline
 70
8
 71
3
 72
8
 73
4
 74
0
 40
0
 40
0
 40
0
 40
0
 40
1
 40
1
 40
1
 40
1
 10
241.425911
 20
40.515272
 30
0.0
 10
238.292191
 20
40.515272
 30
0.0
 10
235.766305
 20
40.053133
 30
0.0
 10
234.150236
 20
39.431891
 30
0.0
  0
SPLINE
  5
1d7
100
AcDbEntity
  8
0
 62
7
100
AcDbSpline
 70
8
 71
3
 72
8
 73
4
 74
0
 40
0
 40
0
 40
0
 40
0
 40
1
 40
1
 40
1
 40
1
 10
234.150236
 20
39.431891
 30
0.0
 10
232.499239
 20
38.796539
 30
0.0
 10
229.792028
 20
38.265255
 30
0.0
 10
226.426183
 20
38.265255
 30
0.0
  0
SPLINE
  5
1d8
100
AcDbEntity
  8
0
 62
7
100
AcDbSpline
 70
8
 71
3
 72
8
 73
4
 74
0
 40
0
 40
0
 40
0
 40
0
 40
1
 40
1
 40
1
 40
1
 10
226.426183
 20
38.265255
 30
0.0
 10
226.080814
 20
38.265255
 30
0.0
 10
225.801414
 20
38.545008
 30
0.0
 10
225.801414
 20
38.890025
 30
0.0
  0
LWPOLYLINE
  5
1d9
100
AcDbEntity
  8
0
 62
7
100
AcDbPolyline
 90
2
 70
0
 10
244.575855
 20
40.514990
 30
0.0
 10
241.425911
 20
40.515272
 30
0.0
  0
SPLINE
  5
1da
100
AcDbEntity
  8
0
 62
7
100
AcDbSpline
 70
8
 71
3
 72
8
 73
4
 74
0
 40
0
 40
0
 40
0
 40
0
 40
1
 40
1
 40
1
 40
1
 10
225.801414
 20
38.890025
 30
0.0
 10
225.801414
 20
39.235394
 30
0.0
 10
226.081167
 20
39.514794
 30
0.0
 10
226.426183
 20
39.514794
 30
0.0
  0
SPLINE
  5
1db
100
AcDbEntity
  8
0
 62
7
100
AcDbSpline
 70
8
 71
3
 72
8
 73
4
 74
0
 40
0
 40
0
 40
0
 40
0
 40
1
 40
1
 40
1
 40
1
 10
226.426183
 20
39.514794
 30
0.0
 10
229.559900
 20
39.514794
 30
0.0
 10
232.085786
 20
39.976580
 30
0.0
 10
233.701503
 20
40.597822
 30
0.0
  0
SPLINE
  5
1dc
100
AcDbEntity
  8
0
 62
7
100
AcDbSpline
 70
8
 71
3
 72
8
 73
4
 74
0
 40
0
 40
0
 40
0
 40
0
 40
1
 40
1
 40
1
 40
1
 10
233.701503
 20
40.597822
 30
0.0
 10
235.352500
 20
41.233175
 30
0.0
 10
238.059711
 20
41.764811
 30
0.0
 10
241.425558
 20
41.764811
 30
0.0
  0
LWPOLYLINE
  5
1dd
100
AcDbEntity
  8
0
 62
7
100
AcDbPolyline
 90
2
 70
0
 10
225.801414
 20
38.890025
 30
0.0
 10
225.801414
 20
38.890025
 30
0.0
  0
SPLINE
  5
1de
100
AcDbEntity
  8
0
 62
7
100
AcDbSpline
 70
8
 71
3
 72
8
 73
4
 74
0
 40
0
 40
0
 40
0
 40
0
 40
1
 40
1
 40
1
 40
1
 10
244.575499
 20
45.014952
 30
0.0
 10
244.575499
 20
45.567050
 30
0.0
 10
244.128180
 20
46.015077
 30
0.0
 10
243.575730
 20
46.015077
 30
0.0
  0
LWPOLYLINE
  5
1df
100
AcDbEntity
  8
0
 62
7
100
AcDbPolyline
 90
3
 70
0
 10
241.425558
 20
41.764811
 30
0.0
 10
244.575499
 20
41.764811
 30
0.0
 10
244.575499
 20
45.014952
 30
0.0
  0
SPLINE
  5
1e0
100
AcDbEntity
  8
0
 62
7
100
AcDbSpline
 70
8
 71
3
 72
8
 73
4
 74
0
 40
0
 40
0
 40
0
 40
0
 40
1
 40
1
 40
1
 40
1
 10
243.575730
 20
66.314676
 30
0.0
 10
244.128180
 20
66.314676
 30
0.0
 10
244.575499
 20
66.762703
 30
0.0
 10
244.575499
 20
67.314801
 30
0.0
  0
LWPOLYLINE
  5
1e1
100
AcDbEntity
  8
0
 62
7
100
AcDbPolyline
 90
4
 70
0
 10
243.575730
 20
46.015077
 30
0.0
 10
241.475297
 20
46.015077
 30
0.0
 10
241.475297
 20
66.314676
 30
0.0
 10
243.575730
 20
66.314676
 30
0.0
  0
SPLINE
  5
1e2
100
AcDbEntity
  8
0
 62
7
100
AcDbSpline
 70
8
 71
3
 72
8
 73
4
 74
0
 40
0
 40
0
 40
0
 40
0
 40
1
 40
1
 40
1
 40
1
 10
244.575499
 20
71.814834
 30
0.0
 10
245.611252
 20
71.814834
 30
0.0
 10
246.450158
 20
72.654445
 30
0.0
 10
246.450158
 20
73.689848
 30
0.0
  0
SPLINE
  5
1e3
100
AcDbEntity
  8
0
 62
7
100
AcDbSpline
 70
8
 71
3
 72
8
 73
4
 74
0
 40
0
 40
0
 40
0
 40
0
 40
1
 40
1
 40
1
 40
1
 10
246.450158
 20
73.689848
 30
0.0
 10
246.450158
 20
74.725251
 30
0.0
 10
245.610899
 20
75.564509
 30
0.0
 10
244.575499
 20
75.564509
 30
0.0
  0
LWPOLYLINE
  5
1e4
100
AcDbEntity
  8
0
 62
7
100
AcDbPolyline
 90
2
 70
0
 10
244.575499
 20
67.314801
 30
0.0
 10
244.575499
 20
71.814834
 30
0.0
  0
SPLINE
  5
1e5
100
AcDbEntity
  8
0
 62
7
100
AcDbSpline
 70
8
 71
3
 72
8
 73
4
 74
0
 40
0
 40
0
 40
0
 40
0
 40
1
 40
1
 40
1
 40
1
 10
241.425202
 20
75.814628
 30
0.0
 10
241.425202
 20
76.366373
 30
0.0
 10
240.977883
 20
76.814401
 30
0.0
 10
240.425430
 20
76.814401
 30
0.0
  0
LWPOLYLINE
  5
1e6
100
AcDbEntity
  8
0
 62
7
100
AcDbPolyline
 90
4
 70
0
 10
244.575499
 20
75.564509
 30
0.0
 10
244.575499
 20
74.414453
 30
0.0
 10
241.425202
 20
74.414453
 30
0.0
 10
241.425202
 20
75.814628
 30
0.0
  0
SPLINE
  5
1e7
100
AcDbEntity
  8
0
 62
7
100
AcDbSpline
 70
8
 71
3
 72
8
 73
4
 74
0
 40
0
 40
0
 40
0
 40
0
 40
1
 40
1
 40
1
 40
1
 10
106.225111
 20
76.814118
 30
0.0
 10
105.672661
 20
76.814118
 30
0.0
 10
105.225339
 20
76.366091
 30
0.0
 10
105.225339
 20
75.814346
 30
0.0
  0
LWPOLYLINE
  5
1e8
100
AcDbEntity
  8
0
 62
7
100
AcDbPolyline
 90
2
 70
0
 10
240.425430
 20
76.814401
 30
0.0
 10
106.225111
 20
76.814118
 30
0.0
  0
SPLINE
  5
1e9
100
AcDbEntity
  8
0
 62
7
100
AcDbSpline
 70
8
 71
3
 72
8
 73
4
 74
0
 40
0
 40
0
 40
0
 40
0
 40
1
 40
1
 40
1
 40
1
 10
102.225325
 20
75.564227
 30
0.0
 10
101.189570
 20
75.564227
 30
0.0
 10
100.349962
 20
74.724968
 30
0.0
 10
100.349962
 20
73.689566
 30
0.0
  0
SPLINE
  5
1ea
100
AcDbEntity
  8
0
 62
7
100
AcDbSpline
 70
8
 71
3
 72
8
 73
4
 74
0
 40
0
 40
0
 40
0
 40
0
 40
1
 40
1
 40
1
 40
1
 10
100.349962
 20
73.689566
 30
0.0
 10
100.349962
 20
72.654163
 30
0.0
 10
101.189923
 20
71.814552
 30
0.0
 10
102.225325
 20
71.814552
 30
0.0
  0
LWPOLYLINE
  5
1eb
100
AcDbEntity
  8
0
 62
7
100
AcDbPolyline
 90
4
 70
0
 10
105.225339
 20
75.814346
 30
0.0
 10
105.225339
 20
74.414171
 30
0.0
 10
102.225325
 20
74.414171
 30
0.0
 10
102.225325
 20
75.564227
 30
0.0
  0
LWPOLYLINE
  5
1ec
100
AcDbEntity
  8
0
 62
7
100
AcDbPolyline
 90
2
 70
0
 10
102.225325
 20
71.814552
 30
0.0
 10
102.225325
 20
67.315224
 30
0.0
  0
LWPOLYLINE
  5
1ed
100
AcDbEntity
  8
0
 62
7
100
AcDbPolyline
 90
5
 70
0
 10
125.024964
 20
41.013744
 30
0.0
 10
135.624962
 20
41.014873
 30
0.0
 10
135.624962
 20
37.714871
 30
0.0
 10
125.024964
 20
37.713742
 30
0.0
 10
125.024964
 20
41.013744
 30
0.0
  0
LWPOLYLINE
  5
1ee
100
AcDbEntity
  8
0
 62
7
100
AcDbPolyline
 90
5
 70
0
 10
125.024964
 20
74.313892
 30
0.0
 10
135.624962
 20
74.315021
 30
0.0
 10
135.624962
 20
71.014974
 30
0.0
 10
125.024964
 20
71.013845
 30
0.0
 10
125.024964
 20
74.313892
 30
0.0
  0
LWPOLYLINE
  5
1ef
100
AcDbEntity
  8
0
 62
7
100
AcDbPolyline
 90
5
 70
0
 10
211.325353
 20
74.313892
 30
0.0
 10
221.925354
 20
74.315021
 30
0.0
 10
221.925354
 20
71.014974
 30
0.0
 10
211.325353
 20
71.013845
 30
0.0
 10
211.325353
 20
74.313892
 30
0.0
  0
LWPOLYLINE
  5
1f0
100
AcDbEntity
  8
0
 62
7
100
AcDbPolyline
 90
5
 70
0
 10
211.325353
 20
41.013744
 30
0.0
 10
221.925354
 20
41.014873
 30
0.0
 10
221.925354
 20
37.714871
 30
0.0
 10
211.325353
 20
37.713742
 30
0.0
 10
211.325353
 20
41.013744
 30
0.0
  0
LWPOLYLINE
  5
1f1
100
AcDbEntity
  8
0
 62
7
100
AcDbPolyline
 90
6
 70
0
 10
168.175353
 20
41.013744
 30
0.0
 10
178.775354
 20
41.014873
 30
0.0
 10
178.775354
 20
37.714871
 30
0.0
 10
168.175353
 20
37.713742
 30
0.0
 10
168.175353
 20
39.000732
 30
0.0
 10
168.175353
 20
41.013744
 30
0.0
  0
SPLINE
  5
1f2
100
AcDbEntity
  8
0
 62
7
100
AcDbSpline
 70
8
 71
3
 72
8
 73
4
 74
0
 40
0
 40
0
 40
0
 40
0
 40
1
 40
1
 40
1
 40
1
 10
130.168548
 20
166.813636
 30
0.0
 10
129.616945
 20
166.813634
 30
0.0
 10
129.163394
 20
166.368784
 30
0.0
 10
129.163394
 20
165.817039
 30
0.0
  0
LWPOLYLINE
  5
1f3
100
AcDbEntity
  8
0
 62
7
100
AcDbPolyline
 90
6
 70
0
 10
168.175353
 20
74.313745
 30
0.0
 10
178.775354
 20
74.314874
 30
0.0
 10
178.775354
 20
71.014872
 30
0.0
 10
168.175353
 20
71.013743
 30
0.0
 10
168.175353
 20
72.300733
 30
0.0
 10
168.175353
 20
74.313745
 30
0.0
  0
SPLINE
  5
1f4
100
AcDbEntity
  8
0
 62
7
100
AcDbSpline
 70
8
 71
3
 72
8
 73
4
 74
0
 40
0
 40
0
 40
0
 40
0
 40
1
 40
1
 40
1
 40
1
 10
110.171281
 20
163.815022
 30
0.0
 10
109.618969
 20
163.815022
 30
0.0
 10
109.174943
 20
163.370170
 30
0.0
 10
109.174943
 20
162.818425
 30
0.0
  0
LWPOLYLINE
  5
1f5
100
AcDbEntity
  8
0
 62
7
100
AcDbPolyline
 90
3
 70
0
 10
129.163394
 20
165.817039
 30
0.0
 10
129.163394
 20
163.815022
 30
0.0
 10
110.171281
 20
163.815022
 30
0.0
  0
SPLINE
  5
1f6
100
AcDbEntity
  8
0
 62
7
100
AcDbSpline
 70
8
 71
3
 72
8
 73
4
 74
0
 40
0
 40
0
 40
0
 40
0
 40
1
 40
1
 40
1
 40
1
 10
109.174943
 20
83.510958
 30
0.0
 10
109.174943
 20
82.959214
 30
0.0
 10
109.618969
 20
82.514361
 30
0.0
 10
110.171281
 20
82.514361
 30
0.0
  0
LWPOLYLINE
  5
1f7
100
AcDbEntity
  8
0
 62
7
100
AcDbPolyline
 90
3
 70
0
 10
109.174943
 20
162.818425
 30
0.0
 10
109.174943
 20
130.769069
 30
0.0
 10
109.174943
 20
83.510958
 30
0.0
  0
SPLINE
  5
1f8
100
AcDbEntity
  8
0
 62
7
100
AcDbSpline
 70
8
 71
3
 72
8
 73
4
 74
0
 40
0
 40
0
 40
0
 40
0
 40
1
 40
1
 40
1
 40
1
 10
129.163394
 20
80.512344
 30
0.0
 10
129.135849
 20
79.961288
 30
0.0
 10
129.616945
 20
79.515747
 30
0.0
 10
130.168548
 20
79.515747
 30
0.0
  0
LWPOLYLINE
  5
1f9
100
AcDbEntity
  8
0
 62
7
100
AcDbPolyline
 90
3
 70
0
 10
110.171281
 20
82.514361
 30
0.0
 10
129.163394
 20
82.514361
 30
0.0
 10
129.163394
 20
80.512344
 30
0.0
  0
SPLINE
  5
1fa
100
AcDbEntity
  8
0
 62
7
100
AcDbSpline
 70
8
 71
3
 72
8
 73
4
 74
0
 40
0
 40
0
 40
0
 40
0
 40
1
 40
1
 40
1
 40
1
 10
138.465475
 20
79.515747
 30
0.0
 10
139.017076
 20
79.515747
 30
0.0
 10
139.461810
 20
79.960600
 30
0.0
 10
139.461810
 20
80.512344
 30
0.0
  0
LWPOLYLINE
  5
1fb
100
AcDbEntity
  8
0
 62
7
100
AcDbPolyline
 90
2
 70
0
 10
130.168548
 20
79.515747
 30
0.0
 10
138.465475
 20
79.515747
 30
0.0
  0
SPLINE
  5
1fc
100
AcDbEntity
  8
0
 62
7
100
AcDbSpline
 70
8
 71
3
 72
8
 73
4
 74
0
 40
0
 40
0
 40
0
 40
0
 40
1
 40
1
 40
1
 40
1
 10
172.156755
 20
80.512344
 30
0.0
 10
172.129210
 20
79.961288
 30
0.0
 10
172.601489
 20
79.515747
 30
0.0
 10
173.153093
 20
79.515747
 30
0.0
  0
LWPOLYLINE
  5
1fd
100
AcDbEntity
  8
0
 62
7
100
AcDbPolyline
 90
4
 70
0
 10
139.461810
 20
80.512344
 30
0.0
 10
139.461810
 20
82.514361
 30
0.0
 10
172.156755
 20
82.514361
 30
0.0
 10
172.156755
 20
80.512344
 30
0.0
  0
SPLINE
  5
1fe
100
AcDbEntity
  8
0
 62
7
100
AcDbSpline
 70
8
 71
3
 72
8
 73
4
 74
0
 40
0
 40
0
 40
0
 40
0
 40
1
 40
1
 40
1
 40
1
 10
181.450017
 20
79.515747
 30
0.0
 10
182.001620
 20
79.515747
 30
0.0
 10
182.455171
 20
79.960600
 30
0.0
 10
182.455171
 20
80.512344
 30
0.0
  0
LWPOLYLINE
  5
1ff
100
AcDbEntity
  8
0
 62
7
100
AcDbPolyline
 90
2
 70
0
 10
173.153093
 20
79.515747
 30
0.0
 10
181.450017
 20
79.515747
 30
0.0
  0
SPLINE
  5
200
100
AcDbEntity
  8
0
 62
7
100
AcDbSpline
 70
8
 71
3
 72
8
 73
4
 74
0
 40
0
 40
0
 40
0
 40
0
 40
1
 40
1
 40
1
 40
1
 10
215.447900
 20
80.512344
 30
0.0
 10
215.447900
 20
79.960603
 30
0.0
 10
215.892281
 20
79.515747
 30
0.0
 10
216.444237
 20
79.515747
 30
0.0
  0
LWPOLYLINE
  5
201
100
AcDbEntity
  8
0
 62
7
100
AcDbPolyline
 90
4
 70
0
 10
182.455171
 20
80.512344
 30
0.0
 10
182.455171
 20
82.514361
 30
0.0
 10
215.447900
 20
82.514361
 30
0.0
 10
215.447900
 20
80.512344
 30
0.0
  0
SPLINE
  5
202
100
AcDbEntity
  8
0
 62
7
100
AcDbSpline
 70
8
 71
3
 72
8
 73
4
 74
0
 40
0
 40
0
 40
0
 40
0
 40
1
 40
1
 40
1
 40
1
 10
224.441379
 20
79.515747
 30
0.0
 10
224.992983
 20
79.515747
 30
0.0
 10
225.437717
 20
79.960600
 30
0.0
 10
225.437717
 20
80.512344
 30
0.0
  0
LWPOLYLINE
  5
203
100
AcDbEntity
  8
0
 62
7
100
AcDbPolyline
 90
2
 70
0
 10
216.444237
 20
79.515747
 30
0.0
 10
224.441379
 20
79.515747
 30
0.0
  0
SPLINE
  5
204
100
AcDbEntity
  8
0
 62
7
100
AcDbSpline
 70
8
 71
3
 72
8
 73
4
 74
0
 40
0
 40
0
 40
0
 40
0
 40
1
 40
1
 40
1
 40
1
 10
244.438647
 20
82.514361
 30
0.0
 10
244.990250
 20
82.514361
 30
0.0
 10
245.434985
 20
82.959214
 30
0.0
 10
245.434985
 20
83.510958
 30
0.0
  0
LWPOLYLINE
  5
205
100
AcDbEntity
  8
0
 62
7
100
AcDbPolyline
 90
3
 70
0
 10
225.437717
 20
80.512344
 30
0.0
 10
225.437717
 20
82.514361
 30
0.0
 10
244.438647
 20
82.514361
 30
0.0
  0
SPLINE
  5
206
100
AcDbEntity
  8
0
 62
7
100
AcDbSpline
 70
8
 71
3
 72
8
 73
4
 74
0
 40
0
 40
0
 40
0
 40
0
 40
1
 40
1
 40
1
 40
1
 10
245.434985
 20
162.818425
 30
0.0
 10
245.434985
 20
163.370170
 30
0.0
 10
244.990250
 20
163.815022
 30
0.0
 10
244.438647
 20
163.815022
 30
0.0
  0
LWPOLYLINE
  5
207
100
AcDbEntity
  8
0
 62
7
100
AcDbPolyline
 90
2
 70
0
 10
245.434985
 20
83.510958
 30
0.0
 10
245.434985
 20
162.818425
 30
0.0
  0
SPLINE
  5
208
100
AcDbEntity
  8
0
 62
7
100
AcDbSpline
 70
8
 71
3
 72
8
 73
4
 74
0
 40
0
 40
0
 40
0
 40
0
 40
1
 40
1
 40
1
 40
1
 10
225.437717
 20
165.817039
 30
0.0
 10
225.437717
 20
166.368784
 30
0.0
 10
224.992983
 20
166.813636
 30
0.0
 10
224.441379
 20
166.813636
 30
0.0
  0
LWPOLYLINE
  5
209
100
AcDbEntity
  8
0
 62
7
100
AcDbPolyline
 90
3
 70
0
 10
244.438647
 20
163.815022
 30
0.0
 10
225.437717
 20
163.815022
 30
0.0
 10
225.437717
 20
165.817039
 30
0.0
  0
SPLINE
  5
20a
100
AcDbEntity
  8
0
 62
7
100
AcDbSpline
 70
8
 71
3
 72
8
 73
4
 74
0
 40
0
 40
0
 40
0
 40
0
 40
1
 40
1
 40
1
 40
1
 10
216.444237
 20
166.813636
 30
0.0
 10
215.892281
 20
166.813636
 30
0.0
 10
215.447900
 20
166.368784
 30
0.0
 10
215.447900
 20
165.817039
 30
0.0
  0
LWPOLYLINE
  5
20b
100
AcDbEntity
  8
0
 62
7
100
AcDbPolyline
 90
2
 70
0
 10
224.441379
 20
166.813636
 30
0.0
 10
216.444237
 20
166.813636
 30
0.0
  0
SPLINE
  5
20c
100
AcDbEntity
  8
0
 62
7
100
AcDbSpline
 70
8
 71
3
 72
8
 73
4
 74
0
 40
0
 40
0
 40
0
 40
0
 40
1
 40
1
 40
1
 40
1
 10
182.455171
 20
165.817039
 30
0.0
 10
182.455171
 20
166.368784
 30
0.0
 10
182.001620
 20
166.813636
 30
0.0
 10
181.450017
 20
166.813636
 30
0.0
  0
LWPOLYLINE
  5
20d
100
AcDbEntity
  8
0
 62
7
100
AcDbPolyline
 90
4
 70
0
 10
215.447900
 20
165.817039
 30
0.0
 10
215.447900
 20
163.815022
 30
0.0
 10
182.455171
 20
163.815022
 30
0.0
 10
182.455171
 20
165.817039
 30
0.0
  0
SPLINE
  5
20e
100
AcDbEntity
  8
0
 62
7
100
AcDbSpline
 70
8
 71
3
 72
8
 73
4
 74
0
 40
0
 40
0
 40
0
 40
0
 40
1
 40
1
 40
1
 40
1
 10
173.153093
 20
166.813636
 30
0.0
 10
172.601489
 20
166.813636
 30
0.0
 10
172.156755
 20
166.368784
 30
0.0
 10
172.156755
 20
165.817039
 30
0.0
  0
LWPOLYLINE
  5
20f
100
AcDbEntity
  8
0
 62
7
100
AcDbPolyline
 90
2
 70
0
 10
181.450017
 20
166.813636
 30
0.0
 10
173.153093
 20
166.813636
 30
0.0
  0
SPLINE
  5
210
100
AcDbEntity
  8
0
 62
7
100
AcDbSpline
 70
8
 71
3
 72
8
 73
4
 74
0
 40
0
 40
0
 40
0
 40
0
 40
1
 40
1
 40
1
 40
1
 10
139.461810
 20
165.817039
 30
0.0
 10
139.461810
 20
166.368784
 30
0.0
 10
139.017076
 20
166.813639
 30
0.0
 10
138.465475
 20
166.813636
 30
0.0
  0
LWPOLYLINE
  5
211
100
AcDbEntity
  8
0
 62
7
100
AcDbPolyline
 90
4
 70
0
 10
172.156755
 20
165.817039
 30
0.0
 10
172.156755
 20
163.815022
 30
0.0
 10
139.461810
 20
163.815022
 30
0.0
 10
139.461810
 20
165.817039
 30
0.0
  0
SPLINE
  5
212
100
AcDbEntity
  8
0
 62
2
100
AcDbSpline
 70
8
 71
3
 72
8
 73
4
 74
0
 40
0
 40
0
 40
0
 40
0
 40
1
 40
1
 40
1
 40
1
 10
182.617567
 20
49.614353
 30
0.0
 10
182.617567
 20
47.768284
 30
0.0
 10
181.121030
 20
46.271750
 30
0.0
 10
179.274967
 20
46.271750
 30
0.0
  0
SPLINE
  5
213
100
AcDbEntity
  8
0
 62
2
100
AcDbSpline
 70
8
 71
3
 72
8
 73
4
 74
0
 40
0
 40
0
 40
0
 40
0
 40
1
 40
1
 40
1
 40
1
 10
179.274967
 20
46.271750
 30
0.0
 10
177.428898
 20
46.271750
 30
0.0
 10
175.932363
 20
47.768284
 30
0.0
 10
175.932363
 20
49.614353
 30
0.0
  0
SPLINE
  5
214
100
AcDbEntity
  8
0
 62
2
100
AcDbSpline
 70
8
 71
3
 72
8
 73
4
 74
0
 40
0
 40
0
 40
0
 40
0
 40
1
 40
1
 40
1
 40
1
 10
175.932363
 20
49.614353
 30
0.0
 10
175.932363
 20
51.460420
 30
0.0
 10
177.428898
 20
52.956954
 30
0.0
 10
179.274967
 20
52.956954
 30
0.0
  0
SPLINE
  5
215
100
AcDbEntity
  8
0
 62
2
100
AcDbSpline
 70
8
 71
3
 72
8
 73
4
 74
0
 40
0
 40
0
 40
0
 40
0
 40
1
 40
1
 40
1
 40
1
 10
179.274967
 20
52.956954
 30
0.0
 10
181.121030
 20
52.956954
 30
0.0
 10
182.617567
 20
51.460420
 30
0.0
 10
182.617567
 20
49.614353
 30
0.0
  0
LWPOLYLINE
  5
216
100
AcDbEntity
  8
0
 62
7
100
AcDbPolyline
 90
2
 70
0
 10
138.465475
 20
166.813636
 30
0.0
 10
130.168548
 20
166.813636
 30
0.0
  0
SPLINE
  5
217
100
AcDbEntity
  8
0
 62
2
100
AcDbSpline
 70
8
 71
3
 72
8
 73
4
 74
0
 40
0
 40
0
 40
0
 40
0
 40
1
 40
1
 40
1
 40
1
 10
219.360166
 20
53.614351
 30
0.0
 10
219.360166
 20
49.922216
 30
0.0
 10
216.367095
 20
46.929147
 30
0.0
 10
212.674968
 20
46.929147
 30
0.0
  0
SPLINE
  5
218
100
AcDbEntity
  8
0
 62
2
100
AcDbSpline
 70
8
 71
3
 72
8
 73
4
 74
0
 40
0
 40
0
 40
0
 40
0
 40
1
 40
1
 40
1
 40
1
 10
212.674968
 20
46.929147
 30
0.0
 10
208.982829
 20
46.929147
 30
0.0
 10
205.989761
 20
49.922216
 30
0.0
 10
205.989761
 20
53.614351
 30
0.0
  0
SPLINE
  5
219
100
AcDbEntity
  8
0
 62
2
100
AcDbSpline
 70
8
 71
3
 72
8
 73
4
 74
0
 40
0
 40
0
 40
0
 40
0
 40
1
 40
1
 40
1
 40
1
 10
205.989761
 20
53.614351
 30
0.0
 10
205.989761
 20
57.306484
 30
0.0
 10
208.982829
 20
60.299549
 30
0.0
 10
212.674968
 20
60.299549
 30
0.0
  0
SPLINE
  5
21a
100
AcDbEntity
  8
0
 62
2
100
AcDbSpline
 70
8
 71
3
 72
8
 73
4
 74
0
 40
0
 40
0
 40
0
 40
0
 40
1
 40
1
 40
1
 40
1
 10
212.674968
 20
60.299549
 30
0.0
 10
216.367095
 20
60.299549
 30
0.0
 10
219.360166
 20
57.306484
 30
0.0
 10
219.360166
 20
53.614351
 30
0.0
  0
LWPOLYLINE
  5
21b
100
AcDbEntity
  8
0
 62
2
100
AcDbPolyline
 90
2
 70
0
 10
182.617567
 20
49.614353
 30
0.0
 10
182.617567
 20
49.614353
 30
0.0
  0
SPLINE
  5
21c
100
AcDbEntity
  8
0
 62
2
100
AcDbSpline
 70
8
 71
3
 72
8
 73
4
 74
0
 40
0
 40
0
 40
0
 40
0
 40
1
 40
1
 40
1
 40
1
 10
229.372592
 20
54.114353
 30
0.0
 10
229.372592
 20
51.740839
 30
0.0
 10
227.448477
 20
49.816721
 30
0.0
 10
225.074965
 20
49.816721
 30
0.0
  0
SPLINE
  5
21d
100
AcDbEntity
  8
0
 62
2
100
AcDbSpline
 70
8
 71
3
 72
8
 73
4
 74
0
 40
0
 40
0
 40
0
 40
0
 40
1
 40
1
 40
1
 40
1
 10
225.074965
 20
49.816721
 30
0.0
 10
222.701448
 20
49.816721
 30
0.0
 10
220.777333
 20
51.740839
 30
0.0
 10
220.777333
 20
54.114353
 30
0.0
  0
SPLINE
  5
21e
100
AcDbEntity
  8
0
 62
2
100
AcDbSpline
 70
8
 71
3
 72
8
 73
4
 74
0
 40
0
 40
0
 40
0
 40
0
 40
1
 40
1
 40
1
 40
1
 10
220.777333
 20
54.114353
 30
0.0
 10
220.777333
 20
56.487867
 30
0.0
 10
222.701448
 20
58.411982
 30
0.0
 10
225.074965
 20
58.411982
 30
0.0
  0
SPLINE
  5
21f
100
AcDbEntity
  8
0
 62
2
100
AcDbSpline
 70
8
 71
3
 72
8
 73
4
 74
0
 40
0
 40
0
 40
0
 40
0
 40
1
 40
1
 40
1
 40
1
 10
225.074965
 20
58.411982
 30
0.0
 10
227.448477
 20
58.411982
 30
0.0
 10
229.372592
 20
56.487867
 30
0.0
 10
229.372592
 20
54.114353
 30
0.0
  0
LWPOLYLINE
  5
220
100
AcDbEntity
  8
0
 62
2
100
AcDbPolyline
 90
2
 70
0
 10
219.360166
 20
53.614351
 30
0.0
 10
219.360166
 20
53.614351
 30
0.0
  0
SPLINE
  5
221
100
AcDbEntity
  8
0
 62
7
100
AcDbSpline
 70
8
 71
3
 72
8
 73
4
 74
0
 40
0
 40
0
 40
0
 40
0
 40
1
 40
1
 40
1
 40
1
 10
201.850885
 20
53.040667
 30
0.0
 10
201.850885
 20
53.592764
 30
0.0
 10
201.402854
 20
54.040439
 30
0.0
 10
200.851110
 20
54.040439
 30
0.0
  0
LWPOLYLINE
  5
222
100
AcDbEntity
  8
0
 62
2
100
AcDbPolyline
 90
2
 70
0
 10
229.372592
 20
54.114353
 30
0.0
 10
229.372592
 20
54.114353
 30
0.0
  0
SPLINE
  5
223
100
AcDbEntity
  8
0
 62
7
100
AcDbSpline
 70
8
 71
3
 72
8
 73
4
 74
0
 40
0
 40
0
 40
0
 40
0
 40
1
 40
1
 40
1
 40
1
 10
186.851123
 20
54.040439
 30
0.0
 10
186.298673
 20
54.040439
 30
0.0
 10
185.851351
 20
53.592764
 30
0.0
 10
185.851351
 20
53.040667
 30
0.0
  0
LWPOLYLINE
  5
224
100
AcDbEntity
  8
0
 62
7
100
AcDbPolyline
 90
2
 70
0
 10
200.851110
 20
54.040439
 30
0.0
 10
186.851123
 20
54.040439
 30
0.0
  0
SPLINE
  5
225
100
AcDbEntity
  8
0
 62
7
100
AcDbSpline
 70
8
 71
3
 72
8
 73
4
 74
0
 40
0
 40
0
 40
0
 40
0
 40
1
 40
1
 40
1
 40
1
 10
185.851351
 20
49.290286
 30
0.0
 10
185.851351
 20
49.024997
 30
0.0
 10
185.956126
 20
48.770644
 30
0.0
 10
186.144157
 20
48.583319
 30
0.0
  0
LWPOLYLINE
  5
226
100
AcDbEntity
  8
0
 62
7
100
AcDbPolyline
 90
2
 70
0
 10
185.851351
 20
53.040667
 30
0.0
 10
185.851351
 20
49.290286
 30
0.0
  0
SPLINE
  5
227
100
AcDbEntity
  8
0
 62
7
100
AcDbSpline
 70
8
 71
3
 72
8
 73
4
 74
0
 40
0
 40
0
 40
0
 40
0
 40
1
 40
1
 40
1
 40
1
 10
187.143929
 20
47.583547
 30
0.0
 10
187.331254
 20
47.395869
 30
0.0
 10
187.585607
 20
47.290742
 30
0.0
 10
187.850896
 20
47.290742
 30
0.0
  0
LWPOLYLINE
  5
228
100
AcDbEntity
  8
0
 62
7
100
AcDbPolyline
 90
2
 70
0
 10
186.144157
 20
48.583319
 30
0.0
 10
187.143929
 20
47.583547
 30
0.0
  0
SPLINE
  5
229
100
AcDbEntity
  8
0
 62
7
100
AcDbSpline
 70
8
 71
3
 72
8
 73
4
 74
0
 40
0
 40
0
 40
0
 40
0
 40
1
 40
1
 40
1
 40
1
 10
199.851337
 20
47.290742
 30
0.0
 10
200.116629
 20
47.290742
 30
0.0
 10
200.370982
 20
47.395869
 30
0.0
 10
200.558304
 20
47.583547
 30
0.0
  0
LWPOLYLINE
  5
22a
100
AcDbEntity
  8
0
 62
7
100
AcDbPolyline
 90
2
 70
0
 10
187.850896
 20
47.290742
 30
0.0
 10
199.851337
 20
47.290742
 30
0.0
  0
SPLINE
  5
22b
100
AcDbEntity
  8
0
 62
7
100
AcDbSpline
 70
8
 71
3
 72
8
 73
4
 74
0
 40
0
 40
0
 40
0
 40
0
 40
1
 40
1
 40
1
 40
1
 10
201.558076
 20
48.583319
 30
0.0
 10
201.745401
 20
48.770644
 30
0.0
 10
201.850885
 20
49.024997
 30
0.0
 10
201.850885
 20
49.290286
 30
0.0
  0
LWPOLYLINE
  5
22c
100
AcDbEntity
  8
0
 62
7
100
AcDbPolyline
 90
2
 70
0
 10
200.558304
 20
47.583547
 30
0.0
 10
201.558076
 20
48.583319
 30
0.0
  0
LWPOLYLINE
  5
22d
100
AcDbEntity
  8
0
 62
7
100
AcDbPolyline
 90
3
 70
0
 10
201.850885
 20
49.290286
 30
0.0
 10
201.850885
 20
53.040667
 30
0.0
 10
201.850885
 20
53.040667
 30
0.0
  0
LWPOLYLINE
  5
22e
100
AcDbEntity
  8
0
 62
7
100
AcDbPolyline
 90
5
 70
0
 10
-36.175053
 20
210.115651
 30
0.0
 10
-33.175053
 20
210.115651
 30
0.0
 10
-33.175053
 20
202.115356
 30
0.0
 10
-36.175053
 20
202.115356
 30
0.0
 10
-36.175053
 20
210.115651
 30
0.0
  0
LWPOLYLINE
  5
22f
100
AcDbEntity
  8
0
 62
7
100
AcDbPolyline
 90
5
 70
0
 10
-36.175053
 20
181.515506
 30
0.0
 10
-33.175053
 20
181.515506
 30
0.0
 10
-33.175053
 20
173.515212
 30
0.0
 10
-36.175053
 20
173.515212
 30
0.0
 10
-36.175053
 20
181.515506
 30
0.0
  0
LWPOLYLINE
  5
230
100
AcDbEntity
  8
0
 62
7
100
AcDbPolyline
 90
5
 70
0
 10
48.624961
 20
210.115651
 30
0.0
 10
51.624961
 20
210.115651
 30
0.0
 10
51.624961
 20
202.115356
 30
0.0
 10
48.624961
 20
202.115356
 30
0.0
 10
48.624961
 20
210.115651
 30
0.0
  0
SPLINE
  5
231
100
AcDbEntity
  8
0
 62
7
100
AcDbSpline
 70
8
 71
3
 72
8
 73
4
 74
0
 40
0
 40
0
 40
0
 40
0
 40
1
 40
1
 40
1
 40
1
 10
-38.175040
 20
209.615254
 30
0.0
 10
-38.175040
 20
211.272251
 30
0.0
 10
-36.831315
 20
212.615272
 30
0.0
 10
-35.175035
 20
212.615276
 30
0.0
  0
LWPOLYLINE
  5
232
100
AcDbEntity
  8
0
 62
7
100
AcDbPolyline
 90
6
 70
0
 10
48.624961
 20
181.515506
 30
0.0
 10
51.624961
 20
181.515583
 30
0.0
 10
51.624961
 20
173.515288
 30
0.0
 10
48.624961
 20
173.515212
 30
0.0
 10
48.624961
 20
176.538520
 30
0.0
 10
48.624961
 20
181.515506
 30
0.0
  0
SPLINE
  5
233
100
AcDbEntity
  8
0
 62
7
100
AcDbSpline
 70
8
 71
3
 72
8
 73
4
 74
0
 40
0
 40
0
 40
0
 40
0
 40
1
 40
1
 40
1
 40
1
 10
50.624943
 20
212.615457
 30
0.0
 10
52.281224
 20
212.615460
 30
0.0
 10
53.624946
 20
211.272432
 30
0.0
 10
53.624946
 20
209.615434
 30
0.0
  0
LWPOLYLINE
  5
234
100
AcDbEntity
  8
0
 62
7
100
AcDbPolyline
 90
2
 70
0
 10
-35.175035
 20
212.615276
 30
0.0
 10
50.624943
 20
212.615457
 30
0.0
  0
SPLINE
  5
235
100
AcDbEntity
  8
0
 62
7
100
AcDbSpline
 70
8
 71
3
 72
8
 73
4
 74
0
 40
0
 40
0
 40
0
 40
0
 40
1
 40
1
 40
1
 40
1
 10
53.624946
 20
173.515457
 30
0.0
 10
53.624946
 20
170.753910
 30
0.0
 10
51.386235
 20
168.515535
 30
0.0
 10
48.624710
 20
168.515535
 30
0.0
  0
SPLINE
  5
236
100
AcDbEntity
  8
0
 62
7
100
AcDbSpline
 70
8
 71
3
 72
8
 73
4
 74
0
 40
0
 40
0
 40
0
 40
0
 40
1
 40
1
 40
1
 40
1
 10
48.624710
 20
168.515535
 30
0.0
 10
46.775108
 20
168.515535
 30
0.0
 10
45.163983
 20
169.522363
 30
0.0
 10
44.298977
 20
171.015321
 30
0.0
  0
LWPOLYLINE
  5
237
100
AcDbEntity
  8
0
 62
7
100
AcDbPolyline
 90
2
 70
0
 10
53.624946
 20
209.615434
 30
0.0
 10
53.624946
 20
173.515457
 30
0.0
  0
SPLINE
  5
238
100
AcDbEntity
  8
0
 62
7
100
AcDbSpline
 70
8
 71
3
 72
8
 73
4
 74
0
 40
0
 40
0
 40
0
 40
0
 40
1
 40
1
 40
1
 40
1
 10
-28.849069
 20
171.015141
 30
0.0
 10
-29.713722
 20
169.522182
 30
0.0
 10
-31.324844
 20
168.515355
 30
0.0
 10
-33.174802
 20
168.515355
 30
0.0
  0
SPLINE
  5
239
100
AcDbEntity
  8
0
 62
7
100
AcDbSpline
 70
8
 71
3
 72
8
 73
4
 74
0
 40
0
 40
0
 40
0
 40
0
 40
1
 40
1
 40
1
 40
1
 10
-33.174802
 20
168.515355
 30
0.0
 10
-35.936326
 20
168.515355
 30
0.0
 10
-38.175040
 20
170.753730
 30
0.0
 10
-38.175040
 20
173.515277
 30
0.0
  0
LWPOLYLINE
  5
23a
100
AcDbEntity
  8
0
 62
7
100
AcDbPolyline
 90
2
 70
0
 10
44.298977
 20
171.015321
 30
0.0
 10
-28.849069
 20
171.015141
 30
0.0
  0
LWPOLYLINE
  5
23b
100
AcDbEntity
  8
0
 62
7
100
AcDbPolyline
 90
2
 70
0
 10
-38.175040
 20
173.515277
 30
0.0
 10
-38.175040
 20
209.615254
 30
0.0
  0
LWPOLYLINE
  5
23c
100
AcDbEntity
  8
0
 62
7
100
AcDbPolyline
 90
5
 70
0
 10
153.224950
 20
210.115651
 30
0.0
 10
156.224949
 20
210.115651
 30
0.0
 10
156.224949
 20
202.115356
 30
0.0
 10
153.224950
 20
202.115356
 30
0.0
 10
153.224950
 20
210.115651
 30
0.0
  0
LWPOLYLINE
  5
23d
100
AcDbEntity
  8
0
 62
7
100
AcDbPolyline
 90
5
 70
0
 10
153.224950
 20
181.515506
 30
0.0
 10
156.224949
 20
181.515506
 30
0.0
 10
156.224949
 20
173.515212
 30
0.0
 10
153.224950
 20
173.515212
 30
0.0
 10
153.224950
 20
181.515506
 30
0.0
  0
LWPOLYLINE
  5
23e
100
AcDbEntity
  8
0
 62
7
100
AcDbPolyline
 90
5
 70
0
 10
238.024935
 20
210.115651
 30
0.0
 10
241.024935
 20
210.115651
 30
0.0
 10
241.024935
 20
202.115356
 30
0.0
 10
238.024935
 20
202.115356
 30
0.0
 10
238.024935
 20
210.115651
 30
0.0
  0
SPLINE
  5
23f
100
AcDbEntity
  8
0
 62
7
100
AcDbSpline
 70
8
 71
3
 72
8
 73
4
 74
0
 40
0
 40
0
 40
0
 40
0
 40
1
 40
1
 40
1
 40
1
 10
151.224962
 20
209.615254
 30
0.0
 10
151.224962
 20
211.272251
 30
0.0
 10
152.568687
 20
212.615272
 30
0.0
 10
154.224967
 20
212.615276
 30
0.0
  0
LWPOLYLINE
  5
240
100
AcDbEntity
  8
0
 62
7
100
AcDbPolyline
 90
6
 70
0
 10
238.024935
 20
181.515506
 30
0.0
 10
241.024935
 20
181.515583
 30
0.0
 10
241.024935
 20
173.515288
 30
0.0
 10
238.024935
 20
173.515212
 30
0.0
 10
238.024935
 20
176.538520
 30
0.0
 10
238.024935
 20
181.515506
 30
0.0
  0
SPLINE
  5
241
100
AcDbEntity
  8
0
 62
7
100
AcDbSpline
 70
8
 71
3
 72
8
 73
4
 74
0
 40
0
 40
0
 40
0
 40
0
 40
1
 40
1
 40
1
 40
1
 10
240.024917
 20
212.615457
 30
0.0
 10
241.681198
 20
212.615460
 30
0.0
 10
243.024920
 20
211.272432
 30
0.0
 10
243.024920
 20
209.615434
 30
0.0
  0
LWPOLYLINE
  5
242
100
AcDbEntity
  8
0
 62
7
100
AcDbPolyline
 90
2
 70
0
 10
154.224967
 20
212.615276
 30
0.0
 10
240.024917
 20
212.615457
 30
0.0
  0
SPLINE
  5
243
100
AcDbEntity
  8
0
 62
7
100
AcDbSpline
 70
8
 71
3
 72
8
 73
4
 74
0
 40
0
 40
0
 40
0
 40
0
 40
1
 40
1
 40
1
 40
1
 10
243.024920
 20
173.515457
 30
0.0
 10
243.024920
 20
170.753910
 30
0.0
 10
240.786209
 20
168.515535
 30
0.0
 10
238.024684
 20
168.515535
 30
0.0
  0
SPLINE
  5
244
100
AcDbEntity
  8
0
 62
7
100
AcDbSpline
 70
8
 71
3
 72
8
 73
4
 74
0
 40
0
 40
0
 40
0
 40
0
 40
1
 40
1
 40
1
 40
1
 10
238.024684
 20
168.515535
 30
0.0
 10
236.175082
 20
168.515535
 30
0.0
 10
234.563957
 20
169.522363
 30
0.0
 10
233.698951
 20
171.015321
 30
0.0
  0
LWPOLYLINE
  5
245
100
AcDbEntity
  8
0
 62
7
100
AcDbPolyline
 90
2
 70
0
 10
243.024920
 20
209.615434
 30
0.0
 10
243.024920
 20
173.515457
 30
0.0
  0
SPLINE
  5
246
100
AcDbEntity
  8
0
 62
7
100
AcDbSpline
 70
8
 71
3
 72
8
 73
4
 74
0
 40
0
 40
0
 40
0
 40
0
 40
1
 40
1
 40
1
 40
1
 10
160.550933
 20
171.015141
 30
0.0
 10
159.686281
 20
169.522182
 30
0.0
 10
158.075159
 20
168.515355
 30
0.0
 10
156.225200
 20
168.515355
 30
0.0
  0
SPLINE
  5
247
100
AcDbEntity
  8
0
 62
7
100
AcDbSpline
 70
8
 71
3
 72
8
 73
4
 74
0
 40
0
 40
0
 40
0
 40
0
 40
1
 40
1
 40
1
 40
1
 10
156.225200
 20
168.515355
 30
0.0
 10
153.463676
 20
168.515355
 30
0.0
 10
151.224962
 20
170.753730
 30
0.0
 10
151.224962
 20
173.515277
 30
0.0
  0
LWPOLYLINE
  5
248
100
AcDbEntity
  8
0
 62
7
100
AcDbPolyline
 90
2
 70
0
 10
233.698951
 20
171.015321
 30
0.0
 10
160.550933
 20
171.015141
 30
0.0
  0
LWPOLYLINE
  5
249
100
AcDbEntity
  8
0
 62
7
100
AcDbPolyline
 90
2
 70
0
 10
151.224962
 20
173.515277
 30
0.0
 10
151.224962
 20
209.615254
 30
0.0
  0
ENDSEC
  0
SECTION
  2
OBJECTS
  0
DICTIONARY
  5
C
330
0
100
AcDbDictionary
  3
ACAD_GROUP
350
D
  3
ACAD_MLINESTYLE
350
17
  0
DICTIONARY
  5
D
330
C
100
AcDbDictionary
  0
DICTIONARY
  5
1A
330
C
100
AcDbDictionary
  0
DICTIONARY
  5
17
330
C
100
AcDbDictionary
  3
STANDARD
350
18
  0
DICTIONARY
  5
19
330
C
100
AcDbDictionary
  0
ENDSEC
  0
EOF
