<?xml version="1.0" encoding="UTF-8" standalone="no"?>
<!-- Generator: Adobe Illustrator 15.1.0, SVG Export Plug-In  -->

<svg
   xmlns:dc="http://purl.org/dc/elements/1.1/"
   xmlns:cc="http://creativecommons.org/ns#"
   xmlns:rdf="http://www.w3.org/1999/02/22-rdf-syntax-ns#"
   xmlns:svg="http://www.w3.org/2000/svg"
   xmlns="http://www.w3.org/2000/svg"
   xmlns:sodipodi="http://sodipodi.sourceforge.net/DTD/sodipodi-0.dtd"
   xmlns:inkscape="http://www.inkscape.org/namespaces/inkscape"
   version="1.1"
   x="0px"
   y="0px"
   width="1052.3622"
   height="744.09448"
   viewBox="-142.884 -121.767 1052.3622 744.09448"
   overflow="visible"
   enable-background="new -142.884 -121.767 792 612"
   xml:space="preserve"
   id="svg3589"
   inkscape:version="0.48.3.1 r9886"
   sodipodi:docname="rev2_box.svg"
   style="overflow:visible"><metadata
   id="metadata4199"><rdf:RDF><cc:Work
       rdf:about=""><dc:format>image/svg+xml</dc:format><dc:type
         rdf:resource="http://purl.org/dc/dcmitype/StillImage" /><dc:title></dc:title></cc:Work></rdf:RDF></metadata><sodipodi:namedview
   pagecolor="#ffffff"
   bordercolor="#666666"
   borderopacity="1"
   objecttolerance="10"
   gridtolerance="10"
   guidetolerance="10"
   inkscape:pageopacity="0"
   inkscape:pageshadow="2"
   inkscape:window-width="1680"
   inkscape:window-height="942"
   id="namedview4197"
   showgrid="false"
   inkscape:document-units="mm"
   inkscape:zoom="0.49724868"
   inkscape:cx="237.39697"
   inkscape:cy="419.90008"
   inkscape:window-x="0"
   inkscape:window-y="25"
   inkscape:window-maximized="0"
   inkscape:current-layer="svg3589"
   units="mm"><inkscape:grid
     type="xygrid"
     id="grid3843"
     empspacing="5"
     visible="true"
     enabled="true"
     snapvisiblegridlinesonly="true" /></sodipodi:namedview>
<defs
   id="defs3591">
</defs>
<path
   d="m -117.99098,82.150692 c 0,-1.95625 1.58499,-3.54375 3.54249,-3.54375 l 6.90998,0 0,-71.9277058 -6.90998,0 c -1.9575,0 -3.54249,-1.5875 -3.54249,-3.54375 l 0,-11.51625 10.62997,0 c 11.92623,0 21.518709,-1.8837502 27.368697,-4.1350002 5.724988,-2.2025 14.674969,-3.8375 25.781195,-3.8375 1.223748,0 2.213746,-0.99125 2.213746,-2.21375 l 0,0 c 0,-1.22375 -0.991248,-2.21375 -2.213746,-2.21375 -11.926224,0 -21.521204,1.8825 -27.369942,4.13375 -5.724988,2.2025 -14.674969,3.83875 -25.7787,3.83875 l -10.62997,-0.001 c -3.67,0 -6.64499,-2.97375 -6.64499,-6.6425 0,-3.66875 2.97624,-6.6425 6.64499,-6.6425 l 0,4.075 10.62997,0 0,-4.96375 c 0,-1.95625 1.585,-3.5425 3.5425,-3.5425 l 1.77249,0 c 0.45125,0 0.90625,0.17375 1.2525,0.51875 0.69125,0.6925 1.811247,0.6925 2.504996,0 0.691248,-0.6925 1.813746,-0.6925 2.504994,0.001 0.691249,0.69125 1.813747,0.69125 2.504995,-0.001 0.691249,-0.6925 1.813746,-0.6925 2.504995,0.001 0.693748,0.69125 1.813746,0.69125 2.504995,-0.001 0.693748,-0.6925 1.813746,-0.6925 2.507494,0.001 0.691249,0.69125 1.811246,0.69125 2.504995,-0.001 0.343749,-0.345 0.798748,-0.51875 1.252497,-0.51875 l 100.730205,0 132.725354,0.0011 c 0.45374,4e-6 0.90875,0.17375 1.2525,0.51875 0.69375,0.6925 1.81373,0.6925 2.50499,0.001 0.69375,-0.69375 1.81374,-0.69375 2.5075,-0.001 0.69123,0.6925 1.81124,0.6925 2.50374,0.001 0.69124,-0.69375 1.81375,-0.69375 2.505,-0.001 0.69249,0.6925 1.81499,0.6925 2.50623,0.001 0.69126,-0.69375 1.81375,-0.69375 2.50499,-0.001 0.69376,0.6925 1.81376,0.6925 2.50501,0 0.34624,-0.345 0.80125,-0.51875 1.2525,-0.51875 l 1.77249,0 c 1.95749,0 3.5425,1.58625 3.5425,3.5425 l 0,4.96125 11.16122,0 0,-4.075 c 3.66998,0 6.64249,2.97375 6.64249,6.6425 0,3.66875 -2.97375,6.6425 -6.64249,6.6425 l -11.16122,10e-4 c -11.10373,0 -20.05372,-1.6375 -25.77995,-3.83875 -5.84999,-2.25125 -15.44247,-4.13375 -27.36869,-4.13375 -1.22375,0 -2.21375,0.99125 -2.21375,2.21375 l 0,0 c 0,1.22375 0.99125,2.21375 2.21375,2.21375 11.10372,0 20.05371,1.63625 25.77869,3.8375 5.84999,2.25125 15.44247,4.1361764 27.3687,4.1350006 l 11.16121,0 0,11.51625 c 0,1.95625 -1.58499,3.54375 -3.54249,3.54375 l -7.44248,0 0,71.9277054 7.44248,0 c 1.9575,0 3.54249,1.5875 3.54249,3.54375 l 0,15.944996 c 3.66999,0 6.64249,2.975002 6.64249,6.643752 0,3.66875 -2.97375,6.6425 -6.64249,6.6425 l 0,-4.075 -11.16247,0 0,4.96125 c 0,1.955 -1.58499,3.54251 -3.5425,3.5425 l -277.0842,-0.001 c -1.9575,-1e-5 -3.5425,-1.5875 -3.5425,-3.5425 l 0,-4.96125 -10.62997,0 0,4.075 c -3.67,0 -6.64499,-2.97375 -6.64499,-6.6425 0,-3.66875 2.97624,-6.643752 6.64499,-6.643752 z"
   id="path3593"
   inkscape:connector-curvature="0"
   style="fill:none;stroke:#000000;stroke-width:1.06299102;stroke-miterlimit:4;stroke-dasharray:none"
   sodipodi:nodetypes="ssccsscscsccscccscccsssccccccccscsccccccccssscccscccsccscscssccsscscccsssscccscs" />




<path
   stroke-miterlimit="2.6131"
   d="m 749.76251,206.23757 c 0,-1.95625 -1.58751,-3.5425 -3.54251,-3.5425 h -49.60625 c -1.9575,0 -3.5425,1.58625 -3.5425,3.5425 v 13.28875 c 0,0.94 0.37125,1.84125 1.0375,2.505 l 3.5425,3.5425 c 0.66375,0.665 1.565,1.0375 2.505,1.0375 h 42.52125 c 0.94001,0 1.84126,-0.3725 2.505,-1.0375 l 3.5425,-3.5425 c 0.66375,-0.66375 1.03751,-1.565 1.03751,-2.505 v -13.28875 z"
   id="path3603"
   inkscape:connector-curvature="0"
   style="fill:none;stroke:#000000;stroke-width:1.25;stroke-miterlimit:2.61310005" />


































<circle
   stroke-miterlimit="2.6131"
   cx="430.72699"
   cy="324.004"
   r="9.9209995"
   id="circle3673"
   sodipodi:cx="430.72699"
   sodipodi:cy="324.004"
   sodipodi:rx="9.9209995"
   sodipodi:ry="9.9209995"
   transform="matrix(1.3600642,0,0,1.3600642,82.716977,-222.27577)"
   style="fill:none;stroke:#000000;stroke-miterlimit:2.61310005" />
<circle
   stroke-miterlimit="2.6131"
   cx="377.37299"
   cy="329.10699"
   r="14.882"
   id="circle3675"
   sodipodi:cx="377.37299"
   sodipodi:cy="329.10699"
   sodipodi:rx="14.882"
   sodipodi:ry="14.882"
   transform="matrix(1.2669477,0,0,1.2669477,351.64198,-207.42915)"
   style="fill:none;stroke:#000000;stroke-miterlimit:2.61310005" />

<path
   d="m 361.86032,589.90946 c 0,1.955 -1.58752,3.54 -3.54253,3.54 l -67.32422,0 0,7.0875 c 0,1.955 -1.58752,3.5425 -3.54253,3.5425 l -28.34661,0 c -1.95626,0 -2.08268,-2.24358 -3.54377,-3.5425 l 0,-7.0875 -265.748201,-1.8e-4 0,7.0875 c 0,1.955 -1.587511,3.54249 -3.542526,3.5425 l -29.410231,1.8e-4 c -1.955014,10e-6 -3.640141,-1.58994 -3.542525,-3.5425 l 0,-7.0875 -67.321497,0 c -1.95752,0 -3.54503,-1.585 -3.54503,-3.54 l 0,-277.44455 c 0,-1.955 1.58751,-3.5425 3.54503,-3.5425 l 67.321497,0 0,-7.0875 c 0,-1.955 1.587511,-3.54249 3.542525,-3.5425 l 29.410231,-1.8e-4 c 1.955015,-1e-5 3.542526,1.5875 3.542526,3.5425 l 0,7.0875 265.748201,1.8e-4 0,-7.0875 c 0,-1.955 1.58751,-3.5425 3.54377,-3.5425 l 28.34661,0 c 1.95501,0 3.54253,1.5875 3.54253,3.5425 l 0,7.0875 67.32422,0 c 1.95501,0 3.54253,1.5875 3.54253,3.5425 z"
   id="path3679"
   inkscape:connector-curvature="0"
   style="fill:none;stroke:#000000;stroke-width:1.0629921;stroke-miterlimit:4;stroke-dasharray:none"
   sodipodi:nodetypes="sscssssccsssscsssscssssccsssscsss" />
<path
   style="fill:none;stroke:#000000;stroke-width:1.0629921;stroke-miterlimit:4"
   d="m -128.17928,137.77919 10.62992,0 0,28.3475 -10.62992,0 z"
   id="rect3681"
   inkscape:connector-curvature="0"
   sodipodi:nodetypes="ccccc" />
<path
   style="fill:none;stroke:#000000;stroke-width:1.0629921;stroke-miterlimit:4"
   d="m -128.17928,239.11829 10.62992,0 0,28.3475 -10.62992,0 z"
   id="rect3683"
   inkscape:connector-curvature="0"
   sodipodi:nodetypes="ccccc" />
<path
   style="fill:none;stroke:#000000;stroke-width:1.0629921;stroke-miterlimit:4"
   d="m 361.8601,137.77919 10.62992,0 0,28.3475 -10.62992,0 z"
   id="rect3685"
   inkscape:connector-curvature="0"
   sodipodi:nodetypes="ccccc" />
<path
   style="fill:none;stroke:#000000;stroke-width:1.0629921;stroke-miterlimit:4"
   d="m 361.8601,239.11829 10.62992,-2.7e-4 0,28.3475 -10.62992,2.7e-4 z"
   id="rect3687"
   inkscape:connector-curvature="0"
   sodipodi:nodetypes="ccccc" />
<path
   d="m -135.26589,139.55225 c 0,-5.87125 4.76123,-10.62999 10.62994,-10.63 l 493.5826,-6.4e-4 c 5.86871,-10e-6 10.62993,4.75875 10.62993,10.63 l 0,127.91331 c 0,9.785 -7.93244,17.71625 -17.71737,17.71625 -6.55371,0 -12.26242,-3.5675 -15.3274,-8.8575 l -448.75292,6.4e-4 c -3.06373,5.29 -8.77243,8.8575 -15.3274,8.8575 -9.78493,0 -17.71738,-7.93125 -17.71738,-17.71625 z"
   id="path3689"
   inkscape:connector-curvature="0"
   style="fill:none;stroke:#000000;stroke-width:1.0629921;stroke-miterlimit:4;stroke-dasharray:none"
   sodipodi:nodetypes="ssssssccsss" />






























<path
   d="m -62.6839,231.23569 c -3.91375,0 -7.0875,-3.17375 -7.0875,-7.0875 v -17.715 c 0,-3.91375 3.17375,-7.0875 7.0875,-7.0875 h 28.3475 c 3.91375,0 7.085,3.17375 7.085,7.0875 v 17.715 c 0,3.91375 -3.17125,7.0875 -7.085,7.0875 h -28.3475 z"
   id="path3751"
   inkscape:connector-curvature="0"
   style="fill:none;stroke:#000000;stroke-width:1.0629921;stroke-miterlimit:4;stroke-dasharray:none" />






























































































































































































































<path
   sodipodi:nodetypes="sscssssccsssscsssscssssccsssscsss"
   style="fill:none;stroke:#000000;stroke-width:1.0629921;stroke-miterlimit:4;stroke-dasharray:none"
   inkscape:connector-curvature="0"
   id="path3845"
   d="m 886.26977,589.90946 c 0,1.955 -1.58752,3.54 -3.54253,3.54 l -67.32422,0 0,7.0875 c 0,1.955 -1.58752,3.5425 -3.54253,3.5425 l -28.34661,0 c -1.95626,0 -2.08268,-2.24358 -3.54377,-3.5425 l 0,-7.0875 -265.7482,-1.8e-4 0,7.0875 c 0,1.955 -1.58751,3.54249 -3.54252,3.5425 l -29.41024,1.8e-4 c -1.95501,10e-6 -3.64014,-1.58994 -3.54252,-3.5425 l 0,-7.0875 -67.3215,0 c -1.95752,0 -3.54503,-1.585 -3.54503,-3.54 l 0,-277.44455 c 0,-1.955 1.58751,-3.5425 3.54503,-3.5425 l 67.3215,0 0,-7.0875 c 0,-1.955 1.58751,-3.54249 3.54252,-3.5425 l 29.41024,-1.8e-4 c 1.95501,-1e-5 3.54252,1.5875 3.54252,3.5425 l 0,7.0875 265.7482,1.8e-4 0,-7.0875 c 0,-1.955 1.58751,-3.5425 3.54377,-3.5425 l 28.34661,0 c 1.95501,0 3.54253,1.5875 3.54253,3.5425 l 0,7.0875 67.32422,0 c 1.95501,0 3.54253,1.5875 3.54253,3.5425 z" /><path
   sodipodi:nodetypes="ccccc"
   inkscape:connector-curvature="0"
   id="path4272"
   d="m 396.23018,137.77919 10.62992,0 0,28.3475 -10.62992,0 z"
   style="fill:none;stroke:#000000;stroke-width:1.0629921;stroke-miterlimit:4" /><path
   sodipodi:nodetypes="ccccc"
   inkscape:connector-curvature="0"
   id="path4274"
   d="m 396.23018,239.11829 10.62992,0 0,28.3475 -10.62992,0 z"
   style="fill:none;stroke:#000000;stroke-width:1.0629921;stroke-miterlimit:4" /><path
   sodipodi:nodetypes="ccccc"
   inkscape:connector-curvature="0"
   id="path4276"
   d="m 886.26956,137.77919 10.62992,0 0,28.3475 -10.62992,0 z"
   style="fill:none;stroke:#000000;stroke-width:1.0629921;stroke-miterlimit:4" /><path
   sodipodi:nodetypes="cccccc"
   inkscape:connector-curvature="0"
   id="path4278"
   d="m 886.26956,239.11829 10.62992,-2.7e-4 0,28.3475 -10.62992,2.7e-4 0,-10.71251 z"
   style="fill:none;stroke:#000000;stroke-width:1.0629921;stroke-miterlimit:4" /><path
   sodipodi:nodetypes="ssssssccsss"
   style="fill:none;stroke:#000000;stroke-width:1.0629921;stroke-miterlimit:4;stroke-dasharray:none"
   inkscape:connector-curvature="0"
   id="path4280"
   d="m 389.14357,139.55225 c 0,-5.87125 4.76123,-10.62999 10.62994,-10.63 l 493.5826,-6.4e-4 c 5.86871,-10e-6 10.62993,4.75875 10.62993,10.63 l 0,127.91331 c 0,9.785 -7.93244,17.71625 -17.71737,17.71625 -6.55371,0 -12.26242,-3.5675 -15.3274,-8.8575 l -448.75292,6.4e-4 c -3.06373,5.29 -8.77243,8.8575 -15.3274,8.8575 -9.78493,0 -17.71738,-7.93125 -17.71738,-17.71625 z" /><path
   style="fill:none;stroke:#000000;stroke-width:1.25000656"
   d="m -47.214707,255.77436 37.5590557,-0.004 0,11.69292 -37.5590557,0.004 z"
   id="rect4282"
   inkscape:connector-curvature="0"
   sodipodi:nodetypes="ccccc" /><path
   sodipodi:nodetypes="ccccc"
   inkscape:connector-curvature="0"
   id="path4285"
   d="m -47.214707,137.78171 37.5590557,-0.004 0,11.69308 -37.5590557,0.004 z"
   style="fill:none;stroke:#000000;stroke-width:1.25000656" /><path
   style="fill:none;stroke:#000000;stroke-width:1.25000656"
   d="m 255.03077,137.78171 37.55906,-0.004 0,11.69308 -37.55906,0.004 z"
   id="path4287"
   inkscape:connector-curvature="0"
   sodipodi:nodetypes="ccccc" /><path
   sodipodi:nodetypes="ccccc"
   inkscape:connector-curvature="0"
   id="path4289"
   d="m 255.03077,255.77436 37.55906,-0.004 0,11.69292 -37.55906,0.004 z"
   style="fill:none;stroke:#000000;stroke-width:1.25000656" /><path
   sodipodi:nodetypes="ccccc"
   inkscape:connector-curvature="0"
   id="path4291"
   d="m 477.19613,255.77436 37.55906,-0.004 0,11.69292 -37.55906,0.004 z"
   style="fill:none;stroke:#000000;stroke-width:1.25000656" /><path
   style="fill:none;stroke:#000000;stroke-width:1.25000656"
   d="m 477.19613,137.78171 37.55906,-0.004 0,11.69308 -37.55906,0.004 z"
   id="path4293"
   inkscape:connector-curvature="0"
   sodipodi:nodetypes="ccccc" /><path
   sodipodi:nodetypes="ccccc"
   inkscape:connector-curvature="0"
   id="path4295"
   d="m 779.44161,137.78171 37.55906,-0.004 0,11.69308 -37.55906,0.004 z"
   style="fill:none;stroke:#000000;stroke-width:1.25000656" /><path
   style="fill:none;stroke:#000000;stroke-width:1.25000656"
   d="m 779.44161,255.77436 37.55906,-0.004 0,11.69292 -37.55906,0.004 z"
   id="path4297"
   inkscape:connector-curvature="0"
   sodipodi:nodetypes="ccccc" /><path
   sodipodi:nodetypes="ssccsscscsccscccscccsssccccccccscsccccccccssscccscccsccscscssccsscscccsssscccscs"
   style="fill:none;stroke:#000000;stroke-width:1.06299102;stroke-miterlimit:4;stroke-dasharray:none"
   inkscape:connector-curvature="0"
   id="path4299"
   d="m 236.33974,82.150692 c 0,-1.95625 1.58499,-3.54375 3.54249,-3.54375 l 6.90998,0 0,-71.9277058 -6.90998,0 c -1.9575,0 -3.54249,-1.5875 -3.54249,-3.54375 l 0,-11.51625 10.62997,0 c 11.92623,0 21.5187,-1.8837502 27.36869,-4.1350002 5.72499,-2.2025 14.67497,-3.8375 25.7812,-3.8375 1.22375,0 2.21374,-0.99125 2.21374,-2.21375 l 0,0 c 0,-1.22375 -0.99124,-2.21375 -2.21374,-2.21375 -11.92623,0 -21.52121,1.8825 -27.36994,4.13375 -5.72499,2.2025 -14.67497,3.83875 -25.7787,3.83875 l -10.62997,-0.001 c -3.67,0 -6.64499,-2.97375 -6.64499,-6.6425 0,-3.66875 2.97624,-6.6425 6.64499,-6.6425 l 0,4.075 10.62997,0 0,-4.96375 c 0,-1.95625 1.585,-3.5425 3.5425,-3.5425 l 1.77249,0 c 0.45125,0 0.90625,0.17375 1.2525,0.51875 0.69125,0.6925 1.81124,0.6925 2.50499,0 0.69125,-0.6925 1.81375,-0.6925 2.505,0.001 0.69124,0.69125 1.81374,0.69125 2.50499,-0.001 0.69125,-0.6925 1.81375,-0.6925 2.505,0.001 0.69374,0.69125 1.81374,0.69125 2.50499,-0.001 0.69375,-0.6925 1.81375,-0.6925 2.50749,0.001 0.69125,0.69125 1.81125,0.69125 2.505,-0.001 0.34375,-0.345 0.79875,-0.51875 1.2525,-0.51875 l 100.7302,0 132.72536,0.0011 c 0.45374,4e-6 0.90875,0.17375 1.2525,0.51875 0.69375,0.6925 1.81373,0.6925 2.50499,0.001 0.69375,-0.69375 1.81374,-0.69375 2.5075,-0.001 0.69123,0.6925 1.81124,0.6925 2.50374,0.001 0.69124,-0.69375 1.81375,-0.69375 2.505,-0.001 0.69249,0.6925 1.81499,0.6925 2.50623,0.001 0.69126,-0.69375 1.81375,-0.69375 2.50499,-0.001 0.69376,0.6925 1.81376,0.6925 2.50501,0 0.34624,-0.345 0.80125,-0.51875 1.2525,-0.51875 l 1.77249,0 c 1.95749,0 3.5425,1.58625 3.5425,3.5425 l 0,4.96125 11.16122,0 0,-4.075 c 3.66998,0 6.64249,2.97375 6.64249,6.6425 0,3.66875 -2.97375,6.6425 -6.64249,6.6425 l -11.16122,10e-4 c -11.10373,0 -20.05372,-1.6375 -25.77995,-3.83875 -5.84999,-2.25125 -15.44247,-4.13375 -27.36869,-4.13375 -1.22375,0 -2.21375,0.99125 -2.21375,2.21375 l 0,0 c 0,1.22375 0.99125,2.21375 2.21375,2.21375 11.10372,0 20.05371,1.63625 25.77869,3.8375 5.84999,2.25125 15.44247,4.1361764 27.3687,4.1350006 l 11.16121,0 0,11.51625 c 0,1.95625 -1.58499,3.54375 -3.54249,3.54375 l -7.44248,0 0,71.9277054 7.44248,0 c 1.9575,0 3.54249,1.5875 3.54249,3.54375 l 0,15.944996 c 3.66999,0 6.64249,2.975002 6.64249,6.643752 0,3.66875 -2.97375,6.6425 -6.64249,6.6425 l 0,-4.075 -11.16247,0 0,4.96125 c 0,1.955 -1.58499,3.54251 -3.5425,3.5425 l -277.0842,-0.001 c -1.9575,-1e-5 -3.5425,-1.5875 -3.5425,-3.5425 l 0,-4.96125 -10.62997,0 0,4.075 c -3.67,0 -6.64499,-2.97375 -6.64499,-6.6425 0,-3.66875 2.97624,-6.643752 6.64499,-6.643752 z" /><circle
   style="fill:none;stroke:#000000;stroke-miterlimit:2.61310005"
   transform="matrix(1.4973018,0,0,1.4973018,220.24408,-279.69695)"
   sodipodi:ry="14.882"
   sodipodi:rx="14.882"
   sodipodi:cy="329.10699"
   sodipodi:cx="377.37299"
   id="circle4301"
   r="14.882"
   cy="329.10699"
   cx="377.37299"
   stroke-miterlimit="2.6131" /><path
   style="fill:none;stroke:#000000;stroke-width:1.0629921;stroke-miterlimit:4;stroke-dasharray:none"
   inkscape:connector-curvature="0"
   id="path4303"
   d="m 103.216,247.61648 c 0,1.955 -1.5875,3.5425 -3.542507,3.5425 l -55.527746,0 -47.2325102,0 c -1.9550005,0 -3.5425005,-1.5875 -3.5425005,-3.5425 l 0,-12.40212 c 0,-1.955 1.5875,-3.5425 3.5425005,-3.5425 l 102.7602562,0 c 1.955007,0 3.542507,1.5875 3.542507,3.5425 z"
   sodipodi:nodetypes="sscsssssss" /><path
   style="fill:none;stroke:#000000;stroke-width:1.0629921;stroke-miterlimit:4;stroke-dasharray:none"
   inkscape:connector-curvature="0"
   id="path4364"
   d="m 243.86886,231.23569 c -3.91375,0 -7.0875,-3.17375 -7.0875,-7.0875 l 0,-17.715 c 0,-3.91375 3.17375,-7.0875 7.0875,-7.0875 l 56.69284,0 c 3.91375,0 7.085,3.17375 7.085,7.0875 0,5.905 0,11.81 0,17.715 0,3.91375 -3.17125,7.0875 -7.085,7.0875 z"
   sodipodi:nodetypes="sssssccss" /><path
   sodipodi:nodetypes="sssssccss"
   d="m 130.48303,231.23569 c -3.91375,0 -7.0875,-3.17375 -7.0875,-7.0875 l 0,-17.715 c 0,-3.91375 3.17375,-7.0875 7.0875,-7.0875 l 56.69284,0 c 3.91375,0 7.085,3.17375 7.085,7.0875 0,5.905 0,11.81 0,17.715 0,3.91375 -3.17125,7.0875 -7.085,7.0875 z"
   id="path4505"
   inkscape:connector-curvature="0"
   style="fill:none;stroke:#000000;stroke-width:1.0629921;stroke-miterlimit:4;stroke-dasharray:none" /><path
   style="fill:none;stroke:#000000;stroke-width:1.0629921;stroke-miterlimit:4;stroke-dasharray:none"
   inkscape:connector-curvature="0"
   id="path4507"
   d="m 449.38023,231.23528 c -3.91375,0 -7.0875,-3.17375 -7.0875,-7.0875 l 0,-56.69191 c 0,-3.91375 3.17375,-7.0875 7.0875,-7.0875 l 152.36257,0 c 3.91375,0 7.085,3.17375 7.085,7.0875 0,5.905 0,50.78691 0,56.69191 0,3.91375 -3.17125,7.0875 -7.085,7.0875 z"
   sodipodi:nodetypes="sssssccss" /><path
   d="m 576.14289,82.149588 c 0,-1.95625 1.58499,-3.54375 3.54249,-3.54375 l 6.90998,0 0,-71.9277054 -6.90998,0 c -1.9575,0 -3.54249,-1.5875 -3.54249,-3.54375 l 0,-11.51625 10.62997,0 c 11.92623,0 21.5187,-1.8837506 27.36869,-4.1350006 5.72499,-2.2025 14.67497,-3.8375 25.7812,-3.8375 1.22375,0 2.21374,-0.99125 2.21374,-2.21375 l 0,0 c 0,-1.22375 -0.99124,-2.21375 -2.21374,-2.21375 -11.92623,0 -21.52121,1.8825 -27.36994,4.13375 -5.72499,2.2025 -14.67497,3.83875 -25.7787,3.83875 l -10.62997,-0.001 c -3.67,0 -6.64499,-2.97375 -6.64499,-6.6425 0,-3.66875 2.97624,-6.6425 6.64499,-6.6425 l 0,4.075 10.62997,0 0,-4.96375 c 0,-1.95625 1.585,-3.5425 3.5425,-3.5425 l 1.77249,0 c 0.45125,0 0.90625,0.17375 1.2525,0.51875 0.69125,0.6925 1.81124,0.6925 2.50499,0 0.69125,-0.6925 1.81375,-0.6925 2.505,10e-4 0.69124,0.69125 1.81374,0.69125 2.50499,-10e-4 0.69125,-0.6925 1.81375,-0.6925 2.505,10e-4 0.69374,0.69125 1.81374,0.69125 2.50499,-10e-4 0.69375,-0.6925 1.81375,-0.6925 2.50749,10e-4 0.69125,0.69125 1.81125,0.69125 2.505,-10e-4 0.34375,-0.345 0.79875,-0.51875 1.2525,-0.51875 l 100.7302,0 132.72536,0.0011 c 0.45374,4e-6 0.90875,0.17375 1.2525,0.51875 0.69375,0.6925 1.81373,0.6925 2.50499,0.001 0.69375,-0.69375 1.81374,-0.69375 2.5075,-0.001 0.69123,0.6925 1.81124,0.6925 2.50374,0.001 0.69124,-0.69375 1.81375,-0.69375 2.505,-0.001 0.69249,0.6925 1.81499,0.6925 2.50623,0.001 0.69126,-0.69375 1.81375,-0.69375 2.50499,-0.001 0.69376,0.6925 1.81376,0.6925 2.50501,0 0.34624,-0.345 0.80125,-0.51875 1.2525,-0.51875 l 1.77249,0 c 1.95749,0 3.5425,1.58625 3.5425,3.5425 l 0,4.96125 11.16122,0 0,-4.075 c 3.66998,0 6.64249,2.97375 6.64249,6.6425 0,3.66875 -2.97375,6.6425 -6.64249,6.6425 l -11.16122,0.001 c -11.10373,0 -20.05372,-1.6375 -25.77995,-3.83875 -5.84999,-2.25125 -15.44247,-4.13375 -27.36869,-4.13375 -1.22375,0 -2.21375,0.99125 -2.21375,2.21375 l 0,0 c 0,1.22375 0.99125,2.21375 2.21375,2.21375 11.10372,0 20.05371,1.63625 25.77869,3.8375 5.84999,2.25125 15.44247,4.1361768 27.3687,4.135001 l 11.16121,0 0,11.51625 c 0,1.95625 -1.58499,3.54375 -3.54249,3.54375 l -7.44248,0 0,71.927705 7.44248,0 c 1.9575,0 3.54249,1.5875 3.54249,3.54375 l 0,15.944996 c 3.66999,0 6.64249,2.975006 6.64249,6.643756 0,3.66875 -2.97375,6.6425 -6.64249,6.6425 l 0,-4.075 -11.16247,0 0,4.96125 c 0,1.955 -1.58499,3.54251 -3.5425,3.5425 l -277.0842,-10e-4 c -1.9575,-1e-5 -3.5425,-1.5875 -3.5425,-3.5425 l 0,-4.96125 -10.62997,0 0,4.075 c -3.67,0 -6.64499,-2.97375 -6.64499,-6.6425 0,-3.66875 2.97624,-6.643756 6.64499,-6.643756 z"
   id="path4511"
   inkscape:connector-curvature="0"
   style="fill:none;stroke:#000000;stroke-width:1.06299102;stroke-miterlimit:4;stroke-dasharray:none"
   sodipodi:nodetypes="ssccsscscsccscccscccsssccccccccscsccccccccssscccscccsccscscssccsscscccsssscccscs" /></svg>