<?xml version="1.0" encoding="UTF-8" standalone="no"?>
<!-- Generator: Adobe Illustrator 15.1.0, SVG Export Plug-In  -->

<svg
   xmlns:dc="http://purl.org/dc/elements/1.1/"
   xmlns:cc="http://creativecommons.org/ns#"
   xmlns:rdf="http://www.w3.org/1999/02/22-rdf-syntax-ns#"
   xmlns:svg="http://www.w3.org/2000/svg"
   xmlns="http://www.w3.org/2000/svg"
   xmlns:sodipodi="http://sodipodi.sourceforge.net/DTD/sodipodi-0.dtd"
   xmlns:inkscape="http://www.inkscape.org/namespaces/inkscape"
   version="1.1"
   x="0px"
   y="0px"
   width="1052.3622"
   height="744.09448"
   viewBox="-142.884 -121.767 1052.3622 744.09448"
   overflow="visible"
   enable-background="new -142.884 -121.767 792 612"
   xml:space="preserve"
   id="svg3589"
   inkscape:version="0.48.4 r9939"
   sodipodi:docname="rev2_box.svg"
   style="overflow:visible"><metadata
   id="metadata4199"><rdf:RDF><cc:Work
       rdf:about=""><dc:format>image/svg+xml</dc:format><dc:type
         rdf:resource="http://purl.org/dc/dcmitype/StillImage" /><dc:title /></cc:Work></rdf:RDF></metadata><sodipodi:namedview
   pagecolor="#ffffff"
   bordercolor="#666666"
   borderopacity="1"
   objecttolerance="10"
   gridtolerance="10"
   guidetolerance="10"
   inkscape:pageopacity="0"
   inkscape:pageshadow="2"
   inkscape:window-width="1723"
   inkscape:window-height="942"
   id="namedview4197"
   showgrid="false"
   inkscape:document-units="mm"
   inkscape:zoom="0.61683007"
   inkscape:cx="290.6243"
   inkscape:cy="85.558688"
   inkscape:window-x="0"
   inkscape:window-y="120"
   inkscape:window-maximized="0"
   inkscape:current-layer="svg3589"
   units="mm"><inkscape:grid
     type="xygrid"
     id="grid3843"
     empspacing="5"
     visible="true"
     enabled="true"
     snapvisiblegridlinesonly="true" /></sodipodi:namedview>
<defs
   id="defs3591">
</defs>
<path
   d="m -38.856147,-272.00492 c 0,-1.95625 1.585,-3.54375 3.5425,-3.54375 h 6.91 v -36.49375 h -6.91 c -1.9575,0 -3.5425,-1.5875 -3.5425,-3.54375 v -11.51625 h 10.63 c 11.92625,0 21.5187502,-1.88375 27.36875046,-4.135 5.72500004,-2.2025 14.67499954,-3.8375 25.78124954,-3.8375 1.22375,0 2.21375,-0.99125 2.21375,-2.21375 l 0,0 c 0,-1.22375 -0.99125,-2.21375 -2.21375,-2.21375 -11.92625,0 -21.5212495,1.8825 -27.3699995,4.13375 -5.7250003,2.2025 -14.6750005,3.83875 -25.7787505,3.83875 l -10.63,-10e-4 c -3.67,0 -6.645,-2.97375 -6.645,-6.6425 0,-3.66875 2.97625,-6.6425 6.645,-6.6425 v 4.075 h 10.63 v -4.96375 c 0,-1.95625 1.585,-3.5425 3.5425,-3.5425 h 1.7725 c 0.45125,0 0.90625,0.17375 1.2525,0.51875 0.69125,0.6925 1.81125,0.6925 2.505,0 0.69125,-0.6925 1.81375,-0.6925 2.505,0.001 0.69125,0.69125 1.81375,0.69125 2.505,-0.001 0.69125,-0.6925 1.81375,-0.6925 2.505,0.001 0.69375,0.69125 1.8137502,0.69125 2.5050002,-0.001 0.69375,-0.6925 1.81375,-0.6925 2.5075,0.001 0.69125,0.69125 1.8112503,0.69125 2.5050003,-0.001 0.34375,-0.345 0.79875,-0.51875 1.2525,-0.51875 H 257.16511 c 0.45374,0 0.90875,0.17375 1.2525,0.51875 0.69375,0.6925 1.81374,0.6925 2.505,0.001 0.69375,-0.69375 1.81374,-0.69375 2.5075,-0.001 0.69124,0.6925 1.81125,0.6925 2.50375,0.001 0.69124,-0.69375 1.81375,-0.69375 2.505,-0.001 0.6925,0.6925 1.815,0.6925 2.50624,0.001 0.69126,-0.69375 1.81375,-0.69375 2.505,-0.001 0.69376,0.6925 1.81376,0.6925 2.50501,0 0.34624,-0.345 0.80125,-0.51875 1.2525,-0.51875 h 1.7725 c 1.95749,0 3.5425,1.58625 3.5425,3.5425 v 4.96125 h 11.16125 v -4.075 c 3.66999,0 6.6425,2.97375 6.6425,6.6425 0,3.66875 -2.97375,6.6425 -6.6425,6.6425 l -11.16125,10e-4 c -11.10375,0 -20.05376,-1.6375 -25.78,-3.83875 -5.85,-2.25125 -15.4425,-4.13375 -27.36875,-4.13375 -1.22375,0 -2.21375,0.99125 -2.21375,2.21375 l 0,0 c 0,1.22375 0.99125,2.21375 2.21375,2.21375 11.10375,0 20.05375,1.63625 25.77875,3.8375 5.85,2.25125 15.4425,4.135 27.36875,4.135 h 11.16124 v 11.51625 c 0,1.95625 -1.585,3.54375 -3.5425,3.54375 h -7.4425 v 36.49375 h 7.4425 c 1.9575,0 3.5425,1.5875 3.5425,3.54375 v 15.945 c 3.67,0 6.6425,2.975 6.6425,6.64375 0,3.66875 -2.97375,6.6425 -6.6425,6.6425 v -4.075 h -11.1625 v 4.96125 c 0,1.955 -1.58499,3.5425 -3.5425,3.5425 H -24.683647 c -1.9575,0 -3.5425,-1.5875 -3.5425,-3.5425 v -4.96125 h -10.63 v 4.075 c -3.67,0 -6.645,-2.97375 -6.645,-6.6425 0,-3.66875 2.97625,-6.64375 6.645,-6.64375 v -15.9425 z"
   id="path3593"
   inkscape:connector-curvature="0"
   style="fill:none;stroke:#000000;stroke-width:1.25" />
<rect
   x="43.523857"
   y="-257.83118"
   width="42.519997"
   height="10.983749"
   id="rect3595"
   style="fill:none;stroke:#000000;stroke-width:1.25" />
<rect
   x="169.31134"
   y="-257.83118"
   width="42.519997"
   height="10.983749"
   id="rect3597"
   style="fill:none;stroke:#000000;stroke-width:1.25" />
<rect
   x="43.523857"
   y="-340.74368"
   width="42.519997"
   height="10.983749"
   id="rect3599"
   style="fill:none;stroke:#000000;stroke-width:1.25" />
<rect
   x="169.31134"
   y="-340.74368"
   width="42.519997"
   height="10.983749"
   id="rect3601"
   style="fill:none;stroke:#000000;stroke-width:1.25" />
<path
   stroke-miterlimit="2.6131"
   d="m 144.68511,-293.13117 c 0,1.95625 -1.58751,3.5425 -3.54251,3.5425 H 91.536353 c -1.9575,0 -3.5425,-1.58625 -3.5425,-3.5425 v -13.28875 c 0,-0.94 0.37125,-1.84125 1.0375,-2.505 l 3.5425,-3.5425 c 0.66375,-0.665 1.565,-1.0375 2.505,-1.0375 H 137.6001 c 0.94001,0 1.84126,0.3725 2.505,1.0375 l 3.5425,3.5425 c 0.66375,0.66375 1.03751,1.565 1.03751,2.505 v 13.28875 z"
   id="path3603"
   inkscape:connector-curvature="0"
   style="fill:none;stroke:#000000;stroke-width:1.25;stroke-miterlimit:2.61310005" />
<path
   d="m 130.08385,-273.23367 v -3.87875 h -4.48374 v 3.87875 h -1.21001 v -9.26875 h 1.21001 v 4.34625 h 4.48374 v -4.34625 h 1.1975 v 9.26875 h -1.1975 z"
   id="path3605"
   inkscape:connector-curvature="0"
   style="fill:#ed1c24" />
<path
   d="m 122.47011,-273.35742 c -0.73,0.11125 -1.59625,0.1925 -2.545,0.1925 -1.71875,0 -2.9425,-0.39875 -3.75375,-1.155 -0.825,-0.75625 -1.30625,-1.83 -1.30625,-3.3275 0,-1.51375 0.46625,-2.75125 1.3325,-3.60375 0.86625,-0.86625 2.2975,-1.33375 4.09875,-1.33375 0.8525,0 1.5675,0.0412 2.1725,0.11 v 9.1175 z m -1.19751,-8.19625 c -0.30125,-0.055 -0.7425,-0.0687 -1.21,-0.0687 -2.55875,0 -3.94749,1.43 -3.94749,3.9325 -0.0125,2.18625 1.22375,3.575 3.75499,3.575 0.61875,0 1.08625,-0.055 1.40251,-0.125 v -7.31375 z"
   id="path3607"
   inkscape:connector-curvature="0"
   style="fill:#ed1c24" />
<path
   d="m 105.69886,-278.43242 c 0.07,1.2925 0.15125,2.84625 0.1375,4.0025 h 0.0413 c 0.315,-1.08625 0.70125,-2.25625 1.16875,-3.52 l 1.6375,-4.4975 h 0.9075 l 1.49875,4.41375 c 0.44125,1.30625 0.81125,2.5025 1.0725,3.60375 h 0.0263 c 0.0275,-1.15625 0.0962,-2.71 0.18,-4.0975 l 0.2475,-3.975 h 1.14 l -0.64625,9.26875 h -1.5275 l -1.58125,-4.48375 c -0.385,-1.14125 -0.7025,-2.16 -0.935,-3.12125 h -0.0413 c -0.23375,0.935 -0.5625,1.9525 -0.975,3.12125 l -1.65,4.48375 h -1.5275 l -0.57751,-9.26875 h 1.17001 l 0.23375,4.07 z"
   id="path3609"
   inkscape:connector-curvature="0"
   style="fill:#ed1c24" />
<path
   d="m 101.39635,-273.23367 v -9.26875 h 1.19625 v 9.26875 h -1.19625 z"
   id="path3611"
   inkscape:connector-curvature="0"
   style="fill:#ed1c24" />
<path
   d="m 247.74396,757.76903 v -29.41125 h -6.90999 c -1.95625,0 -3.54251,-1.58625 -3.54251,-3.54375 v -11.51625 h 10.63 c 11.92625,0 21.51875,-1.88375 27.37,-4.13375 5.72375,-2.2025 14.67501,-3.8375 25.78001,-3.8375 1.22375,0 2.21375,-0.99125 2.21375,-2.21375 l 0,0 c 0,-1.22375 -0.99125,-2.21375 -2.21375,-2.21375 -11.92625,0 -21.52125,1.8825 -27.37,4.13375 -5.72501,2.20125 -14.67625,3.8375 -25.78001,3.8375 h -10.62999 c -3.67,0 -6.64375,-2.97375 -6.64375,-6.6425 0,-3.66875 2.975,-6.64375 6.64375,-6.64375 v 4.075 h 10.62999 v -4.96 c 0,-1.9575 1.58625,-3.54375 3.54251,-3.54375 h 1.7725 c 0.4525,0.001 0.90624,0.17375 1.2525,0.51875 0.69125,0.69375 1.8125,0.69375 2.505,0 0.69125,-0.69125 1.81375,-0.69125 2.505,10e-4 0.6925,0.6925 1.81375,0.6925 2.505,-10e-4 0.6925,-0.69125 1.81375,-0.69125 2.50624,10e-4 0.6925,0.6925 1.81375,0.6925 2.505,-10e-4 0.6925,-0.69125 1.81375,-0.69125 2.50626,10e-4 0.69125,0.6925 1.81125,0.6925 2.505,-10e-4 0.34375,-0.34375 0.79875,-0.5175 1.2525,-0.5175 h 260.03375 c 0.45375,0 0.90875,0.17375 1.2525,0.5175 0.69374,0.69375 1.81375,0.69375 2.505,10e-4 0.6925,-0.6925 1.81375,-0.6925 2.50625,-10e-4 0.69249,0.69375 1.8125,0.69375 2.505,10e-4 0.6925,-0.6925 1.81375,-0.6925 2.50625,-10e-4 0.69125,0.69375 1.8125,0.69375 2.505,10e-4 0.69125,-0.6925 1.81375,-0.6925 2.505,-10e-4 0.6925,0.69375 1.81375,0.69375 2.505,0 0.34625,-0.345 0.8,-0.5175 1.2525,-0.51875 h 1.7725 c 1.95625,0 3.5425,1.58625 3.5425,3.54375 v 4.96 h 11.16125 v -4.075 c 3.67,0 6.6425,2.975 6.6425,6.64375 0,3.66875 -2.97375,6.6425 -6.6425,6.6425 h -11.16125 c -11.10375,0 -20.055,-1.6375 -25.78,-3.8375 -5.85,-2.25125 -15.4425,-4.13375 -27.36875,-4.13375 -1.22375,0 -2.21375,0.99125 -2.21375,2.21375 l 0,0 c 0,1.22375 0.99125,2.21375 2.21375,2.21375 11.10375,0 20.05375,1.63625 25.77875,3.8375 5.85,2.25 15.4425,4.13375 27.37,4.13375 h 11.16125 v 11.51625 c 0,1.9575 -1.58625,3.54375 -3.5425,3.54375 h -7.44125 v 36.495 h 7.44125 c 1.95625,0 3.5425,1.58625 3.5425,3.5425 v 15.945 c 3.67,0 6.6425,2.975 6.6425,6.64375 0,3.66875 -2.97375,6.64375 -6.6425,6.64375 v -4.075 h -11.16125 v 4.96 c 0,1.95625 -1.58625,3.54375 -3.5425,3.54375 h -303.6625 c -1.95625,0 -3.5425,-1.5875 -3.5425,-3.54375 v -4.96 h -10.63 v 4.075 c -3.67,0 -6.64375,-2.975 -6.64375,-6.64375 0,-3.66875 2.975,-6.64375 6.64375,-6.64375 v -15.9425 c 0,-1.9575 1.58625,-3.545 3.5425,-3.545 h 136.4175 c 1.9575,0 3.54375,-1.5875 3.54375,-3.54375 0,-1.95625 -1.58625,-3.54375 -3.54375,-3.54375 l -129.50876,0.004 z"
   id="path3613"
   inkscape:connector-curvature="0"
   style="fill:none;stroke:#000000;stroke-width:1.25" />
<rect
   x="319.67273"
   y="782.56903"
   width="42.519997"
   height="10.985001"
   id="rect3615"
   style="fill:none;stroke:#000000;stroke-width:1.25" />
<rect
   x="445.45898"
   y="782.56903"
   width="42.519997"
   height="10.985001"
   id="rect3617"
   style="fill:none;stroke:#000000;stroke-width:1.25" />
<rect
   x="319.67273"
   y="699.65649"
   width="42.519997"
   height="10.985001"
   id="rect3619"
   style="fill:none;stroke:#000000;stroke-width:1.25" />
<rect
   x="445.45898"
   y="699.65649"
   width="42.519997"
   height="10.985001"
   id="rect3621"
   style="fill:none;stroke:#000000;stroke-width:1.25" />
<path
   d="m 430.94897,720.67403 c 0.44125,-0.22 1.32125,-0.45375 2.44874,-0.45375 2.6125,0 4.58001,1.66375 4.58001,4.70375 0,2.90125 -1.96751,4.86875 -4.84125,4.86875 -1.155,0 -1.885,-0.2475 -2.2,-0.4125 l 0.2875,-0.97625 c 0.45375,0.22125 1.10124,0.385 1.87,0.385 2.1725,0 3.6175,-1.38875 3.6175,-3.82375 0,-2.2675 -1.30625,-3.725 -3.5625,-3.725 -0.72876,0 -1.47126,0.15125 -1.95251,0.385 l -0.24749,-0.95125 z"
   id="path3623"
   inkscape:connector-curvature="0"
   style="fill:#ed1c24" />
<path
   d="m 423.84521,723.75528 c 0,-2.4625 1.70375,-3.535 3.31375,-3.535 1.8,0 3.19001,1.32125 3.19001,3.42375 0,2.2275 -1.45751,3.53375 -3.30126,3.53375 -1.91125,0 -3.2025,-1.38875 -3.2025,-3.4225 z m 5.28001,-0.07 c 0,-1.4575 -0.84001,-2.5575 -2.02126,-2.5575 -1.15499,0 -2.02125,1.08625 -2.02125,2.585 0,1.1275 0.56375,2.5575 1.99376,2.5575 1.42999,0 2.04875,-1.31875 2.04875,-2.585 z"
   id="path3625"
   inkscape:connector-curvature="0"
   style="fill:#ed1c24" />
<path
   d="m 422.48021,725.22528 c 0,0.6875 0.0138,1.25125 0.0538,1.8 h -1.05876 l -0.055,-1.07125 h -0.0413 c -0.37126,0.6325 -0.99,1.22375 -2.09001,1.22375 -0.90874,0 -1.595,-0.54875 -1.88499,-1.3325 h -0.0263 c -0.20626,0.37125 -0.46751,0.65875 -0.74251,0.86625 -0.39875,0.3025 -0.84,0.46625 -1.4725,0.46625 -0.87874,0 -2.18625,-0.57625 -2.18625,-2.88875 v -3.91875 h 1.18251 v 3.76875 c 0,1.2775 0.4675,2.05 1.44374,2.05 0.6875,0 1.22375,-0.51 1.43,-1.10125 0.0562,-0.165 0.0975,-0.38625 0.0975,-0.605 v -4.11125 h 1.18125 v 3.9875 c 0,1.05875 0.4675,1.83 1.38875,1.83 0.75625,0 1.30625,-0.605 1.49875,-1.21125 0.0688,-0.17875 0.0962,-0.38625 0.0962,-0.59125 v -4.01625 h 1.1825 v 4.855 z"
   id="path3627"
   inkscape:connector-curvature="0"
   style="fill:#ed1c24" />
<path
   d="m 411.23772,724.85403 c 0,0.85375 0.0263,1.54 0.0537,2.1725 h -1.08625 l -0.0538,-1.14 h -0.0275 c -0.495,0.81 -1.27749,1.29125 -2.365,1.29125 -1.60874,0 -2.81999,-1.36125 -2.81999,-3.3825 0,-2.3925 1.4575,-3.575 3.025,-3.575 0.88125,0 1.65,0.38625 2.05,1.045 h 0.0275 v -3.61625 h 1.19626 v 7.205 z m -1.19626,-1.7725 c 0,-0.18 -0.0275,-0.34375 -0.0563,-0.495 -0.22,-0.84 -0.94875,-1.41625 -1.81375,-1.41625 -1.27875,0 -2.02125,1.045 -2.02125,2.57125 0,1.33375 0.70125,2.475 1.98,2.475 0.825,0 1.59375,-0.59125 1.82875,-1.49875 0.0413,-0.15125 0.0825,-0.33 0.0825,-0.495 v -1.14125 z"
   id="path3629"
   inkscape:connector-curvature="0"
   style="fill:#ed1c24" />
<path
   d="m 397.44646,723.75528 c 0,-2.4625 1.70375,-3.535 3.3125,-3.535 1.80125,0 3.19125,1.32125 3.19125,3.42375 0,2.2275 -1.4575,3.53375 -3.30125,3.53375 -1.91124,0 -3.2025,-1.38875 -3.2025,-3.4225 z m 5.28,-0.07 c 0,-1.4575 -0.84,-2.5575 -2.0225,-2.5575 -1.155,0 -2.02125,1.08625 -2.02125,2.585 0,1.1275 0.56375,2.5575 1.99375,2.5575 1.43,0 2.05,-1.31875 2.05,-2.585 z"
   id="path3631"
   inkscape:connector-curvature="0"
   style="fill:#ed1c24" />
<path
   d="m 396.33021,721.60903 c -0.35625,-0.235 -0.99,-0.48125 -1.59375,-0.48125 -0.88125,0 -1.29375,0.44 -1.29375,0.98875 0,0.57875 0.34375,0.895 1.2375,1.225 1.19625,0.425 1.76001,1.08625 1.76001,1.88375 0,1.0725 -0.86626,1.9525 -2.29625,1.9525 -0.67376,0 -1.26625,-0.19125 -1.63751,-0.4125 l 0.3025,-0.87875 c 0.26125,0.16375 0.7425,0.385 1.3625,0.385 0.715,0 1.11376,-0.4125 1.11376,-0.9075 0,-0.55 -0.39751,-0.79875 -1.26501,-1.1275 -1.15499,-0.44125 -1.74624,-1.0175 -1.74624,-2.0075 0,-1.16875 0.9075,-2.0075 2.48874,-2.0075 0.72876,0 1.40251,0.1925 1.87,0.4675 l -0.3025,0.92 z"
   id="path3633"
   inkscape:connector-curvature="0"
   style="fill:#ed1c24" />
<path
   d="m 389.63771,728.89653 c -0.0138,-0.4125 0.28751,-0.7425 0.77,-0.7425 0.42625,0 0.72875,0.33 0.72875,0.7425 0,0.4275 -0.31625,0.75625 -0.75625,0.75625 -0.45375,0 -0.7425,-0.32875 -0.7425,-0.75625 z m 1.34875,-8.525 v 6.655 h -1.21125 v -6.655 h 1.21125 z"
   id="path3635"
   inkscape:connector-curvature="0"
   style="fill:#ed1c24" />
<path
   d="m 386.50896,728.62278 v -1.59625 h -1.7325 v -0.92 h 1.7325 v -3.58875 c 0,-0.825 -0.23375,-1.29375 -0.9075,-1.29375 -0.33125,0 -0.5225,0.0275 -0.7025,0.0825 l -0.0537,-0.90875 c 0.23375,-0.095 0.60375,-0.17875 1.07125,-0.17875 0.56376,0 1.01751,0.1925 1.30626,0.5225 0.34374,0.3575 0.46875,0.95 0.46875,1.73375 v 3.63 h 1.03 v 0.92 h -1.03 v 1.22375 l -1.18251,0.37375 z"
   id="path3637"
   inkscape:connector-curvature="0"
   style="fill:#ed1c24" />
<path
   d="m 383.04771,723.47903 c -0.0275,-1.63625 -1.0725,-2.31 -2.2825,-2.31 -0.865,0 -1.38875,0.15125 -1.8425,0.3425 l -0.2075,-0.865 c 0.4275,-0.1925 1.155,-0.4275 2.21375,-0.4275 2.05,0 3.27376,1.3625 3.27376,3.36875 0,2.0075 -1.18375,3.58875 -3.1225,3.58875 -2.1725,0 -2.75,-1.91125 -2.75,-3.135 0,-0.2475 0.0275,-0.44 0.0412,-0.56375 h 4.67624 z m -3.54875,0.86625 c -0.0125,0.76875 0.31751,1.96625 1.67876,1.96625 1.22374,0 1.76,-1.1275 1.85625,-1.96625 h -3.53501 z"
   id="path3639"
   inkscape:connector-curvature="0"
   style="fill:#ed1c24" />
<path
   d="m 435.39271,706.62153 3.025,9.26875 h -1.2925 l -1.44374,-4.565 c -0.3975,-1.25125 -0.7425,-2.37875 -0.99,-3.465 h -0.0275 c -0.26125,1.07125 -0.64625,2.24125 -1.05875,3.4525 l -1.56875,4.57875 h -1.2775 l 3.31375,-9.26875 h 1.31999 z"
   id="path3641"
   inkscape:connector-curvature="0"
   style="fill:#ed1c24" />
<path
   d="m 428.48396,715.14653 c -0.0125,-0.4125 0.28875,-0.7425 0.77126,-0.7425 0.42499,0 0.72749,0.33 0.72749,0.7425 0,0.4275 -0.315,0.75625 -0.75499,0.75625 -0.45501,0 -0.74376,-0.32875 -0.74376,-0.75625 z m 1.34751,-8.525 v 6.655 h -1.21001 v -6.655 h 1.21001 z"
   id="path3643"
   inkscape:connector-curvature="0"
   style="fill:#ed1c24" />
<path
   d="m 421.03771,716.38403 v -8.045 c 0,-0.59125 -0.015,-1.265 -0.0562,-1.71875 h 1.08626 l 0.0562,1.155 h 0.0263 c 0.37125,-0.7425 1.1825,-1.30625 2.26874,-1.30625 1.60875,0 2.84625,1.3625 2.84625,3.38375 0.0138,2.21375 -1.36124,3.57375 -2.98499,3.57375 -1.01751,0 -1.70375,-0.48125 -2.00625,-1.01625 h -0.0275 v 3.97375 h -1.20876 z m 1.20875,-5.81625 c 0,0.15125 0.0138,0.3575 0.055,0.50875 0.17875,0.77 0.83875,1.4025 1.74625,1.4025 1.25125,0 1.99375,-1.1 1.99375,-2.5725 0,-1.3475 -0.65875,-2.46125 -1.965,-2.46125 -0.8125,0 -1.555,0.5375 -1.775,1.44375 -0.0412,0.165 -0.055,0.33 -0.055,0.5225 v 1.15625 z"
   id="path3645"
   inkscape:connector-curvature="0"
   style="fill:#ed1c24" />
<path
   d="m 418.51646,709.72903 c -0.0275,-1.63625 -1.0725,-2.31 -2.2825,-2.31 -0.865,0 -1.38875,0.15125 -1.8425,0.3425 l -0.2075,-0.865 c 0.4275,-0.1925 1.155,-0.4275 2.21375,-0.4275 2.05,0 3.27376,1.3625 3.27376,3.36875 0,2.0075 -1.18375,3.58875 -3.1225,3.58875 -2.1725,0 -2.75,-1.91125 -2.75,-3.135 0,-0.2475 0.0275,-0.44 0.0412,-0.56375 h 4.67624 z m -3.54875,0.86625 c -0.0125,0.76875 0.31751,1.96625 1.67876,1.96625 1.22374,0 1.76,-1.1275 1.85625,-1.96625 h -3.53501 z"
   id="path3647"
   inkscape:connector-curvature="0"
   style="fill:#ed1c24" />
<path
   d="m 406.35021,710.00528 c 0,-2.4625 1.70375,-3.535 3.3125,-3.535 1.80125,0 3.19125,1.32125 3.19125,3.42375 0,2.2275 -1.4575,3.53375 -3.30125,3.53375 -1.91125,0 -3.2025,-1.38875 -3.2025,-3.4225 z m 5.28,-0.07 c 0,-1.4575 -0.84,-2.5575 -2.0225,-2.5575 -1.155,0 -2.02125,1.08625 -2.02125,2.585 0,1.1275 0.56375,2.5575 1.99375,2.5575 1.43,0 2.05,-1.31875 2.05,-2.585 z"
   id="path3649"
   inkscape:connector-curvature="0"
   style="fill:#ed1c24" />
<path
   d="m 394.22021,711.35278 c 0,-3.19125 1.94,-4.8825 4.30375,-4.8825 2.44875,0 4.1675,1.8975 4.1675,4.70375 0,2.9425 -1.82875,4.86875 -4.30375,4.86875 -2.53,-10e-4 -4.1675,-1.94125 -4.1675,-4.69 z m 7.1925,-0.15125 c 0,-1.98125 -1.07125,-3.755 -2.95625,-3.755 -1.8975,0 -2.97,1.745 -2.97,3.85 0,1.84375 0.96375,3.76875 2.95626,3.76875 1.97999,-10e-4 2.96999,-1.82875 2.96999,-3.86375 z"
   id="path3651"
   inkscape:connector-curvature="0"
   style="fill:#ed1c24" />
<path
   d="m 387.22147,708.43653 c 0,-0.6875 -0.0138,-1.2925 -0.055,-1.815 h 1.0725 l 0.0688,1.08625 h 0.0263 c 0.3175,-0.5375 1.0175,-1.2375 2.20125,-1.2375 1.045,0 2.29625,0.5775 2.29625,2.915 v 3.89125 h -1.21 v -3.68375 c 0,-1.26625 -0.385,-2.11875 -1.485,-2.11875 -0.81,0 -1.375,0.56375 -1.59375,1.10125 -0.07,0.17875 -0.11,0.3975 -0.11,0.6175 v 4.085 h -1.21125 v -4.84125 z"
   id="path3653"
   inkscape:connector-curvature="0"
   style="fill:#ed1c24" />
<path
   d="m 383.94272,714.87278 v -1.59625 h -1.73376 v -0.92 h 1.73376 v -3.58875 c 0,-0.825 -0.23501,-1.29375 -0.90875,-1.29375 -0.33,0 -0.5225,0.0275 -0.70125,0.0825 l -0.055,-0.90875 c 0.23375,-0.095 0.60375,-0.17875 1.0725,-0.17875 0.56375,0 1.01625,0.1925 1.30625,0.5225 0.34375,0.3575 0.4675,0.95 0.4675,1.73375 v 3.63 h 1.03125 v 0.92 h -1.03125 v 1.22375 l -1.18125,0.37375 z"
   id="path3655"
   inkscape:connector-curvature="0"
   style="fill:#ed1c24" />
<path
   d="m 537.52272,754.05278 0.96374,-2.915 h 1.2375 l -3.14999,9.26875 h -1.445 l -3.16126,-9.26875 h 1.2775 l 0.99,2.915 h 3.28751 z m -3.04,0.935 0.9075,2.66875 c 0.2075,0.605 0.34374,1.155 0.48249,1.6925 h 0.0275 c 0.13624,-0.55 0.2875,-1.115 0.46625,-1.67875 l 0.90874,-2.6825 h -2.79249 z"
   id="path3657"
   inkscape:connector-curvature="0"
   style="fill:#ed1c24" />
<path
   d="m 525.46146,752.95278 c 0,-0.6875 -0.015,-1.2925 -0.0562,-1.815 h 1.0725 l 0.07,1.08625 h 0.0263 c 0.31624,-0.5375 1.01749,-1.2375 2.19999,-1.2375 1.045,0 2.2975,0.5775 2.2975,2.915 v 3.89125 h -1.21125 v -3.68375 c 0,-1.26625 -0.385,-2.11875 -1.48499,-2.11875 -0.81125,0 -1.375,0.56375 -1.59501,1.10125 -0.07,0.17875 -0.11,0.3975 -0.11,0.6175 v 4.085 h -1.21 v -4.84125 z"
   id="path3659"
   inkscape:connector-curvature="0"
   style="fill:#ed1c24" />
<path
   d="m 517.86021,760.90028 v -8.045 c 0,-0.59125 -0.0137,-1.265 -0.055,-1.71875 h 1.08625 l 0.055,1.155 h 0.0275 c 0.37125,-0.7425 1.18125,-1.30625 2.2675,-1.30625 1.60874,0 2.84625,1.3625 2.84625,3.38375 0.015,2.21375 -1.36126,3.57375 -2.98375,3.57375 -1.0175,0 -1.705,-0.48125 -2.0075,-1.01625 h -0.0275 v 3.97375 h -1.20876 z m 1.20875,-5.81625 c 0,0.15125 0.015,0.3575 0.0563,0.50875 0.17874,0.77 0.8375,1.4025 1.745,1.4025 1.2525,0 1.995,-1.1 1.995,-2.5725 0,-1.3475 -0.66001,-2.46125 -1.96625,-2.46125 -0.81125,0 -1.55375,0.5375 -1.77375,1.44375 -0.0412,0.165 -0.0562,0.33 -0.0562,0.5225 v 1.15625 z"
   id="path3661"
   inkscape:connector-curvature="0"
   style="fill:#ed1c24" />
<path
   d="m 514.73146,759.66278 c -0.015,-0.4125 0.28751,-0.7425 0.76875,-0.7425 0.4275,0 0.73,0.33 0.73,0.7425 0,0.4275 -0.3175,0.75625 -0.75625,0.75625 -0.45499,10e-4 -0.7425,-0.32875 -0.7425,-0.75625 z m 1.3475,-8.525 v 6.655 h -1.21124 v -6.655 h 1.21124 z"
   id="path3663"
   inkscape:connector-curvature="0"
   style="fill:#ed1c24" />
<path
   d="m 507.01397,754.52153 c 0,-2.4625 1.70375,-3.535 3.31374,-3.535 1.80001,0 3.19,1.32125 3.19,3.42375 0,2.2275 -1.45749,3.53375 -3.30124,3.53375 -1.91125,0 -3.2025,-1.38875 -3.2025,-3.4225 z m 5.27999,-0.07 c 0,-1.4575 -0.84,-2.5575 -2.02125,-2.5575 -1.15499,0 -2.02125,1.08625 -2.02125,2.585 0,1.1275 0.56375,2.5575 1.99375,2.5575 1.43001,10e-4 2.04875,-1.31875 2.04875,-2.585 z"
   id="path3665"
   inkscape:connector-curvature="0"
   style="fill:#ed1c24" />
<path
   d="m 518.86021,742.11903 c 0,-3.19125 1.94001,-4.8825 4.30375,-4.8825 2.4475,0 4.16625,1.8975 4.16625,4.70375 0,2.9425 -1.82874,4.86875 -4.30375,4.86875 -2.52874,-10e-4 -4.16625,-1.94125 -4.16625,-4.69 z m 7.19125,-0.15125 c 0,-1.98125 -1.07124,-3.755 -2.95625,-3.755 -1.89749,0 -2.96999,1.745 -2.96999,3.85 0,1.84375 0.96375,3.76875 2.9575,3.76875 1.98,0 2.96874,-1.82875 2.96874,-3.86375 z"
   id="path3667"
   inkscape:connector-curvature="0"
   style="fill:#ed1c24" />
<path
   d="m 511.86021,739.20278 c 0,-0.6875 -0.0125,-1.2925 -0.0537,-1.815 h 1.07126 l 0.0688,1.08625 h 0.0275 c 0.31625,-0.5375 1.01624,-1.2375 2.20125,-1.2375 1.045,0 2.29625,0.5775 2.29625,2.915 v 3.89125 h -1.21001 v -3.68375 c 0,-1.26625 -0.38625,-2.11875 -1.48499,-2.11875 -0.81126,0 -1.37625,0.56375 -1.595,1.10125 -0.0687,0.17875 -0.11,0.3975 -0.11,0.6175 v 4.085 h -1.21126 v -4.84125 z"
   id="path3669"
   inkscape:connector-curvature="0"
   style="fill:#ed1c24" />
<path
   d="m 508.58147,745.63903 v -1.59625 h -1.73251 v -0.92 h 1.73251 v -3.58875 c 0,-0.825 -0.23375,-1.29375 -0.90751,-1.29375 -0.33124,0 -0.5225,0.0275 -0.70249,0.0825 l -0.0538,-0.90875 c 0.23375,-0.095 0.60375,-0.17875 1.07126,-0.17875 0.56375,0 1.0175,0.1925 1.30625,0.5225 0.34375,0.3575 0.46875,0.95 0.46875,1.73375 v 3.63 h 1.03 v 0.92 h -1.03 v 1.22375 l -1.1825,0.37375 z"
   id="path3671"
   inkscape:connector-curvature="0"
   style="fill:#ed1c24" />
<circle
   stroke-miterlimit="2.6131"
   cx="430.72699"
   cy="324.004"
   r="9.9209995"
   id="circle3673"
   sodipodi:cx="430.72699"
   sodipodi:cy="324.004"
   sodipodi:rx="9.9209995"
   sodipodi:ry="9.9209995"
   transform="matrix(1.25,0,0,1.25,-51.847281,343.99528)"
   style="fill:none;stroke:#000000;stroke-miterlimit:2.61310005" />
<circle
   stroke-miterlimit="2.6131"
   cx="377.37299"
   cy="329.10699"
   r="14.882"
   id="circle3675"
   sodipodi:cx="377.37299"
   sodipodi:cy="329.10699"
   sodipodi:rx="14.882"
   sodipodi:ry="14.882"
   transform="matrix(1.25,0,0,1.25,-51.847281,343.99528)"
   style="fill:none;stroke:#000000;stroke-miterlimit:2.61310005" />

<path
   d="m 372.49024,589.90946 c 0,1.955 -1.58752,3.54 -3.54253,3.54 l -67.32422,0 0,7.0875 c 0,1.955 -1.58752,3.5425 -3.54253,3.5425 l -28.34661,0 c -1.95626,0 -2.08268,-2.24358 -3.54377,-3.5425 l 0,-7.0875 -265.7481967,-1.8e-4 0,7.0875 c 0,1.955 -1.587511,3.54249 -3.542526,3.5425 l -29.4102313,1.8e-4 c -1.955014,10e-6 -3.640141,-1.58994 -3.542525,-3.5425 l 0,-7.0875 -67.321501,0 c -1.95752,0 -3.54503,-1.585 -3.54503,-3.54 l 0,-277.44455 c 0,-1.955 1.58751,-3.5425 3.54503,-3.5425 l 67.321501,0 0,-7.0875 c 0,-1.955 1.587511,-3.54249 3.542525,-3.5425 l 29.4102313,-1.8e-4 c 1.955015,-1e-5 3.542526,1.5875 3.542526,3.5425 l 0,7.0875 265.7481967,1.8e-4 0,-7.0875 c 0,-1.955 1.58751,-3.5425 3.54377,-3.5425 l 28.34661,0 c 1.95501,0 3.54253,1.5875 3.54253,3.5425 l 0,7.0875 67.32422,0 c 1.95501,0 3.54253,1.5875 3.54253,3.5425 z"
   id="path3679"
   inkscape:connector-curvature="0"
   style="fill:none;stroke:#000000;stroke-width:1.0629921;stroke-miterlimit:4;stroke-dasharray:none"
   sodipodi:nodetypes="sscssssccsssscsssscssssccsssscsss" />
<rect
   x="315.95013"
   y="-340.39243"
   width="11.2675"
   height="28.3475"
   id="rect3681"
   style="fill:none;stroke:#000000;stroke-width:1.25" />
<rect
   x="315.95013"
   y="-275.55118"
   width="11.2675"
   height="28.3475"
   id="rect3683"
   style="fill:none;stroke:#000000;stroke-width:1.25" />
<rect
   x="526.42389"
   y="-340.39243"
   width="11.26875"
   height="28.3475"
   id="rect3685"
   style="fill:none;stroke:#000000;stroke-width:1.25" />
<rect
   x="526.42389"
   y="-275.55118"
   width="11.26875"
   height="28.3475"
   id="rect3687"
   style="fill:none;stroke:#000000;stroke-width:1.25" />
<path
   d="m 307.4101,-338.61992 c 0,-5.87125 4.76126,-10.63 10.63001,-10.63 h 217.56124 c 5.86875,0 10.63,4.75875 10.63,10.63 v 91.41625 c 0,9.785 -7.93249,17.71625 -17.71749,17.71625 -6.55375,0 -12.2625,-3.5675 -15.3275,-8.8575 H 340.4551 c -3.06375,5.29 -8.77249,8.8575 -15.3275,8.8575 -9.785,0 -17.7175,-7.93125 -17.7175,-17.71625 v -91.41625 z"
   id="path3689"
   inkscape:connector-curvature="0"
   style="fill:none;stroke:#000000;stroke-width:1.25" />
<path
   d="m 364.8126,-268.99367 0.88625,-0.88625 h 25.335 c 1.9575,0 3.54251,-1.5875 3.54251,-3.54375 v -47.83375 c 0,-1.95625 -1.585,-3.54375 -3.54251,-3.54375 h -54.92249 c -1.95501,0 -3.5425,1.5875 -3.5425,3.54375 v 47.835 c 0,1.95625 1.58749,3.54375 3.5425,3.54375 h 25.3375 l 0.88624,0.88625"
   id="path3691"
   inkscape:connector-curvature="0"
   style="fill:none;stroke:#000000;stroke-width:1.25" />
<path
   stroke-miterlimit="2.6131"
   d="m 410.52385,-324.80117 c 0,-1.95625 1.5875,-3.54375 3.54375,-3.54375 h 47.83375 c 1.9575,0 3.54375,1.5875 3.54375,3.54375 v 51.37875 c 0,1.95625 -1.58625,3.54375 -3.54375,3.54375 H 414.0676 c -1.95625,0 -3.54375,-1.5875 -3.54375,-3.54375 v -51.37875 z"
   id="path3693"
   inkscape:connector-curvature="0"
   style="fill:none;stroke:#000000;stroke-width:1.25;stroke-miterlimit:2.61310005" />
<path
   d="m 340.43385,-253.50617 v -9.26875 h 1.30626 l 2.97125,4.68875 c 0.6875,1.08625 1.22375,2.0625 1.66374,3.0125 l 0.0263,-0.015 c -0.11001,-1.2375 -0.13625,-2.365 -0.13625,-3.80875 v -3.8775 h 1.1275 v 9.26875 h -1.21125 l -2.9425,-4.70375 c -0.64625,-1.03125 -1.265,-2.09 -1.7325,-3.095 l -0.0413,0.015 c 0.0688,1.16875 0.0963,2.2825 0.0963,3.82375 v 3.96 h -1.12751 z"
   id="path3695"
   inkscape:connector-curvature="0"
   style="fill:#ed1c24" />
<path
   d="m 350.0076,-256.61492 c 0.0275,1.63625 1.0725,2.31 2.2825,2.31 0.86625,0 1.38875,-0.15125 1.84376,-0.3425 l 0.20625,0.865 c -0.42625,0.1925 -1.155,0.4275 -2.21375,0.4275 -2.04876,0 -3.2725,-1.3625 -3.2725,-3.36875 0,-2.0075 1.1825,-3.58875 3.12125,-3.58875 2.1725,0 2.75125,1.91125 2.75125,3.135 0,0.2475 -0.0275,0.44 -0.0412,0.56375 h -4.67751 z m 3.54875,-0.86625 c 0.0138,-0.76875 -0.31624,-1.96625 -1.6775,-1.96625 -1.22375,0 -1.76,1.1275 -1.85625,1.96625 h 3.53375 z"
   id="path3697"
   inkscape:connector-curvature="0"
   style="fill:#ed1c24" />
<path
   d="m 357.54261,-261.75867 v 1.59625 h 1.7325 v 0.92 h -1.7325 v 3.58875 c 0,0.825 0.23375,1.29375 0.90749,1.29375 0.33,0 0.5225,-0.0275 0.70251,-0.0825 l 0.055,0.90875 c -0.235,0.095 -0.60499,0.17875 -1.0725,0.17875 -0.56375,0 -1.0175,-0.1925 -1.30625,-0.5225 -0.34374,-0.3575 -0.4675,-0.95 -0.4675,-1.73375 v -3.63 h -1.03125 v -0.92 h 1.03125 v -1.22375 l 1.18126,-0.37375 z"
   id="path3699"
   inkscape:connector-curvature="0"
   style="fill:#ed1c24" />
<path
   d="m 361.24385,-260.16117 0.88001,3.3825 c 0.19125,0.7425 0.37125,1.43 0.495,2.1175 h 0.0413 c 0.15125,-0.67375 0.37125,-1.38875 0.59125,-2.1175 l 1.08625,-3.3825 h 1.0175 l 1.03125,3.3275 c 0.2475,0.7975 0.44125,1.49875 0.59125,2.1725 h 0.0412 c 0.11,-0.67375 0.28875,-1.37625 0.50875,-2.16 l 0.94875,-3.34125 h 1.1975 l -2.14625,6.655 h -1.1 l -1.0175,-3.17625 c -0.23375,-0.7425 -0.42625,-1.40375 -0.59125,-2.1875 h -0.0275 c -0.165,0.79875 -0.37125,1.485 -0.60375,2.20125 l -1.0725,3.1625 h -1.1 l -2.0075,-6.655 h 1.23624 z"
   id="path3701"
   inkscape:connector-curvature="0"
   style="fill:#ed1c24" />
<path
   d="m 376.62635,-256.88992 c 0,2.4625 -1.705,3.535 -3.31375,3.535 -1.80124,0 -3.19125,-1.32125 -3.19125,-3.42375 0,-2.2275 1.4575,-3.53375 3.30126,-3.53375 1.90999,-0.001 3.20374,1.38875 3.20374,3.4225 z m -5.28125,0.0687 c 0,1.4575 0.83875,2.5575 2.02125,2.5575 1.155,0 2.02125,-1.08625 2.02125,-2.585 0,-1.1275 -0.56375,-2.5575 -1.995,-2.5575 -1.42875,0 -2.0475,1.32 -2.0475,2.585 z"
   id="path3703"
   inkscape:connector-curvature="0"
   style="fill:#ed1c24" />
<path
   d="m 377.98885,-258.08617 c 0,-0.78375 -0.0138,-1.4575 -0.055,-2.075 h 1.06 l 0.0413,1.30625 h 0.055 c 0.30125,-0.89375 1.03125,-1.4575 1.84251,-1.4575 0.13749,0 0.23499,0.0137 0.34374,0.0412 v 1.14 c -0.125,-0.0262 -0.2475,-0.0412 -0.4125,-0.0412 -0.85375,0 -1.4575,0.6475 -1.6225,1.555 -0.0275,0.165 -0.055,0.35625 -0.055,0.56375 v 3.5475 h -1.1975 v -4.58 z"
   id="path3705"
   inkscape:connector-curvature="0"
   style="fill:#ed1c24" />
<path
   d="m 383.5101,-257.10992 h 0.0263 c 0.16501,-0.23375 0.39876,-0.5225 0.59126,-0.755 l 1.9525,-2.29625 h 1.4575 l -2.57125,2.73625 2.92875,3.91875 h -1.47125 l -2.29751,-3.19125 -0.6175,0.68875 v 2.5025 h -1.1975 v -9.76375 h 1.1975 v 6.16 z"
   id="path3707"
   inkscape:connector-curvature="0"
   style="fill:#ed1c24" />
<path
   d="m 428.98511,-262.77492 v 5.4875 c 0,2.07625 0.92124,2.95625 2.15999,2.95625 1.37626,0 2.25626,-0.90875 2.25626,-2.95625 v -5.4875 h 1.21 v 5.40375 c 0,2.84625 -1.49875,4.01625 -3.5075,4.01625 -1.8975,0 -3.3275,-1.08625 -3.3275,-3.96 v -5.46 h 1.20875 z"
   id="path3709"
   inkscape:connector-curvature="0"
   style="fill:#ed1c24" />
<path
   d="m 436.17385,-254.96367 c 0.53625,0.33 1.32126,0.605 2.145,0.605 1.22375,0 1.94,-0.6475 1.94,-1.5825 0,-0.86625 -0.495,-1.3625 -1.74625,-1.84375 -1.5125,-0.53625 -2.4475,-1.32 -2.4475,-2.6275 0,-1.4425 1.19625,-2.51625 2.9975,-2.51625 0.94876,0 1.63626,0.22125 2.04876,0.45375 l -0.33001,0.975 c -0.3025,-0.16375 -0.92125,-0.44 -1.75999,-0.44 -1.26501,0 -1.74626,0.75625 -1.74626,1.38875 0,0.86625 0.56376,1.2925 1.84376,1.7875 1.5675,0.605 2.36625,1.3625 2.36625,2.72375 0,1.43125 -1.06001,2.6825 -3.24626,2.6825 -0.89374,0 -1.86999,-0.27625 -2.36624,-0.605 l 0.30124,-1.00125 z"
   id="path3711"
   inkscape:connector-curvature="0"
   style="fill:#ed1c24" />
<path
   d="m 442.8151,-262.65242 c 0.52251,-0.11 1.3475,-0.1925 2.18626,-0.1925 1.1975,0 1.96625,0.2075 2.545,0.67375 0.48125,0.35875 0.76875,0.90875 0.76875,1.63875 0,0.89375 -0.59125,1.6775 -1.5675,2.03375 v 0.0275 c 0.88,0.22125 1.91125,0.94875 1.91125,2.32375 0,0.7975 -0.31625,1.4025 -0.78376,1.85625 -0.64749,0.59125 -1.69249,0.86625 -3.20374,0.86625 -0.82501,0 -1.4575,-0.0563 -1.85626,-0.11 v -9.1175 z m 1.19626,8.2375 c 0.23499,0.0413 0.5775,0.0563 1.00499,0.0563 1.2375,0 2.37875,-0.45375 2.37875,-1.80125 0,-1.265 -1.08625,-1.78875 -2.39375,-1.78875 h -0.98999 v 3.53375 z m 0,-4.44125 h 1.08625 c 1.26624,0 2.0075,-0.66 2.0075,-1.555 0,-1.08625 -0.82501,-1.51125 -2.035,-1.51125 -0.55,0 -0.86625,0.04 -1.06,0.0813 v 2.985 z"
   id="path3713"
   inkscape:connector-curvature="0"
   style="fill:#ed1c24" />
<path
   d="m 362.3351,-275.19492 -0.88624,0.885 H 349.4001 c -1.9575,0 -3.545,-1.58625 -3.545,-3.5425 v -2.25625 c 0,-1.05375 0.47125,-2.05375 1.28125,-2.7275 1.41625,-1.17375 2.26375,-2.955 2.26375,-4.76125 0,-3.41875 -2.78375,-6.20125 -6.20125,-6.20125 h -0.88625 c -1.955,0 -3.5425,-1.5875 -3.5425,-3.5425 v -19.4875 c 0,-1.955 1.5875,-3.5425 3.5425,-3.5425 h 42.52 c 1.9575,0 3.545,1.5875 3.545,3.5425 v 19.49 c 0,1.955 -1.5875,3.5425 -3.545,3.5425 h -0.88625 c -3.4175,0 -6.19875,2.7825 -6.19875,6.20125 0,1.805 0.845,3.58625 2.26125,4.76125 0.8125,0.67375 1.28125,1.67375 1.28125,2.7275 v 2.25625 c 0,1.95625 -1.5875,3.5425 -3.5425,3.5425 h -12.04875 l -0.88625,-0.885"
   id="path3715"
   inkscape:connector-curvature="0"
   style="fill:none;stroke:#000000;stroke-width:1.25" />
<rect
   x="204.28523"
   y="764.85406"
   width="11.2675"
   height="28.3475"
   id="rect3717"
   style="fill:none;stroke:#000000;stroke-width:1.25" />
<rect
   x="204.28523"
   y="700.01154"
   width="11.2675"
   height="28.3475"
   id="rect3719"
   style="fill:none;stroke:#000000;stroke-width:1.25" />
<rect
   x="-6.1897798"
   y="764.85406"
   width="11.2675"
   height="28.3475"
   id="rect3721"
   style="fill:none;stroke:#000000;stroke-width:1.25" />
<rect
   x="-6.1897798"
   y="700.01154"
   width="11.2675"
   height="28.3475"
   id="rect3723"
   style="fill:none;stroke:#000000;stroke-width:1.25" />
<path
   d="m 224.09147,791.42778 c 0,5.87125 -4.76126,10.63 -10.63,10.63 H -4.0985306 c -5.86875,0 -10.6300004,-4.75875 -10.6300004,-10.63 v -91.41625 c 0,-9.785 7.9325004,-17.7175 17.7175004,-17.7175 6.5525,0 12.2612496,3.5675 15.3274996,8.8575 H 191.04771 c 3.06625,-5.29 8.775,-8.8575 15.32751,-8.8575 9.78499,0 17.71749,7.9325 17.71749,17.7175 v 91.41625 z"
   id="path3725"
   inkscape:connector-curvature="0"
   style="fill:none;stroke:#000000;stroke-width:1.25" />
<path
   d="m 159.95771,719.49903 c 0,1.955 -1.5875,3.5425 -3.5425,3.5425 H 67.830219 c -1.955,0 -3.5425,-1.5875 -3.5425,-3.5425 v -5.315 c 0,-1.955 1.5875,-3.5425 3.5425,-3.5425 h 88.584991 c 1.955,0 3.5425,1.5875 3.5425,3.5425 v 5.315 z"
   id="path3727"
   inkscape:connector-curvature="0"
   style="fill:none;stroke:#000000;stroke-width:1.25" />
<path
   d="m 49.122719,763.74653 c -0.5775,0.0962 -1.33375,0.18 -2.2975,0.18 -1.18125,0 -2.04875,-0.27625 -2.59875,-0.77125 -0.50875,-0.44 -0.81,-1.11375 -0.81,-1.93875 0,-0.83875 0.24625,-1.49875 0.71375,-1.98 0.63375,-0.67375 1.665,-1.0175 2.83375,-1.0175 0.3575,0 0.6875,0.015 0.96375,0.0825 v -3.71375 h 1.19625 v 9.15875 z m -1.19625,-4.46875 c -0.26125,-0.07 -0.5925,-0.0975 -0.99,-0.0975 -1.44375,0 -2.32375,0.7025 -2.32375,1.98125 0,1.22375 0.865,1.815 2.18625,1.815 0.5225,0 0.92125,-0.0412 1.1275,-0.0962 v -3.6025 z"
   id="path3729"
   inkscape:connector-curvature="0"
   style="fill:#ed1c24" />
<path
   d="m 36.260219,757.97153 c 0,-2.4625 1.705,-3.535 3.31375,-3.535 1.80125,0 3.19125,1.32125 3.19125,3.42375 0,2.2275 -1.4575,3.53375 -3.30125,3.53375 -1.91,0 -3.20375,-1.38875 -3.20375,-3.4225 z m 5.28125,-0.07 c 0,-1.4575 -0.83875,-2.5575 -2.02125,-2.5575 -1.155,0 -2.02125,1.08625 -2.02125,2.585 0,1.1275 0.56375,2.5575 1.995,2.5575 1.42875,0 2.0475,-1.31875 2.0475,-2.585 z"
   id="path3731"
   inkscape:connector-curvature="0"
   style="fill:#ed1c24" />
<path
   d="m 34.552719,761.24278 -0.88,-3.3825 c -0.19125,-0.7425 -0.37125,-1.43 -0.495,-2.1175 h -0.04125 c -0.15125,0.67375 -0.37125,1.38875 -0.59125,2.1175 l -1.08625,3.3825 h -1.0175 l -1.03125,-3.3275 c -0.2475,-0.7975 -0.44125,-1.49875 -0.59125,-2.1725 h -0.04125 c -0.11,0.67375 -0.28875,1.37625 -0.50875,2.16 l -0.94875,3.34125 h -1.1975 l 2.14625,-6.655 h 1.1 l 1.0175,3.17625 c 0.23375,0.7425 0.42625,1.40375 0.59125,2.1875 h 0.0275 c 0.165,-0.79875 0.37125,-1.485 0.60375,-2.20125 l 1.0725,-3.1625 h 1.1 l 2.0075,6.655 h -1.23625 z"
   id="path3733"
   inkscape:connector-curvature="0"
   style="fill:#ed1c24" />
<path
   d="m 24.522719,757.69528 c -0.0275,-1.63625 -1.0725,-2.31 -2.2825,-2.31 -0.86625,0 -1.38875,0.15125 -1.84375,0.3425 l -0.20625,-0.865 c 0.42625,-0.1925 1.155,-0.4275 2.21375,-0.4275 2.04875,0 3.2725,1.3625 3.2725,3.36875 0,2.0075 -1.1825,3.58875 -3.12125,3.58875 -2.1725,0 -2.75125,-1.91125 -2.75125,-3.135 0,-0.2475 0.0275,-0.44 0.04125,-0.56375 h 4.6775 z m -3.54875,0.86625 c -0.01375,0.76875 0.31625,1.96625 1.6775,1.96625 1.22375,0 1.76,-1.1275 1.85625,-1.96625 h -3.53375 z"
   id="path3735"
   inkscape:connector-curvature="0"
   style="fill:#ed1c24" />
<path
   d="m 18.478969,759.16778 c 0,0.78375 0.01375,1.4575 0.055,2.075 h -1.06 l -0.04125,-1.30625 h -0.055 c -0.30125,0.89375 -1.03125,1.4575 -1.8425,1.4575 -0.1375,0 -0.235,-0.0137 -0.34375,-0.0412 v -1.14 c 0.125,0.0263 0.2475,0.0412 0.4125,0.0412 0.85375,0 1.4575,-0.6475 1.6225,-1.555 0.0275,-0.165 0.055,-0.35625 0.055,-0.56375 v -3.5475 h 1.1975 v 4.58 z"
   id="path3737"
   inkscape:connector-curvature="0"
   style="fill:#ed1c24" />
<path
   d="m 133.50271,731.59153 c -0.5375,-0.33 -1.32125,-0.605 -2.14625,-0.605 -1.22375,0 -1.93875,0.6475 -1.93875,1.5825 0,0.86625 0.495,1.3625 1.745,1.84375 1.51376,0.53625 2.44875,1.32 2.44875,2.6275 0,1.4425 -1.19625,2.51625 -2.99749,2.51625 -0.95,0 -1.63751,-0.22125 -2.05001,-0.45375 l 0.33126,-0.975 c 0.30249,0.16375 0.91999,0.44 1.75999,0.44 1.265,0 1.745,-0.75625 1.745,-1.38875 0,-0.86625 -0.56375,-1.2925 -1.84375,-1.7875 -1.5675,-0.605 -2.365,-1.3625 -2.365,-2.72375 0,-1.43125 1.05875,-2.6825 3.24625,-2.6825 0.89375,0 1.87,0.27625 2.36625,0.605 l -0.30125,1.00125 z"
   id="path3739"
   inkscape:connector-curvature="0"
   style="fill:#ed1c24" />
<path
   d="m 126.86271,739.28028 c -0.73,0.11 -1.59624,0.1925 -2.545,0.1925 -1.71875,0 -2.9425,-0.4 -3.75375,-1.15625 -0.825,-0.755 -1.30625,-1.83 -1.30625,-3.3275 0,-1.5125 0.46625,-2.75 1.3325,-3.60375 0.86626,-0.865 2.2975,-1.33375 4.09875,-1.33375 0.8525,0 1.5675,0.0412 2.1725,0.11 v 9.11875 z m -1.1975,-8.19625 c -0.30125,-0.0563 -0.7425,-0.07 -1.20999,-0.07 -2.55875,0 -3.9475,1.43 -3.9475,3.9325 -0.0125,2.18625 1.22375,3.575 3.755,3.575 0.61875,0 1.08625,-0.055 1.4025,-0.125 v -7.3125 z"
   id="path3741"
   inkscape:connector-curvature="0"
   style="fill:#ed1c24" />
<path
   d="m 108.58647,730.43653 c 0.44125,-0.22 1.32125,-0.45375 2.44875,-0.45375 2.61249,0 4.58,1.66375 4.58,4.70375 0,2.90125 -1.96751,4.86875 -4.84125,4.86875 -1.155,0 -1.885,-0.2475 -2.2,-0.4125 l 0.2875,-0.97625 c 0.45375,0.22125 1.10125,0.385 1.87,0.385 2.1725,0 3.6175,-1.38875 3.6175,-3.82375 0,-2.2675 -1.30625,-3.725 -3.5625,-3.725 -0.72875,0 -1.47125,0.15125 -1.9525,0.385 l -0.2475,-0.95125 z"
   id="path3743"
   inkscape:connector-curvature="0"
   style="fill:#ed1c24" />
<path
   d="m 102.61272,731.73028 c 0,-0.5775 -0.0275,-1.14125 -0.11125,-1.595 h 1.10125 l 0.0962,0.83875 h 0.04 c 0.3725,-0.5225 1.08625,-0.99 2.03625,-0.99 1.3475,0 2.035,0.95 2.035,1.91125 0,1.60875 -1.43,2.48875 -4.00125,2.475 v 0.13625 c 0,0.55 0.15125,1.54 1.5125,1.54 0.61875,0 1.265,-0.1925 1.73375,-0.495 l 0.275,0.79875 c -0.55,0.3575 -1.3475,0.59125 -2.18625,0.59125 -2.03625,0 -2.53,-1.38875 -2.53,-2.7225 v -2.48875 z m 1.16875,1.8 c 1.32125,0.0275 2.82,-0.205 2.82,-1.49875 0,-0.78375 -0.5225,-1.155 -1.14125,-1.155 -0.86625,0 -1.4175,0.55 -1.61,1.115 -0.04,0.12375 -0.0687,0.26125 -0.0687,0.385 v 1.15375 z"
   id="path3745"
   inkscape:connector-curvature="0"
   style="fill:#ed1c24" />
<path
   d="m 100.88772,734.71403 c 0,0.78375 0.0138,1.4575 0.055,2.075 h -1.060001 l -0.04,-1.30625 h -0.055 c -0.3025,0.89375 -1.03125,1.4575 -1.84375,1.4575 -0.13625,0 -0.23375,-0.0138 -0.34375,-0.0412 v -1.14 c 0.125,0.0263 0.24875,0.0412 0.4125,0.0412 0.85375,0 1.45875,-0.6475 1.62375,-1.555 0.02625,-0.165 0.055,-0.35625 0.055,-0.56375 v -3.5475 h 1.196251 v 4.58 z"
   id="path3747"
   inkscape:connector-curvature="0"
   style="fill:#ed1c24" />
<path
   d="m 90.867719,739.89778 v -8.045 c 0,-0.59125 -0.01375,-1.265 -0.055,-1.71875 h 1.08625 l 0.055,1.155 h 0.0275 c 0.37125,-0.7425 1.18125,-1.30625 2.2675,-1.30625 1.60875,0 2.84625,1.3625 2.84625,3.38375 0.015,2.21375 -1.36125,3.57375 -2.98375,3.57375 -1.0175,0 -1.705,-0.48125 -2.0075,-1.01625 h -0.0275 v 3.97375 h -1.20875 z m 1.21,-5.8175 c 0,0.15125 0.015,0.3575 0.05625,0.50875 0.17875,0.77 0.8375,1.4025 1.745,1.4025 1.2525,0 1.995,-1.1 1.995,-2.5725 0,-1.3475 -0.66,-2.46125 -1.96625,-2.46125 -0.81125,0 -1.55375,0.5375 -1.77375,1.44375 -0.04125,0.165 -0.05625,0.33 -0.05625,0.5225 v 1.15625 z"
   id="path3749"
   inkscape:connector-curvature="0"
   style="fill:#ed1c24" />
<path
   d="m 18.401469,747.49278 c -3.91375,0 -7.0875,-3.17375 -7.0875,-7.0875 v -17.715 c 0,-3.91375 3.17375,-7.0875 7.0875,-7.0875 h 28.3475 c 3.91375,0 7.085,3.17375 7.085,7.0875 v 17.715 c 0,3.91375 -3.17125,7.0875 -7.085,7.0875 h -28.3475 z"
   id="path3751"
   inkscape:connector-curvature="0"
   style="fill:none;stroke:#000000;stroke-width:1.25" />






























































































































































































































<path
   sodipodi:nodetypes="sscssssccsssscsssscssssccsssscsss"
   style="fill:none;stroke:#000000;stroke-width:1.0629921;stroke-miterlimit:4;stroke-dasharray:none"
   inkscape:connector-curvature="0"
   id="path3845"
   d="m 868.55324,589.90946 c 0,1.955 -1.58752,3.54 -3.54253,3.54 l -67.32422,0 0,7.0875 c 0,1.955 -1.58752,3.5425 -3.54253,3.5425 l -28.34661,0 c -1.95626,0 -2.08268,-2.24358 -3.54377,-3.5425 l 0,-7.0875 -265.7482,-1.8e-4 0,7.0875 c 0,1.955 -1.58751,3.54249 -3.54252,3.5425 l -29.41024,1.8e-4 c -1.95501,10e-6 -3.64014,-1.58994 -3.54252,-3.5425 l 0,-7.0875 -67.3215,0 c -1.95752,0 -3.54503,-1.585 -3.54503,-3.54 l 0,-277.44455 c 0,-1.955 1.58751,-3.5425 3.54503,-3.5425 l 67.3215,0 0,-7.0875 c 0,-1.955 1.58751,-3.54249 3.54252,-3.5425 l 29.41024,-1.8e-4 c 1.95501,-1e-5 3.54252,1.5875 3.54252,3.5425 l 0,7.0875 265.7482,1.8e-4 0,-7.0875 c 0,-1.955 1.58751,-3.5425 3.54377,-3.5425 l 28.34661,0 c 1.95501,0 3.54253,1.5875 3.54253,3.5425 l 0,7.0875 67.32422,0 c 1.95501,0 3.54253,1.5875 3.54253,3.5425 z" /></svg>